<?xml version="1.0" encoding="utf-8"?>
<!-- Generator: Adobe Illustrator 25.0.1, SVG Export Plug-In . SVG Version: 6.00 Build 0)  -->
<svg version="1.1" xmlns="http://www.w3.org/2000/svg" xmlns:xlink="http://www.w3.org/1999/xlink" x="0px" y="0px"
	 viewBox="0 0 40 40" style="enable-background:new 0 0 40 40;" xml:space="preserve">
<style type="text/css">
	.st0{opacity:0.2;fill:#4FADAD;enable-background:new    ;}
	.st1{clip-path:url(#SVGID_2_);fill:#C3E5E0;}
	.st2{clip-path:url(#SVGID_4_);fill:#038B8B;}
	.st3{clip-path:url(#SVGID_6_);fill:#4FADAD;}
	.st4{clip-path:url(#SVGID_8_);fill:#C3E5E0;}
	.st5{clip-path:url(#SVGID_10_);fill:#038B8B;}
	.st6{clip-path:url(#SVGID_12_);fill:#88C4C4;}
	.st7{clip-path:url(#SVGID_14_);fill:#4FADAD;}
	.st8{clip-path:url(#SVGID_16_);fill:#C3E5E0;}
	.st9{fill:none;stroke:#EBFFFB;stroke-width:0.1952;stroke-miterlimit:10;}
	.st10{fill:none;stroke:#EBFFFB;stroke-width:0.1952;stroke-miterlimit:10;stroke-dasharray:0.8757,0.4379;}
	.st11{fill:none;stroke:#EBFFFB;stroke-width:0.1952;stroke-miterlimit:10;stroke-dasharray:0.1914,9.570041e-02;}
	.st12{fill:none;stroke:#EBFFFB;stroke-width:0.1952;stroke-miterlimit:10;stroke-dasharray:0.1914,9.568089e-02;}
	.st13{fill:none;stroke:#EBFFFB;stroke-width:0.1952;stroke-miterlimit:10;stroke-dasharray:0.588,0.294;}
	.st14{fill:#FFFFFF;}
	.st15{fill:none;stroke:#038B8B;stroke-width:0.25;stroke-linecap:round;stroke-linejoin:round;stroke-miterlimit:10;}
	.st16{fill:#038B8B;}
	.st17{fill:none;}
	.st18{fill:none;stroke:#038B8B;stroke-width:0.7808;stroke-miterlimit:10;}
	.st19{fill:none;stroke:#038B8B;stroke-width:0.5;stroke-linecap:round;stroke-linejoin:round;stroke-miterlimit:10;}
</style>
<g id="Calque_1">
	<path class="st0" d="M20,39l0.3-38.1C9.5,0.9,0.7,9.6,0.7,20.5C0.7,31.3,9.2,39,20,39"/>
	<g>
		<g>
			<defs>
				<path id="SVGID_1_" d="M20.2,39.7v-39c10.8,0,19.6,8.8,19.6,19.6S31,39.9,20.2,39.9"/>
			</defs>
			<clipPath id="SVGID_2_">
				<use xlink:href="#SVGID_1_"  style="overflow:visible;"/>
			</clipPath>
			<path class="st1" d="M20,39V0c10.8,0,19.6,8.8,19.6,19.6S30.8,39.2,20,39.2"/>
		</g>
		<g>
			<defs>
				<path id="SVGID_3_" d="M20.2,39.7v-39c10.8,0,19.6,8.8,19.6,19.6S31,39.9,20.2,39.9"/>
			</defs>
			<clipPath id="SVGID_4_">
				<use xlink:href="#SVGID_3_"  style="overflow:visible;"/>
			</clipPath>
			<path class="st2" d="M39,19.4c0.1-0.6-1.4,0.3-2-0.6s-2.8-5.2-4-6.3s-3.2-2.5-4.8-2.2s-3.1,1.6-3.9,2.1s-1,1.2-1,1.2
				s1.2,0.1,1.6-0.3c0.4-0.4,0.8-0.4,0.8,0.1c0,0.6-0.2,1.6,0.4,1.2c0.6-0.4,1.4-1.7,2-1.4s0.3,0.9,0.4,1.4s0.1,0.7,0.9,0.3
				c1.1-0.5,2.2-0.7,3-0.5c1.1,0.2,3.2,3.7,3.5,4c0.2,0.1,1.1,1.3,1.9,1.7C39.6,20.9,38.9,19.8,39,19.4z"/>
		</g>
		<g>
			<defs>
				<path id="SVGID_5_" d="M20.2,39.7v-39c10.8,0,19.6,8.8,19.6,19.6S31,39.9,20.2,39.9"/>
			</defs>
			<clipPath id="SVGID_6_">
				<use xlink:href="#SVGID_5_"  style="overflow:visible;"/>
			</clipPath>
			<path class="st3" d="M39.5,19.6c0,0-1,0.6-1.4,0.4c-0.4-0.1-0.7,0.1-2.1-1.6c-1.3-1.7-2.3-3.9-3.5-4.1c-1.3-0.2-3.1-0.1-3.3,0.5
				c-0.2,0.5,0.4,0.4,0,1.6s-0.9,3.1-1.6,3.2s-1.5,0.6-2.1,0.4c-0.7-0.1-2.3-0.1-3.1,0c-0.9,0.1-2.6,1.6-3.5,1.7s-2.5-0.2-3.6-0.6
				s-2.8-0.3-3.5,0.1c-0.8,0.4-2.3,1-2.3,1.3C9.7,23,10,25,10,25s1-0.6,1.7-0.9c0.8-0.3,2.3-1.1,2.8-1.1s2.5-0.4,3.4,0.1
				s1.8,2,2.8,1.1c1.1-0.9,2.7-1.2,3.8-1.2c1.1,0,1.6,1.5,3,1.2s3.5-1.9,4.9-1.4c1.4,0.5,2.6,1,3.8,0.9c0,0,2-0.7,2.5-0.6
				c0.4,0.1,0.4,0.1,0.4,0.1S39.7,20.2,39.5,19.6z"/>
		</g>
		<g>
			<defs>
				<path id="SVGID_7_" d="M20.2,39.7v-39c10.8,0,19.6,8.8,19.6,19.6S31,39.9,20.2,39.9"/>
			</defs>
			<clipPath id="SVGID_8_">
				<use xlink:href="#SVGID_7_"  style="overflow:visible;"/>
			</clipPath>
			<path class="st4" d="M39,23.8c0,0-0.8-0.4-1.5-0.2c-0.7,0.2-1.3,0.5-2,0.4s-2.8-1.4-4.5-0.9s-3.2,1.3-4,1s-1.4-0.8-2.4-0.8
				c-1,0.1-3.9,0.7-4.6,1c-0.8,0.3,0,1,2.5,1.8c1.4,0.4,2.7,1.4,3.8,0.8c1.1-0.6,2.4-1,3.8-0.7s2.5,1.8,3.3,1.1
				c0.8-0.7,1.3-0.4,2-0.7c0.7-0.3,2.4-0.4,2.8-0.4s0.4,0,0.4,0H38L39,23.8z"/>
		</g>
		<g>
			<defs>
				<path id="SVGID_9_" d="M20.2,39.7v-39c10.8,0,19.6,8.8,19.6,19.6S31,39.9,20.2,39.9"/>
			</defs>
			<clipPath id="SVGID_10_">
				<use xlink:href="#SVGID_9_"  style="overflow:visible;"/>
			</clipPath>
			<path class="st5" d="M23.1,26.5c0.4-0.1-0.3-0.3-0.3-0.3l-1.3-0.7c0,0-0.5-0.9-1.4-0.5s-0.5,1.5,0.5,1.5
				C21.6,26.5,22.8,26.5,23.1,26.5z"/>
		</g>
		<g>
			<defs>
				<path id="SVGID_11_" d="M20.2,39.7v-39c10.8,0,19.6,8.8,19.6,19.6S31,39.9,20.2,39.9"/>
			</defs>
			<clipPath id="SVGID_12_">
				<use xlink:href="#SVGID_11_"  style="overflow:visible;"/>
			</clipPath>
			<path class="st6" d="M37.8,25.8c0,0-3.1,0.1-4.3,0.6s-0.9,1.1-1.8,0.7c-0.9-0.4-2.8-1.5-3.8-1.4s-2.5,1.2-3.5,1s-3.5-0.9-4.2-1
				C19.6,25.6,20,31,21,31c2.4,0,4-2.8,5-2.2c1.1,0.6,1.2,1.7,3.1,1.1s2.5-1.8,3.8-1.3c1.3,0.4,1.3,0.4,1.3,0.4l1.9,1.3L37.8,25.8z"
				/>
		</g>
		<g>
			<defs>
				<path id="SVGID_13_" d="M20.2,39.7v-39c10.8,0,19.6,8.8,19.6,19.6S31,39.9,20.2,39.9"/>
			</defs>
			<clipPath id="SVGID_14_">
				<use xlink:href="#SVGID_13_"  style="overflow:visible;"/>
			</clipPath>
			<path class="st7" d="M34.2,33.2c0,0-2.1-2.3-3.2-2.2c-1.2,0.1-2.9,2.1-4,2s-2.7-0.7-3-1s-1.8,0.2-2.4,0.4S20.9,32,20,32
				c0,0-0.3-0.4,0-1c1-2,4.9-2.5,6-2s1.3,1.7,2.2,1.3s3.4-1.8,3.9-1.8c0.5,0,3.9,1.5,4,1.8S34.2,33.2,34.2,33.2z"/>
		</g>
		<g>
			<defs>
				<path id="SVGID_15_" d="M20.2,39.7v-39c10.8,0,19.6,8.8,19.6,19.6S31,39.9,20.2,39.9"/>
			</defs>
			<clipPath id="SVGID_16_">
				<use xlink:href="#SVGID_15_"  style="overflow:visible;"/>
			</clipPath>
			<path class="st8" d="M34.5,32.7c0,0-4,4-4.7,4.4s-6.2,2.1-8.1,1.6c-1.9-0.4-7.5-4.5-8.1-5.3s-1-1.9-1-1.9s2-0.6,2.8-0.4
				s1.7,1.3,2.9,1.3c1.1-0.1,2.7-0.5,3.2-0.8c0.5-0.2,1.5-0.5,2.4-0.2c0.9,0.2,2.7,1.8,3.9,1.3c1.2-0.5,2.6-1.7,3.6-1.6
				C32.3,31.2,34.4,32.1,34.5,32.7z"/>
		</g>
	</g>
	<g>
		<g>
			<line class="st9" x1="7.7" y1="31.3" x2="8.5" y2="31.3"/>
			<line class="st10" x1="9" y1="31.3" x2="10.1" y2="31.3"/>
			<line class="st9" x1="10.3" y1="31.3" x2="11.1" y2="31.3"/>
		</g>
	</g>
	<g>
		<g>
			<line class="st9" x1="9.2" y1="25.6" x2="10" y2="25.6"/>
			<line class="st11" x1="10.1" y1="25.6" x2="10.4" y2="25.6"/>
			<line class="st9" x1="10.4" y1="25.6" x2="11.2" y2="25.6"/>
		</g>
	</g>
	<g>
		<g>
			<line class="st9" x1="7.9" y1="16" x2="8.7" y2="16"/>
			<line class="st12" x1="8.8" y1="16" x2="9" y2="16"/>
			<line class="st9" x1="9.1" y1="16" x2="9.8" y2="16"/>
		</g>
	</g>
	<g>
		<g>
			<line class="st9" x1="13.5" y1="36.8" x2="14.3" y2="36.8"/>
			<line class="st13" x1="14.6" y1="36.8" x2="15.4" y2="36.8"/>
			<line class="st9" x1="15.5" y1="36.8" x2="16.3" y2="36.8"/>
		</g>
	</g>
	<g>
		<g>
			<line class="st9" x1="15.2" y1="33" x2="16" y2="33"/>
			<line class="st13" x1="16.3" y1="33" x2="17" y2="33"/>
			<line class="st9" x1="17.2" y1="33" x2="18" y2="33"/>
		</g>
	</g>
	<g>
		<g>
			<line class="st9" x1="13.3" y1="23.8" x2="14.1" y2="23.8"/>
			<line class="st12" x1="14.2" y1="23.8" x2="14.4" y2="23.8"/>
			<line class="st9" x1="14.5" y1="23.8" x2="15.2" y2="23.8"/>
		</g>
	</g>
	<path class="st14" d="M20,1.2l-0.4,9.5c0,0-2.5-1.8-2-1.3c0.5,0.4-2-1.5-1.9-1.6S14,6.5,14,6.4c0-0.1-1.7-0.2-1.7-0.2
		S12,5.4,10.6,6.7L8.2,8.5L7.8,8.8l-1-0.1l-2,0.6l-1,0.6l2.8-3.7c0,0,1.8-1.8,3-2.3s6.8-2.8,6.5-2.7c-0.3,0.1,2.9-0.5,2.9-0.5
		L20,1.2z"/>
	<path class="st15" d="M3.7,10C5,9,6,9,6,9s1.5-0.7,1.7-0.3C8,9,11,6,12,6s2.8,0.5,3.9,1.8s4,3,4,3"/>
	<path class="st16" d="M7.7,8.7c-0.1,0.1,3.7,1.6,3.8,1.9c0.1,0.3-0.1,0.7-0.8,1.1c-0.8,0.4-3.8,1.8-3.9,2.5c0,0.7,0.1,2,2,3.3
		s7.3,3.7,6.8,4.3c-1,1.1-5.6,2.2-6.7,3c-1,0.7-2.9,2.9-3,4c-0.1,1-0.8,3.3-1,3.8c-0.1,0.3,2.3,2.3,6,4.6c3,1.8,9,2,9.1,1.8
		c0.1-0.1,0.1-6.9,0-7c-0.2-0.2-8.4-1.6-8.5-2.8c-0.2-1.2-0.2-3.1,3.2-4.4c3.4-1.4,4.5-2.7,4.2-3.3c-0.3-0.6-3.2-2.8-4.8-3.7
		c-1.6-0.9-4.7-2.8-4.5-3.7s1.9-1.7,2.7-2.1c0.8-0.5,0.5-1.5-0.1-2C11.8,9.5,7.8,8.5,7.7,8.7z"/>
</g>
<g id="Calque_2">
	<g id="Calque_1_1_">
		<line class="st17" x1="13.9" y1="38.4" x2="21.6" y2="39.3"/>
		<g>
			<path class="st18" d="M39.2,21.9c-1,10.6-10.4,18.4-21,17.4S-0.2,28.8,0.8,18.2s10.4-18.4,21-17.4C32.4,1.9,40.2,11.3,39.2,21.9z
				"/>
		</g>
	</g>
	<line class="st19" x1="20" y1="0.9" x2="20" y2="39.2"/>
</g>
</svg>
