<?xml version="1.0" encoding="utf-8"?>
<!-- Generator: Adobe Illustrator 25.0.1, SVG Export Plug-In . SVG Version: 6.00 Build 0)  -->
<svg version="1.1" xmlns="http://www.w3.org/2000/svg" xmlns:xlink="http://www.w3.org/1999/xlink" x="0px" y="0px"
	 viewBox="0 0 40 40" style="enable-background:new 0 0 40 40;" xml:space="preserve">
<style type="text/css">
	.st0{fill:#C3E2DE;}
	.st1{fill:#E9FFFE;}
	.st2{clip-path:url(#SVGID_1_);fill:#038B8B;}
	.st3{display:none;}
	.st4{display:inline;}
	.st5{clip-path:url(#SVGID_4_);fill:#C3E5E0;}
	.st6{clip-path:url(#SVGID_6_);fill:#038B8B;}
	.st7{clip-path:url(#SVGID_8_);fill:#4FADAD;}
	.st8{clip-path:url(#SVGID_10_);fill:#C3E5E0;}
	.st9{clip-path:url(#SVGID_12_);fill:#038B8B;}
	.st10{clip-path:url(#SVGID_14_);fill:#88C4C4;}
	.st11{clip-path:url(#SVGID_16_);fill:#4FADAD;}
	.st12{clip-path:url(#SVGID_18_);fill:#C3E5E0;}
	.st13{fill:none;}
	.st14{fill:none;stroke:#038B8B;stroke-width:0.7808;stroke-miterlimit:10;}
</style>
<g id="Calque_2">
	<path class="st0" d="M0.7,18.3l1.6,1l2.2-2.9c0,0,1.2-1.3,1.5-1.3c0.3,0,0.7,0,1,0.1C7.2,15.5,9,16.3,9,16.3l1.7,1.1l3.5-4l3.8-4
		c0,0,0.7-1.4,1.1-1.5s1.3-0.3,1.1,0c-0.1,0.3,1.7,1.8,1.7,1.8l1.6,2.5l0.9,1.4l0.8,1.2l0.9-1.5l1.4-1.7l1.8-2.2l2.8,1.4l3.9,3.2
		l2.9,2.8l0.5,3.4c0,0-1.6,7.5-1.9,8.2c-0.3,0.7-3.5,5.2-4.6,6.1c-1.1,0.9-2.3,2-4.1,2.8c-1.8,0.8-7.4,2.2-8.9,2.1s-1.5-0.1-1.5-0.1
		s-7.2-1.4-9.6-3.4c-2.4-2-6.3-6.9-6.9-8.5c-0.6-1.5-1.4-5.3-1.5-6S0.7,18.3,0.7,18.3z"/>
	<path class="st1" d="M6.5,15.6c0,0-2.9-0.1-1.7,0.6C6,17,3.5,20.9,4.5,21.2c1,0.3,4.6,3.6,5.6,4c1,0.5,6.8-1.2,8.1-0.1
		c1.2,1,1.7,1.9,6.1,3.4c4.3,1.5,9.7,2.9,10.3,3.2s4.3-7.4,4.3-7.4s-0.7-2.3-1.6-2.5c-0.9-0.2-2.6-1.4-3.3-2c-0.7-0.5-3.1-0.7-3.6-1
		c-0.4-0.2-3.5-0.3-4.7-0.5c-1.2-0.2-0.5-3.5-0.7-3.5c-0.3,0-2.5-4.6-3-3.8c-0.5,0.8-3.7,0.8-3.7,0.8s-3.4,5.8-4.2,5.5
		c-0.8-0.3-2.6-0.3-3.1-0.2s-3.9-1.2-3.9-1.2L6.5,15.6z"/>
	<g>
		<defs>
			<path id="SVGID_3_" d="M39.4,20c0,10.8-8.7,19.5-19.5,19.5C9.1,39.5,0.4,30.8,0.4,20C0.4,9.3,9.1,0.5,19.9,0.5
				C30.7,0.5,39.4,9.3,39.4,20z"/>
		</defs>
		<clipPath id="SVGID_1_">
			<use xlink:href="#SVGID_3_"  style="overflow:visible;"/>
		</clipPath>
		<path class="st2" d="M19.1,7.9c-0.2,0.1-1,1-4.1,4.5c-2.1,2.4-4,4.6-4.1,4.7l-0.3,0.3l-0.4-0.3c-0.5-0.4-0.9-0.6-1.7-1
			c-0.8-0.3-1.1-0.5-1.4-0.7c-0.3-0.2-0.8-0.3-1.3-0.3c-0.4,0-0.4,0-0.6,0.3c-0.5,0.5-1.1,1.3-1.9,2.4c-0.4,0.6-0.8,1.1-0.9,1.2
			l-0.2,0.2L1.9,19c-0.2-0.2-0.7-0.5-1.2-0.7c-0.9-0.5-1.1-0.6-1-0.7c0.1-0.1-0.1,0-0.2,0.1c-0.6,0.7-1.1,1.5-1.7,2.7
			c-0.5,0.8-1,1.7-1.5,2.4c-0.6,0.9-1.6,2.2-1.6,2.2c0,0-0.1-0.2-0.3-0.5c-0.3-0.6-0.7-1.1-1.4-1.9c-1.1-1.2-3.6-3.4-5.3-4.6
			c-0.4-0.3-0.4-0.3-0.8-0.3c-0.4,0-0.5,0-0.7,0.2c-0.3,0.2-1.1,1.2-2.1,2.6c-1,1.4-1.6,2.2-2.8,3.3c-1.3,1.3-2.3,2.2-4.4,3.8
			c-2,1.5-2.4,2-2.6,2.4c0,0.1-0.5,1-1,1.9c-0.8,1.5-1,1.9-1.4,2.7c0,0.1-0.1,0.2-0.1,0.2c0,0,0.6-0.4,1.7-1.5
			c0.9-0.9,1.1-1,1.6-1.2c0.4-0.1,0.5-0.2,0.8-0.4c0.1-0.1,0.4-0.2,0.6-0.3c0.4-0.1,0.5-0.2,0.7-0.6c0.7-1.3,2.2-3,3.2-3.9
			c0.4-0.3,1.6-1,1.6-1c0,0,0,0.3-0.1,0.5c-0.1,0.3-0.2,0.9-0.3,1.3c-0.1,0.4-0.1,0.8-0.2,0.9c0,0.1-0.1,0.1-0.1-0.1
			c0-0.1-0.1-0.5-0.1-0.8c-0.1-0.6-0.2-1-0.3-1c-0.1,0-0.6,0.4-1,0.9c-0.2,0.2-0.7,0.8-1.1,1.2c-0.6,0.8-0.7,0.9-0.9,1.5
			c-0.1,0.4-0.3,0.8-0.4,0.9c-0.1,0.2-0.5,0.4-2.4,1.3c-0.8,0.4-1.5,1.1-1.7,1.9c-0.1,0.3-0.1,0.3,0.1,0.4c0.1,0.1,0.2,0.2,0.3,0.2
			c0.1,0,0.7-0.3,1.9-0.9c0.8-0.5,2.7-1.6,3.2-1.8c0.4-0.2,0,0.1-0.7,0.5c-1.3,0.9-2.3,1.7-2.7,2.1c-0.1,0.1-0.2,0.2-0.2,0.2
			c0,0,0.3,0,0.6-0.1c0.3-0.1,0.9-0.1,1.2-0.2c0.4-0.1,0.9-0.1,1.1-0.2c0.2,0,0.4-0.1,0.5-0.1c0,0,0.1,0.1,0.1,0.3
			c0.1,0.4,0.3,0.5,0.9,0.3c0.8-0.2,1.2-1,1.8-3.4c0.1-0.5,0.3-1.1,0.4-1.4c0.1-0.3,0.3-1.3,0.4-2.1c0.2-1.7,0.4-2.2,0.5-2.2
			c0,0,0.1,0.1,0.1,0.3c0,0.3-0.1,0.7-0.4,2.5c-0.3,1.5-0.4,2.3-0.5,3.4c-0.1,0.8-0.1,0.9-0.3,1.3c-0.3,0.5-0.5,0.9-0.5,1.5
			c-0.1,0.4-0.1,0.5,0,0.7l0.1,0.2l0.1-0.1c0.1-0.1,0.4-0.4,0.7-0.8c0.6-0.7,0.9-1,1-0.8c0,0,0,0.4,0,0.9c-0.1,1.2-0.1,2.2,0,2.3
			c0.3,0.2,0.4-0.2,0.6-1.6c0.3-2.3,0.6-3.2,1.7-4.9c0.4-0.7,0.6-1,0.6-1.2c0,0-0.1-0.1-0.1-0.1c-0.2,0-0.7,0.5-1.2,1.2
			c-0.2,0.3-0.5,0.6-0.5,0.6c-0.1,0,0-2,0.2-3.6c0.2-1.9,0.2-3.2,0-3.6l-0.1-0.2l0.4-0.8c0.4-0.8,0.7-1.7,0.8-2c0-0.1,0-0.2-0.1-0.2
			c-0.1,0-0.2,0.1-1.1,1.3c-1.4,1.9-2.1,2.7-3.3,3.4c-0.7,0.5-1.3,0.8-1.3,0.8c0,0,0.2-0.2,0.4-0.4c0.7-0.6,2.1-2,2.8-2.9
			c0.9-1,1.3-1.6,2.4-3.3c0.5-0.8,1-1.5,1.1-1.6l0.2-0.2l0.1,0.2c0.1,0.1,0.2,0.3,0.3,0.5c0.1,0.2,0.1,0.3,0.1,0.2
			c0.1-0.2,0.1,0.2,0.1,1.6c0,0.8,0,1.7,0,2l0.1,0.5l0-1c0-0.6,0-1.4,0-1.8l0-0.8l0.2,0.6c0.3,0.8,0.7,2.5,1,3.9
			c0.4,1.6,0.7,2.7,0.8,2.7c0.1,0,0-1.1-0.3-3.1c-0.1-0.6-0.2-1-0.2-1.1c0,0,0.1,0.1,0.1,0.3c0.1,0.2,0.3,0.7,0.5,1.2
			c1.2,2.8,3.1,8.3,3.9,11.8c0.4,1.7,0.6,2.7,0.4,2.8c-0.1,0.1-0.5-0.5-1.9-2.6c-1.5-2.2-2.4-3.3-3.4-4.4c-0.6-0.6-1-0.9-1.1-0.9
			c0,0-0.1,0.1-0.1,0.3c0,0.4-0.3,1.3-0.5,1.8c-0.2,0.5-0.8,1.5-1.6,2.7c-0.7,1-0.7,1.2-0.5,1.3c0.1,0,0.6,0.1,1.4,0.1
			c1.9,0.1,2.4,0.2,3,1c0.7,0.8,1.6,1.1,3.8,1.3c0.4,0,0.8,0.1,0.9,0.1c0.1,0.1,0.3,0.1,0.3,0.1c0.3-0.1,0.4-0.6,0.3-1.5
			c-0.2-1.5-0.7-3.5-1.8-7c-0.4-1.1-0.7-2-0.7-2c0,0,0.1,0,0.2,0c0.1,0,0.3,0.1,0.5,0.1c0.3,0,0.3,0,0.3-0.1c0-0.1-0.1-0.6-0.3-1.3
			c-0.9-3.3-0.8-3.3,1-0.6c0.5,0.7,0.9,1.5,1.1,1.6c0.3,0.4,0.7,1.1,1.3,2.3c0.8,1.6,2.2,4.1,2.6,4.5c0.1,0.1,0-0.2-0.4-0.9
			c-1-1.9-2.1-4.3-2.1-4.4c0-0.1,0.6,0.3,0.8,0.5c0.1,0.1,0.8,1,1.6,2c1.7,2.1,2.1,2.5,2.1,2.5c0-0.1-0.3-0.8-2.8-4.6
			c-1.6-2.6-2.7-4.3-2.9-4.7l-0.1-0.2l0.9-0.9c0.5-0.5,1.1-1,1.2-1.2C-3,23.2-2.8,23-2.8,23c0.1,0,2.7,1.8,3.7,2.7
			c1,0.8,1.7,1.4,2,1.9c0.7,0.9,0.8,1.1,1.2,1.3c0.5,0.3,0.8,0.7,1.3,1.9c0.4,1,0.6,1.4,0.9,1.6c0.2,0.2,0.5,0.3,0.6,0.3
			c0,0,0.2-0.2,0.4-0.5c0.2-0.2,0.5-0.8,0.9-1.3C8.4,30.4,8.7,30,8.7,30c0,0,0.1,0,0.1,0c0.1,0,0.1,0,0-0.3c0-0.2-0.1-0.4-0.1-0.4
			c0,0-0.5,0.4-1.1,1c-1.1,1.1-1.1,1.1-1.5,0.8c-0.2-0.2-0.4-0.5-0.7-1.3c-0.1-0.3-0.3-0.7-0.3-0.9c-0.2-0.3-0.5-0.6-0.8-0.7
			c-0.5-0.1-1-0.7-1.8-2c-0.9-1.5-2-3.5-2-3.7c0,0,0.1-0.1,0.2-0.1c0.1,0,0.2,0,0.3,0C1.1,22.3,1,22.1,0.8,22
			c-0.4-0.3-0.6-0.8-0.7-2.1C0,19.5,0,19.1,0,19.1c0,0,0.1,0.1,0.2,0.3c0.3,0.4,2.1,2.2,2.5,2.6c0.4,0.3,0.8,0.5,1.1,0.5
			c0.2,0,0.2,0,0.5,0.4c0.2,0.2,0.4,0.6,0.5,0.8C5,24,5,24,4.9,24.5c0,0.1,0,0.2,0.1,0.2c0.3,0.1,0.8,0.1,0.9,0
			c0.2-0.2-1-2.1-2.8-4.4c-0.2-0.3-0.3-0.6-0.1-0.9c0.3-0.5,1.2-1.6,1.7-2.2c0.4-0.6,0.5-0.6,0.8-0.7c0.2-0.1,0.3-0.2,0.4-0.2L6,16
			l0.1,0.2c0,0.1,0.2,0.5,0.3,0.9c0.4,1.2,0.6,1.5,2,2.5c0.4,0.3,0.9,0.7,1.1,0.8l0.3,0.3l0,0.7l0,0.7l-0.4,1.3
			C9.2,24,9,24.7,9,24.8c-0.1,0.4,0.1,0.6,0.5,1c0.5,0.5,0.6,0.4,0.3-0.3c-0.1-0.3-0.2-0.5-0.2-0.7c0-0.3,0.2-1.1,0.3-1.1
			c0,0,0.1,0.2,0.2,0.4c0.3,0.6,0.8,1.4,1.3,1.9c0.4,0.4,0.5,0.5,0.6,0.9c0.6,1.4,2.3,4.7,3.1,5.7c0.4,0.5,1,1.1,1.5,1.2
			c0.1,0,0.1,0,0.1-0.2c-0.1-0.7-1.6-3.7-2.7-5.4c-0.3-0.5-0.3-0.5-0.2-0.4c0.1,0.1,0.8,0.5,1.5,1c0.7,0.5,1.4,0.9,1.4,0.9
			c0.2,0,0.3-0.1,0.4-0.3c0.1-0.1,0.2-0.4,0.4-0.5c0.3-0.3,0.4-0.5,0.6-1.1c0.2-0.4,1.4-2.4,1.6-2.6c0.1-0.1,0.1-0.2,0.1-0.2
			c0-0.1,5.5-9.1,5.8-9.5c0.1-0.1,0.3-0.4,0.4-0.7c0.3-0.6,0.9-1.5,1.3-1.9c0.3-0.3,0.3-0.3,0.2-0.1c-0.1,0.1-0.4,0.8-0.8,1.5
			c-0.4,0.7-0.8,1.5-0.9,1.7c-0.5,0.9-1.4,2.8-3.3,7.2c-0.5,1.2-0.5,1.4,0,1.1c0.3-0.1,1.1-1,1.5-1.6c0.2-0.3,0.3-0.5,0.3-0.5
			c0,0-0.3,0.6-0.5,1.3c-0.9,2.3-1.1,2.8-0.7,3.1c0.2,0.2,0.2,0.2,0.7,0.2c0.9,0,1.2,0.1,1.2,0.6c0,0.2,0.1,0.3,0.2,0.1
			c0.1-0.1,0.2-0.2,0.3-1.2c0.2-1.5,0.2-1.7,0.4-2.2c0.1-0.3,0.4-1,0.6-1.8l0.4-1.3l0,1.1c0,0.6,0,1.3,0.1,1.5l0.1,0.4l-0.3,0.7
			c-0.1,0.4-0.3,0.7-0.3,0.8c0,0.1,0,0.1,0,0.2c0.2,0.3,0.5,0.1,0.6-0.6c0.1-0.3,0.1-0.3,0.1-0.1c0,0.1,0.2,0.4,0.3,0.6
			c0.3,0.6,0.8,1.2,1.2,1.3c0.3,0.1,0.6,0,0.7-0.1c0.1-0.2,0.1-0.4-0.2-0.7c-0.3-0.3-0.3-0.2-0.2-1.6c0.1-1,0.2-1.5,0.6-2.4
			c0.2-0.5,0.3-0.6,0.4-0.7c0.2-0.1,0.3-0.1,0.6,0.2c0.3,0.3,0.6,0.3,0.9,0.1c0.4-0.3,0.5-1.1,0.3-1.9c-0.2-0.8-0.4-1.2-1.5-3.1
			c-0.5-0.8-0.5-1-0.7-1.7c-0.1-0.4-0.3-1-0.3-1.2c-0.1-0.3-0.1-0.4-0.1-0.5c0-0.1,0.1-0.1,0.1-0.1c0,0,0.2,0.5,0.4,1.1
			c0.3,1.2,0.6,1.9,0.8,2.1c0.1,0.1,0.3,0.3,0.8,0.5c0.4,0.2,0.7,0.3,0.7,0.4c0.1,0.2,0,0.4-0.2,0.6c-0.1,0.1-0.2,0.3-0.2,0.3
			c0,0.1,0.3,0.3,0.4,0.3c0.2,0,0.6-0.3,0.7-0.5c0.1-0.3,0.1-0.5-0.2-0.9c-0.5-0.8-1-1.3-1.5-1.6c-0.2-0.1-0.2-0.1-0.2-0.5
			c0-0.3,0-0.8,0.1-1.2c0.1-0.4,0.1-0.9,0.1-1.2c0-0.4,0-0.4-0.2-0.5c-0.3-0.2-0.8-1.1-0.9-1.7c0-0.4,0.1-0.4,0.5-0.2
			c0.3,0.2,1.1,0.7,1.1,0.7c0,0-0.2-0.1-0.4-0.1c-0.4-0.1-0.6-0.2-0.6-0.1c0,0,0.2,0.4,0.4,0.8c0.2,0.4,0.4,0.9,0.5,1.1
			c0,0.2,0.1,0.7,0.1,1.4v1.1l0.3,0.5c0.3,0.6,0.8,1.2,1.7,1.9c1.1,0.9,1.5,1.4,2,1.9c0.6,0.7,0.7,0.9,0.8,1.7
			c0,0.3,0.1,0.8,0.2,0.9l0.1,0.3l0.1-0.7c0-0.4,0.1-1,0.1-1.5c0-0.9-0.1-1.2-0.5-1.7c-0.3-0.5-0.5-0.9-1-2.1
			c-0.2-0.6-0.6-1.3-0.7-1.6c-0.3-0.6-0.5-0.9-0.8-1.8l-0.2-0.6l0.3,0.3c0.4,0.3,0.9,0.9,1.2,1.4c0.3,0.4,0.9,1.6,1,2
			c0.1,0.2,0.1,0.3,0.3,0.4c0.5,0.3,4.4,3.4,4.3,3.4c0,0-0.1-0.1-0.3-0.1l-0.3-0.1l0,0.3c0,0.4-0.2,0.5-0.4,0.7
			c-0.4,0.2-0.9,0.5-0.9,0.6c0,0.1,0.3,0.4,0.7,0.8c0.6,0.6,0.8,0.8,1.2,1c0.7,0.4,1.3,0.8,1.5,1c0.1,0.1,0.3,0.4,0.4,0.7l0.3,0.5
			l0.1-0.4c0.1-0.4,0.1-0.5,0-1.3c-0.1-0.5-0.1-1-0.2-1.2c-0.1-0.2-0.1-0.5-0.1-0.6c0-0.1-0.1-0.3-0.1-0.4c-0.1-0.1,0.1,0,0.5,0.3
			c1.9,1.5,3.3,2.5,3.7,2.6c0.4,0.2-0.3-0.6-6-6.1c-2.3-2.2-4.6-4.4-5.1-4.9c-1-1-1.2-1.2-2.2-1.9c-1.6-1.1-3-1.8-3.5-1.9
			c-0.2,0-0.2,0-0.4,0.2c-0.3,0.6-1.2,1.8-1.9,2.5c-0.4,0.5-0.7,0.8-0.9,1.2c-0.1,0.2-0.2,0.3-0.2,0.2c0-0.1-0.6,0.8-0.6,1
			c0,0.1-0.2,0.6-0.6,1.2c-0.4,0.9-0.6,1.2-0.9,1.6c-0.2,0.2-0.5,0.6-0.7,0.9c-0.2,0.3-0.4,0.5-0.6,0.5c-0.1,0-0.2,0.1-0.2,0.1
			c0,0.1-0.7,1.8-1.2,2.8c-0.5,0.9-1.1,1.9-1.8,2.9l-0.5,0.7l-0.4,0.1c-0.2,0.1-0.5,0.1-0.7,0.1h-0.4L16.6,24
			c-0.4-0.8-0.9-1.6-1.1-1.8C15.3,22,14.3,21,13.2,20c-1-1-1.9-1.9-1.9-1.9c0-0.2,0.4-0.7,0.9-1.3c0.7-0.8,1.7-2,1.7-2
			c0,0,0,0.1,0,0.3c0,0.3,0,0.3,0.2,0.5l0.2,0.2l-0.3,0.6c-0.2,0.3-0.3,0.6-0.3,0.6c0,0,0.2-0.2,0.3-0.5c0.4-0.7,0.4-0.7,0.5-0.7
			c0.2,0.1,0.3,0.5,0.7,2.1c0.3,1.2,0.5,1.4,0.7,0.7c0-0.2,0.2-1.3,0.4-2.5c0.2-1.2,0.4-2.2,0.4-2.3c0-0.1,0.1-0.1,0.2-0.1
			c0.1,0,0.2,0.1,0.3,0.5c0.2,0.4,0.3,0.5,0.5,0.6c0.3,0.2,0.3,0.2,0.2,0.1c0-0.1,0-0.2,0-0.3c0-0.1-0.1-0.3-0.2-0.4
			c-0.2-0.3-0.3-0.5-0.2-1.2c0-0.5,0.1-0.6,0.2-0.7c0.2-0.1,0.4-0.2,0.5,0c0.1,0.2,0,2.9-0.2,4.5c-0.1,0.6-0.3,1.5-0.5,2.1
			c-0.2,0.6-0.2,0.9-0.1,0.6c0-0.1,0.2-0.5,0.3-0.9c0.2-0.4,0.5-1.2,0.7-1.8c0.2-0.6,0.4-1.3,0.5-1.6c0.3-1.7,0.4-2,0.5-2.1
			c0.1-0.1,0.7-0.6,1.4-1.2c0.5-0.4,0.9-0.7,1.1-0.7c0,0,0.2,0.3,0.4,0.7c0.3,0.6,0.3,0.7,1,1.3c0.4,0.3,0.8,0.7,0.8,0.9
			c0.2,0.3,0.2,0.2,0.1-0.2c-0.2-0.6-0.3-0.8-0.8-1.3c-0.3-0.3-0.5-0.6-0.6-0.9c-0.5-1-1.1-1.9-1.9-2.7C20.1,7.9,19.7,7.7,19.1,7.9z
			 M21.1,9.4c0.6,0.6,1.1,1.2,1.1,1.2c0,0-0.1,0.1-0.5,0c-0.5,0-0.9-0.2-0.9-0.3c0,0-0.1-0.1-0.2-0.2c-0.4-0.2-0.6-0.4-0.6-0.6
			c0-0.1,0.1-1.3,0.2-1.3C20,8.2,20.5,8.7,21.1,9.4z M17.7,10.1c-0.2,0.3-0.3,0.7-0.4,0.9c-0.1,0.1-0.1,0.3-0.1,0.3s0.2-0.1,0.5-0.3
			c0.7-0.4,1.1-0.7,1.1-0.6c-0.1,0.1-2.3,1.5-2.4,1.6c-0.1,0.1,0-0.3,0.3-0.7c0.3-0.5,1.3-1.8,1.3-1.8C18,9.4,17.8,9.7,17.7,10.1z
			 M28.7,12.2c0.1,0,0.1,0.1,0.1,0.2C28.7,12.4,28.7,12.4,28.7,12.2C28.4,12.1,28.5,12.1,28.7,12.2z M16.5,12.4c0,0-0.1,0.1-0.3,0.2
			c-0.4,0.3-1.1,1.1-1.4,1.7c-0.3,0.5-0.4,0.6-0.3,0.3c0-0.1,0-0.2,0-0.3c0-0.1,0.1-0.3,0.5-0.6c0.3-0.3,0.6-0.6,0.8-0.9
			c0.2-0.2,0.4-0.4,0.5-0.4C16.4,12.4,16.5,12.4,16.5,12.4z M17.1,12.5c0,0.1-0.3,0.5-0.5,0.6c-0.1,0.1-0.1,0.1,0-0.1
			c0.1-0.1,0.2-0.2,0.2-0.4C16.9,12.5,17.1,12.4,17.1,12.5z M28.9,13.9c0,0.6-0.1,0.7-0.3,1c-0.1,0.2-0.3,0.4-0.3,0.4
			c-0.1,0.1,0-0.2,0.2-0.7c0.2-0.7,0.4-1.1,0.4-1.1C29,13.5,28.9,13.7,28.9,13.9z M28.8,16.7c-0.3,1.1-0.5,1.7-0.6,1.8
			c0,0-0.1,0.2-0.1,0.4c0,0.3,0.2,0.7,0.3,0.7c0,0,0.3-0.2,0.6-0.5c0.3-0.3,0.5-0.5,0.4-0.4c-0.2,0.3-0.9,1.5-1,1.6
			c0,0.1-0.1,0.1-0.1,0.1c-0.2-0.1-0.4,0.2-0.7,0.8l-0.1,0.2l0-0.3c0-0.2,0.1-0.7,0.1-1.3c0.1-0.8,0.1-1,0.2-1.3
			c0.1-0.2,0.3-0.8,0.4-1.3c0.3-0.9,0.6-1.6,0.6-1.6C29.1,15.7,29,16.1,28.8,16.7z M7.6,16.5c0.8,0.2,1.8,0.6,2,0.8
			c0,0,0.2,0.1,0.3,0.1c0.3,0,0.5,0.2,0.3,0.3c-0.1,0.1-0.1,0.1-0.3-0.1c-0.2-0.2-0.8-0.3-1.9-0.5c-0.3-0.1-0.7-0.2-0.9-0.2
			c-0.3-0.1-0.4-0.2-0.5-0.4c-0.2-0.3-0.2-0.4,0-0.3C6.8,16.2,7.2,16.3,7.6,16.5z M7.7,17.7c0.1,0.2,0.6,0.9,0.7,1
			c0.3,0.2,0.6,0.4,0.9,0.4c0.2,0,0.2,0.1,0.3,0.2c0,0.1,0.1,0.2,0.2,0.2c0,0,0.1,0.1,0.1,0.1c0,0.1-0.1,0-0.2-0.1
			c-0.1-0.1-0.6-0.4-1-0.7c-0.5-0.3-0.9-0.6-1-0.7c-0.2-0.2-0.4-0.5-0.4-0.7c0,0,0.1,0,0.3,0C7.6,17.6,7.7,17.7,7.7,17.7z M0.4,18.6
			c0.4,0.2,1.2,0.7,1.6,1.1c0.2,0.2,0.3,0.4,0.3,0.3c-0.1,0-0.3-0.2-0.6-0.4c-0.3-0.2-0.8-0.4-1.1-0.6c-0.6-0.3-0.6-0.3-0.7-0.5
			c0-0.2,0-0.2,0.2-0.1C0.1,18.4,0.3,18.5,0.4,18.6z M11.7,19.2c0.4,0.5,0.4,0.6,0.1,0.2c-0.2-0.3-0.5-0.6-0.4-0.6
			C11.4,18.7,11.5,18.9,11.7,19.2z M-0.5,19.6c0.1,0.2,0.1,0.4,0.1,0.4c0,0-0.3-0.7-0.3-0.8c0,0,0,0,0.1,0
			C-0.6,19.2-0.6,19.4-0.5,19.6z M-0.8,19.7c-0.1,0.3-0.5,1.2-0.7,1.5l-0.1,0.2l0.1-0.2c0.1-0.1,0.3-0.6,0.4-1
			C-0.8,19.3-0.7,19.2-0.8,19.7z M-11.3,20.7c0.4,0.5,0.6,1.2,0.9,2.1c0.1,0.4,0.2,0.8,0.2,0.8c0,0-0.2-0.5-0.5-1.2
			c-0.3-0.7-0.6-1.5-0.8-1.9C-11.9,19.9-11.8,19.9-11.3,20.7z M12.6,21.4c-0.3,0.6-0.4,1.2-0.4,1.8c0,0.6,0.2,0.9,0.7,1.9
			c0.5,1.1,0.6,1.2,0.5,1.1c-0.3-0.2-1.2-2-1.4-2.6c-0.2-0.5-0.1-0.6,0.3-1.7c0.2-0.5,0.3-1,0.4-1.1l0.1-0.3l0.1,0.2
			C12.8,21,12.8,21,12.6,21.4z M28,22.4c-0.2,0.8-0.4,1.4-0.4,1.4c0,0,0-0.2,0-0.5c0-0.3,0-0.6,0.2-0.9c0.2-0.5,0.6-1.4,0.6-1.4
			C28.3,21,28.2,21.7,28,22.4z M40,21.6c0.2,0.1,0.7,0.6,1.1,1c0.6,0.6,0.8,0.8,0.7,0.8c-0.1,0-0.4-0.3-1-0.9c-0.5-0.5-1-1-1.2-1.1
			c-0.2-0.2-0.2-0.2-0.1-0.2C39.6,21.4,39.8,21.5,40,21.6z M13.7,23.2c0.1,0.3,0.2,0.6,0.2,0.6c-0.1,0-0.4-0.9-0.5-1.2
			c0-0.2,0-0.3,0-0.2C13.4,22.5,13.5,22.8,13.7,23.2z M18.3,26c-0.1,0.2-0.3,0.4-0.3,0.4c0,0-0.1-0.1-0.2-0.2l-0.2-0.2l0.2,0
			c0.1,0,0.3-0.1,0.4-0.1c0.1-0.1,0.2-0.1,0.2-0.1C18.6,25.7,18.4,25.8,18.3,26z M-22.4,28.7c-0.3,0.3-1.6,1.4-2.2,2L-25,31l0.5-0.6
			c0.3-0.3,0.7-0.8,0.8-0.9c0.3-0.3,1.4-1,1.5-1.1C-22.1,28.4-22.2,28.5-22.4,28.7z M-20.9,32c0,0-0.1,0.1-0.1,0.1
			c-0.1,0.1-0.1,0.1,0,0C-20.9,32-20.9,31.9-20.9,32z"/>
	</g>
</g>
<g id="Calque_1">
	<g id="Calque_5">
	</g>
	<g id="mer" class="st3">
		<g class="st4">
			<g>
				<defs>
					<path id="SVGID_2_" d="M19.7,39.8v-39c10.8,0,19.6,8.8,19.6,19.6S30.5,40,19.7,40"/>
				</defs>
				<clipPath id="SVGID_4_">
					<use xlink:href="#SVGID_2_"  style="overflow:visible;"/>
				</clipPath>
				<path class="st5" d="M19.6,39.1v-39c10.8,0,19.6,8.8,19.6,19.6s-8.8,19.6-19.6,19.6"/>
			</g>
			<g>
				<defs>
					<path id="SVGID_5_" d="M19.7,39.8v-39c10.8,0,19.6,8.8,19.6,19.6S30.5,40,19.7,40"/>
				</defs>
				<clipPath id="SVGID_6_">
					<use xlink:href="#SVGID_5_"  style="overflow:visible;"/>
				</clipPath>
				<path class="st6" d="M38.6,19.5c0.1-0.6-1.4,0.3-2-0.6c-0.6-0.8-2.8-5.2-4-6.3s-3.2-2.5-4.8-2.2c-1.7,0.3-3.1,1.6-3.9,2.1
					s-1,1.2-1,1.2s1.2,0.1,1.6-0.3c0.4-0.4,0.8-0.4,0.8,0.1s-0.2,1.6,0.4,1.2s1.4-1.7,2-1.4s0.3,0.9,0.4,1.4s0.1,0.7,0.9,0.3
					c1.1-0.5,2.2-0.7,3-0.5c1.1,0.2,3.2,3.7,3.5,4c0.2,0.1,1.1,1.3,1.9,1.7C39.2,21,38.5,19.8,38.6,19.5z"/>
			</g>
			<g>
				<defs>
					<path id="SVGID_7_" d="M19.7,39.8v-39c10.8,0,19.6,8.8,19.6,19.6S30.5,40,19.7,40"/>
				</defs>
				<clipPath id="SVGID_8_">
					<use xlink:href="#SVGID_7_"  style="overflow:visible;"/>
				</clipPath>
				<path class="st7" d="M39.1,19.7c0,0-1,0.6-1.4,0.4c-0.4-0.1-0.7,0.1-2.1-1.6c-1.3-1.7-2.3-3.9-3.5-4.1c-1.3-0.2-3.1-0.1-3.3,0.5
					c-0.2,0.5,0.4,0.4,0,1.6s-0.9,3.1-1.6,3.2s-1.5,0.6-2.1,0.4c-0.7-0.1-2.3-0.1-3.1,0c-0.9,0.1-2.6,1.6-3.5,1.7s-2.5-0.2-3.6-0.6
					s-2.8-0.3-3.5,0.1c-0.8,0.4-2.3,1-2.3,1.3S9.4,25,9.4,25s1-0.6,1.7-0.9c0.8-0.3,2.3-1.1,2.8-1.1s2.5-0.4,3.4,0.1s1.8,2,2.8,1.1
					c1.1-0.9,2.7-1.2,3.8-1.2c1.1,0,1.6,1.5,3,1.2s3.5-1.9,4.9-1.4c1.4,0.5,2.6,1,3.8,0.9c0,0,2-0.7,2.5-0.6
					c0.4,0.1,0.4,0.1,0.4,0.1S39.3,20.3,39.1,19.7z"/>
			</g>
			<g>
				<defs>
					<path id="SVGID_9_" d="M19.7,39.8v-39c10.8,0,19.6,8.8,19.6,19.6S30.5,40,19.7,40"/>
				</defs>
				<clipPath id="SVGID_10_">
					<use xlink:href="#SVGID_9_"  style="overflow:visible;"/>
				</clipPath>
				<path class="st8" d="M38.6,23.8c0,0-0.8-0.4-1.5-0.2c-0.7,0.2-1.3,0.5-2,0.4s-2.8-1.4-4.5-0.9s-3.2,1.3-4,1s-1.4-0.8-2.4-0.8
					c-1,0.1-3.9,0.7-4.6,1c-0.8,0.3,0,1,2.5,1.8c1.4,0.4,2.7,1.4,3.8,0.8c1.1-0.6,2.4-1,3.8-0.7s2.5,1.8,3.3,1.1
					c0.8-0.7,1.3-0.4,2-0.7c0.7-0.3,2.4-0.4,2.8-0.4c0.4,0,0.4,0,0.4,0h-0.4L38.6,23.8z"/>
			</g>
			<g>
				<defs>
					<path id="SVGID_11_" d="M19.7,39.8v-39c10.8,0,19.6,8.8,19.6,19.6S30.5,40,19.7,40"/>
				</defs>
				<clipPath id="SVGID_12_">
					<use xlink:href="#SVGID_11_"  style="overflow:visible;"/>
				</clipPath>
				<path class="st9" d="M22.6,26.6c0.4-0.1-0.3-0.3-0.3-0.3L21,25.6c0,0-0.5-0.9-1.4-0.5s-0.5,1.5,0.5,1.5
					C21.2,26.6,22.4,26.6,22.6,26.6z"/>
			</g>
			<g>
				<defs>
					<path id="SVGID_13_" d="M19.7,39.8v-39c10.8,0,19.6,8.8,19.6,19.6S30.5,40,19.7,40"/>
				</defs>
				<clipPath id="SVGID_14_">
					<use xlink:href="#SVGID_13_"  style="overflow:visible;"/>
				</clipPath>
				<path class="st10" d="M37.4,25.9c0,0-3.1,0.1-4.3,0.6s-0.9,1.1-1.8,0.7c-0.9-0.4-2.8-1.5-3.8-1.4S25,27,24,26.8s-3.5-0.9-4.2-1
					s-0.3,5.3,0.7,5.3c2.4,0,4-2.8,5-2.2c1.1,0.6,1.2,1.7,3.1,1.1s2.5-1.8,3.8-1.3c1.3,0.4,1.3,0.4,1.3,0.4l1.9,1.3L37.4,25.9z"/>
			</g>
			<g>
				<defs>
					<path id="SVGID_15_" d="M19.7,39.8v-39c10.8,0,19.6,8.8,19.6,19.6S30.5,40,19.7,40"/>
				</defs>
				<clipPath id="SVGID_16_">
					<use xlink:href="#SVGID_15_"  style="overflow:visible;"/>
				</clipPath>
				<path class="st11" d="M33.8,33.3c0,0-2.1-2.3-3.2-2.2c-1.2,0.1-2.9,2.1-4,2s-2.7-0.7-3-1s-1.8,0.2-2.4,0.4s-0.7-0.4-1.6-0.4
					c0,0-0.3-0.4,0-1c1-2,4.9-2.5,6-2s1.3,1.7,2.2,1.3c0.9-0.4,3.4-1.8,3.9-1.8c0.5,0,3.9,1.5,4,1.8C35.7,30.7,33.8,33.3,33.8,33.3z
					"/>
			</g>
			<g>
				<defs>
					<path id="SVGID_17_" d="M19.7,39.8v-39c10.8,0,19.6,8.8,19.6,19.6S30.5,40,19.7,40"/>
				</defs>
				<clipPath id="SVGID_18_">
					<use xlink:href="#SVGID_17_"  style="overflow:visible;"/>
				</clipPath>
				<path class="st12" d="M34.1,32.8c0,0-4,4-4.7,4.4s-6.2,2.1-8.1,1.6s-7.5-4.5-8.1-5.3s-1-1.9-1-1.9s2-0.6,2.8-0.4
					s1.7,1.3,2.9,1.3c1.1-0.1,2.7-0.5,3.2-0.8c0.5-0.2,1.5-0.5,2.4-0.2c0.9,0.2,2.7,1.8,3.9,1.3s2.6-1.7,3.6-1.6
					C31.9,31.3,34,32.2,34.1,32.8z"/>
			</g>
		</g>
	</g>
	<line class="st13" x1="16.1" y1="38.2" x2="23.8" y2="39.1"/>
	<g>
		<path class="st14" d="M39.1,21.7c-1,10.6-10.4,18.4-21,17.4S-0.3,28.6,0.7,18s10.4-18.4,21-17.4C32.4,1.7,40.2,11.1,39.1,21.7z"/>
	</g>
</g>
</svg>
