<?xml version="1.0" encoding="utf-8"?>
<!-- Generator: Adobe Illustrator 25.0.1, SVG Export Plug-In . SVG Version: 6.00 Build 0)  -->
<svg version="1.1" xmlns="http://www.w3.org/2000/svg" xmlns:xlink="http://www.w3.org/1999/xlink" x="0px" y="0px"
	 viewBox="0 0 40 40" style="enable-background:new 0 0 40 40;" xml:space="preserve">
<style type="text/css">
	.st0{fill:#C3E5E0;}
	.st1{fill:#4FADAD;}
	.st2{fill:#038B8B;}
	.st3{fill:none;}
	.st4{fill:none;stroke:#038B8B;stroke-width:0.7808;stroke-miterlimit:10;}
	.st5{fill:none;stroke:#038B8B;stroke-width:0.5;stroke-miterlimit:10;}
	.st6{fill:none;stroke:#4FADAD;stroke-width:0.5;stroke-miterlimit:10;}
	.st7{fill:#04706D;}
	.st8{fill:#E9FFFE;}
	.st9{fill:none;stroke:#038B8B;stroke-width:0.5;stroke-linecap:round;stroke-linejoin:round;stroke-miterlimit:10;}
</style>
<g id="Calque_2">
	<path class="st0" d="M39.8,19.7c0-0.1,0-0.1,0-0.2c-0.1-1-1.1-6-1.3-6.6v-0.1C38.3,12.3,36,9,36,9s0,0.2-1,0c-1,1-3.7,0.6-4.4,0.4
		C29.9,9.1,31,9,29,9c-1.3-0.3-4.8,0.6-5.5,0.9C22.9,10.1,20.9,8.6,19,9c-2,0.4-0.7,0.9-2,1c-1.3,0.2-1,0-3-1c-2-1-3-1-4,0
		c-0.3,0.3-1.9,1.4-3.2,1S4.8,8.4,4,9c-0.7,0.5-1,2.7-1.2,3l0,0c-0.1,0.3-0.8,2.6-1.3,4.2c-0.1,0.7-0.1,1.3-0.2,2
		c-0.1,0.9-0.1,1.8-0.1,2.7c0.1,1.3,0.3,2.7,0.4,3.4c0,0.1,0.1,0.3,0.1,0.4c0.5,1.6,2.3,5.4,2.7,6v0.1c0.2,0.3,1,1.3,1.8,2.3
		C7,34,8,34.9,9,35.6c2.1,1.1,6.4,3.1,6.8,3.2l0,0c0.6,0.1,5.2,0.4,6.2,0.5c0.8-0.1,1.6-0.2,2.4-0.3c0.8-0.2,1.6-0.4,2.3-0.6
		c0.3-0.1,0.6-0.2,0.9-0.3c1.5-0.6,3.5-1.8,4.2-2.3l0.1-0.1c0.7-0.5,2.5-2.1,3.6-3.4c0.2-0.2,0.3-0.4,0.5-0.6l0,0l0,0
		c1.1-1.5,2.4-4.3,2.8-5.3c0-0.1,0.1-0.2,0.1-0.3C39.2,24.5,39.8,20.5,39.8,19.7z"/>
	<g>
		<path class="st1" d="M5.9,32.5C5.9,32.5,5.9,32.6,5.9,32.5C5.9,32.6,5.9,32.5,5.9,32.5L5.9,32.5z"/>
		<path class="st1" d="M34.4,32.8c0.7-0.6,3.7-6.3,3.7-6.3l1-4.1l0.2-2.6c0,0-4.2-0.4-5.3-0.3c-1.1,0.1-4.8-0.1-5.6-0.4
			c-0.8-0.2-9.5-0.4-9.9-0.4c-0.3,0.1-2.8-0.1-3.1-0.1s-2.7-0.4-3.2-0.6c-0.5-0.3-2.9-0.4-4.1-0.8c-1.2-0.4-2.3-0.1-3.4-0.3
			c-0.9-0.4-2.3,1-3.3,1.8c0,2,0.1,3.6,0.5,5.7c0.9,2.1,1.9,5.4,3.6,7.6c0,0,0.2,0.2,0.7,0.7c0,0.1,0.2,0.2,0.3,0.4
			c0.6,0.5,1.6,1.4,2.9,2.4c0.7,0.4,1.5,1.2,2.3,1.5c3,1.1,4.2,1.5,4.6,1.5l2.4,0.5c-0.4,0,2.5,0.4,3.8-0.2c2-0.2,3.3-0.6,5.1-1.4
			c2.4-1.3,2.6-1.5,2.7-1.6s2.3-1.7,2.4-1.8"/>
	</g>
	<path class="st2" d="M4.5,30.5c0,0,1.7,3.3,4,4.4s7,3.8,8.7,3.8c1.8,0,7.2,0,8-0.2s3.4-1.9,5-2.5s5.3-3.4,5.3-4.1
		c0-0.8,0.8-1.6,0.8-1.6H4.2L4.5,30.5z"/>
	<line class="st3" x1="22.7" y1="12.3" x2="26.3" y2="12.8"/>
	<line class="st3" x1="14.2" y1="38" x2="21.9" y2="38.9"/>
	<g>
		<path class="st4" d="M39.5,21.5c-1,10.6-10.4,18.4-21,17.4S0.1,28.4,1.1,17.8s10.4-18.4,21-17.4C32.7,1.5,40.5,10.9,39.5,21.5z"/>
	</g>
	<g>
		<path class="st5" d="M3.8,8.6c2,0,2,1.3,4.1,1.3c2,0,2-1.3,4.1-1.3c2,0,2,1.3,4.1,1.3c2,0,2-1.3,4.1-1.3c2,0,2,1.3,4.1,1.3
			c2,0,2-1.3,4.1-1.3c2,0,2,1.3,4.1,1.3s2-1.3,4.1-1.3"/>
	</g>
	<g>
		<path class="st6" d="M2.5,10.8c2.2,0.1,2.1,1.5,4.3,1.5c2.2,0.1,2.2-1.3,4.4-1.3c2.2,0.1,2.1,1.5,4.3,1.5c2.2,0.1,2.2-1.3,4.4-1.3
			c2.2,0.1,2.1,1.5,4.3,1.5c2.2,0.1,2.2-1.3,4.4-1.3c2.2,0.1,2.1,1.5,4.3,1.5c2.2,0.1,2.2-1.3,4.4-1.3"/>
	</g>
</g>
<g id="poissons">
	<g transform="translate(0.000000,955.000000) scale(0.100000,-0.100000)">
		<path class="st7" d="M122.3,9417.8c-0.9-0.2-1.8-0.5-2-0.6c-0.2-0.1-0.8-0.4-1.2-0.5c-0.5-0.2-1.9-0.9-3.1-1.6
			c-1.9-1.1-2.4-1.6-3.3-2.8c-0.8-1-1.1-1.7-1-2.1c0-0.3-0.1-0.7-0.2-1c-0.2-0.2-0.3-0.6-0.2-0.8c0-0.2-0.1-0.5-0.3-0.7
			c-0.2-0.2-0.3-0.4-0.1-0.7c0.1-0.3,0.1-0.5-0.1-0.7c-0.5-0.4-1.9-4.6-2-5.6c0-1.3,0.4-2.3,0.9-2.3c0.2,0,0-0.1-0.4-0.2
			c-0.5-0.2-1.3-0.2-2.4,0c-0.9,0.1-2.8,0.5-4.3,0.7c-1.4,0.2-3.3,0.6-4,0.8c-0.8,0.2-1.7,0.4-1.9,0.3c-0.7-0.1-1.4-1.2-1.8-3.1
			c-0.4-1.6-0.4-2,0.1-4.8c0.6-4.3,1.6-6.6,3.4-8.4c0.6-0.5,1.1-1,1.2-1c0.1,0,0.7,0.3,1.3,0.7c0.7,0.5,1.9,1.8,3.3,3.7
			c2.2,3,3.6,4.4,5.1,5.3l0.9,0.5l-0.4-0.6c-0.2-0.3-0.4-1-0.4-1.5c0-3.1,0-3.3,0.6-4.2c0.5-1,1.3-2.6,1.8-3.8
			c0.5-1.2,2.5-3.9,3.4-4.5c0.6-0.5,1.4-0.7,2.9-1c1.9-0.3,2.2-0.3,4.2,0.1c3.2,0.7,7.2,2.7,10.6,5.4c1.2,1,1.6,1.1,3.8,1.7
			c3.6,0.9,5,1.4,6.2,2.2c1.4,0.9,3.9,3.1,5.7,5.2c1.7,1.8,3.3,2.7,5.5,3c1.9,0.3,2.1,0.4,2,1.2c-0.1,0.5,0,0.7,0.3,0.9
			c0.2,0.1,0.4,0.3,0.4,0.5c-0.1,0.4-1.1,1.3-1.9,1.8c-1.2,0.7-2.6,1.9-3.4,3c-0.7,1-0.8,1.3-1.2,3.9c-0.5,3.4-0.7,3.7-3,5
			c-0.8,0.5-1.7,1.2-2,1.6c-0.3,0.4-0.8,0.9-1,1c-0.3,0.1-0.9,0.8-1.5,1.4c-2.3,2.6-4.9,3.4-10.8,3.5
			C128.7,9418.8,124.6,9418.4,122.3,9417.8z"/>
		<path class="st7" d="M203.5,9410.9c-1.1-0.3-2.3-0.6-2.6-0.8c-0.3-0.2-1-0.4-1.4-0.5c-0.4-0.1-1.2-0.4-1.7-0.8s-1-0.7-1.2-0.8
			c-0.1,0-1-0.4-1.9-0.9c-1.3-0.7-1.9-1.2-2.9-2.6c-1.1-1.4-1.3-1.8-1.2-2.4c0.1-0.4,0-0.8-0.3-1c-0.2-0.2-0.4-0.6-0.3-0.9
			s-0.1-0.7-0.3-0.9c-0.3-0.2-0.4-0.4-0.2-0.8c0.1-0.4,0.1-0.6-0.1-0.7c-0.2-0.1-0.5-0.7-0.7-1.3c-0.2-0.6-0.4-1.1-0.6-1.1
			c-0.1,0-0.2-0.2-0.2-0.3s-0.2-0.7-0.4-1.2c-1-1.9-0.9-5.4,0.3-5.3c0.3,0,0.1-0.1-0.4-0.3c-0.7-0.3-1.3-0.3-2.9,0.1
			c-1.1,0.2-3.3,0.6-4.9,0.8c-1.6,0.2-3.4,0.7-4.2,0.9c-2.2,0.7-3.2,0.8-3.9,0.2c-1-0.8-1.7-3-1.9-5.8c0-1.1,0-1.7,0.2-2
			c0.2-0.3,0.2-0.5,0.1-0.9c-0.4-1.1,0.7-5.1,2-7.7c0.5-1.1,2.7-3.4,3.1-3.4c0.1,0,0.7,0.3,1.4,0.7c1,0.5,1.7,1.2,3.2,3.2
			c3.4,4.4,6,6.9,7.7,7.5l0.7,0.2l-0.5-0.6c-0.4-0.5-0.5-0.8-0.4-1.5c0.1-0.5,0.1-1.1-0.1-1.4c-0.3-0.9,0.2-3.6,0.9-4.5
			c0.3-0.5,0.6-1.1,0.7-1.5c0-0.3,0.3-0.9,0.5-1.2c0.2-0.3,0.5-0.9,0.7-1.3c0.3-0.9,1.9-3.3,3-4.4c1-1,2.4-1.6,4.9-1.9
			c4.4-0.6,10.5,1.8,17.2,6.5c1.5,1.1,1.7,1.1,4.9,1.9c3.7,0.8,5.4,1.4,7.2,2.5c1.4,0.9,4.8,3.9,6.9,6c1.2,1.3,1.8,1.6,3.1,2.2
			c0.9,0.3,2.4,0.7,3.3,0.9c1.9,0.3,2.3,0.5,2.2,1.4c0,0.3,0.2,0.7,0.4,0.9c0.5,0.4,0.5,0.5,0,1.1c-0.3,0.4-1.4,1.3-2.5,2.1
			c-1.6,1.1-2.2,1.7-3.1,2.9c-1.1,1.7-1.4,2.8-1.6,6.1c-0.1,1.8-0.1,1.9-0.9,2.7c-0.4,0.5-1.5,1.3-2.3,1.8c-0.9,0.5-1.8,1.3-2.1,1.6
			c-0.3,0.4-0.9,1.1-1.5,1.6c-0.5,0.5-1.2,1.2-1.6,1.6c-0.3,0.4-1.2,1.1-1.9,1.6c-3.3,2.3-8.7,2.9-18.6,2.2
			C206.2,9411.5,204.6,9411.2,203.5,9410.9z"/>
		<path class="st7" d="M290.4,9391.8c-0.7-0.3-1.8-0.7-2.4-0.8c-0.6-0.2-1.5-0.6-2.1-0.9c-0.5-0.4-1.6-1-2.5-1.4
			c-2.4-1.2-3.2-1.9-4.5-3.5c-0.9-1.2-1.1-1.7-1.1-2.2c0.1-0.4-0.1-0.8-0.4-1.2c-0.3-0.3-0.5-0.8-0.4-1.1c0-0.3-0.1-0.7-0.3-1
			c-0.2-0.3-0.4-0.7-0.3-1.1c0.1-0.4-0.1-0.7-0.2-0.8c-0.2-0.1-0.4-0.5-0.5-1c-0.1-0.5-0.3-1-0.5-1.2c-0.2-0.2-0.4-0.8-0.6-1.2
			c-0.2-0.5-0.5-1.2-0.7-1.6c-0.9-1.7-0.5-5,0.6-5.1c0.5,0,0.4-0.1-0.5-0.4c-1-0.3-1.4-0.3-3,0.1c-1,0.2-3.3,0.6-5.1,0.9
			c-1.8,0.3-4.1,0.8-5.2,1.1c-1.1,0.3-2.5,0.6-3.1,0.6c-1.1,0-1.2-0.1-1.8-0.9c-0.7-0.9-1.5-3.9-1.6-5.6c-0.1-2.3,0.6-7.4,1.2-9.1
			c1-2.6,1.8-4,3.1-5.3c1.6-1.6,1.7-1.6,3.8-0.3c0.9,0.6,1.8,1.5,3.3,3.5c1.1,1.5,2.1,2.7,2.2,2.7s0.7,0.7,1.4,1.4
			c1.7,2.1,5.4,4.7,5.5,4c0-0.1-0.2-0.3-0.4-0.4c-0.5-0.3-0.8-1-0.6-1.5c0.1-0.2,0.1-0.8-0.1-1.5c-0.4-1.6,0-4.2,0.9-5.3
			c0.3-0.5,0.7-1.1,0.7-1.4c0.1-1,2.2-4.9,3.5-6.7c1.8-2.5,3.1-3.1,7-3.6c4.5-0.6,11.4,1.9,18.4,6.8c1.9,1.3,2.2,1.5,4.6,2.1
			c1.4,0.3,3,0.7,3.7,0.8c3.8,0.6,8.3,3.5,13.7,9.1c1.8,1.8,3.8,2.7,6.9,3.1c2.3,0.3,2.9,0.7,2.7,1.5c-0.1,0.5,0,0.7,0.4,1
			c1.1,0.7,0.4,1.7-2.7,3.8c-1.7,1.1-2.3,1.7-3.3,3.1c-1.1,1.5-1.2,1.9-1.5,3.4c-0.2,0.9-0.3,2.5-0.4,3.6c-0.1,1.9-0.1,2-0.9,2.9
			c-0.4,0.5-1.6,1.4-2.6,2c-1.1,0.7-2,1.4-2.4,2c-0.4,0.5-0.9,1.1-1.2,1.4c-0.3,0.3-1.2,1.1-1.9,1.9c-2.9,3.2-6.3,4.4-13,4.8
			C301.1,9393.5,292.9,9392.8,290.4,9391.8z"/>
		<path class="st7" d="M152.7,9365.4c-1-0.3-1.9-0.6-2.1-0.8c-0.2-0.1-0.7-0.3-1-0.4c-0.3,0-0.9-0.3-1.1-0.5
			c-0.3-0.2-1.3-0.8-2.2-1.4c-2-1.1-3.6-3.1-3.5-4.2c0-0.3,0-0.8-0.2-1c-0.2-0.2-0.3-0.5-0.2-0.7c0-0.2-0.1-0.5-0.2-0.7
			c-0.2-0.2-0.3-0.6-0.2-0.9s0-0.6-0.1-0.6c-0.1,0-0.3-0.3-0.4-0.6c-0.1-0.3-0.4-1.2-0.8-2.1c-0.3-0.9-0.6-2-0.6-2.4
			c0-1.1,0.4-2.2,0.9-2.2c0.2,0,0.1-0.1-0.3-0.3c-0.6-0.3-1-0.3-2.1-0.1c-0.8,0.1-2.5,0.4-3.9,0.7c-1.4,0.2-3,0.5-3.6,0.7
			c-2.6,0.9-3.4,0.5-4-2.1c-0.5-2.2-0.1-6.6,0.8-8.8c0.9-2.1,1.7-3.5,2.7-4.4l0.9-0.8l0.9,0.5c0.7,0.4,1.6,1.4,3.2,3.5
			c2.2,3,4.5,5.4,5.3,5.5c0.4,0.1,0.4,0,0.1-0.3c-0.2-0.2-0.4-0.7-0.3-1.2c0.1-3.3,0.2-3.8,0.6-4.5c0.2-0.4,0.8-1.5,1.2-2.3
			c0.8-1.8,2.4-4.3,3.3-5.2c0.7-0.6,2-1,4.1-1.3c2.7-0.3,6.8,1.2,10.9,4.1c1.1,0.8,2.3,1.6,2.7,1.9c0.5,0.3,1.7,0.7,3.3,1.1
			c1.4,0.3,3.2,0.9,3.9,1.2c1.6,0.7,4.1,2.9,6.3,5.4c1.7,1.9,3.1,2.7,5.5,3.1c1.3,0.2,1.8,0.6,1.5,1.2c-0.1,0.2,0,0.4,0.3,0.5
			c0.9,0.4,0.2,1.3-2,2.8c-0.8,0.6-1.8,1.5-2.4,2.3c-0.9,1.3-1,1.4-1.4,4c-0.5,3.1-0.5,3.2-2.8,4.6c-0.7,0.4-1.4,0.9-1.5,1.2
			c-0.1,0.2-0.6,0.8-1.2,1.3c-0.5,0.5-1.4,1.3-1.8,1.8c-1,1.1-2.6,1.9-4.6,2.4c-1.6,0.4-6.1,0.6-8.2,0.4c-0.8-0.1-2.1-0.2-2.7-0.2
			C155,9365.9,153.6,9365.6,152.7,9365.4z"/>
		<path class="st7" d="M218.4,9356.5c-0.5-0.1-1.4-0.4-2.1-0.7c-0.7-0.2-1.4-0.6-1.7-0.8c-0.3-0.2-1.2-0.7-2-1.1s-1.8-0.9-2.1-1.2
			c-0.9-0.7-2.3-2.9-2.3-3.4c0-0.3-0.1-0.7-0.2-0.8s-0.3-0.5-0.2-0.7c0-0.2-0.1-0.6-0.3-0.8c-0.2-0.3-0.3-0.6-0.2-0.8
			c0.1-0.2,0-0.5-0.1-0.8c-0.5-0.6-1.4-2.6-1.3-2.9c0-0.1-0.1-0.4-0.3-0.6c-0.8-0.9-0.6-4.5,0.3-4.4c0.2,0,0-0.1-0.4-0.3
			c-0.6-0.3-1.1-0.2-2.8,0.2c-1.1,0.3-2.3,0.5-2.6,0.5c-1.1,0.1-3.6,0.8-5,1.3c-2.3,0.8-2.7,0.7-3.5-0.3c-0.8-1.3-1.3-3.5-1.1-5.4
			c0.1-0.8,0.1-1.6,0-1.8c-0.3-0.6,0.8-4.7,1.7-6.7c0.4-0.8,2.4-3.1,2.6-3.1c0.1,0,0.7,0.3,1.3,0.7c0.9,0.5,1.6,1.2,2.7,2.7
			c2.7,3.5,4.9,5.7,6.5,6.4l0.5,0.2l-0.4-0.6c-0.7-1-0.5-5.1,0.2-6.4c0.2-0.4,0.8-1.6,1.2-2.7c0.9-2.1,2.2-4.3,3.3-5.4
			c0.8-0.8,2.5-1.3,4.7-1.6c3.3-0.4,8.2,1.5,13.2,4.9c1.8,1.3,1.8,1.3,5.3,2c1.9,0.4,3.8,0.9,4.3,1.1c1.8,0.8,5.5,3.8,7.6,6.1
			c0.8,0.8,1.3,1.2,2.7,1.7c1.1,0.4,2.2,0.7,2.8,0.7c1.2,0,1.9,0.4,1.7,1.2c0,0.3,0.1,0.6,0.4,0.7c0.8,0.4,0.3,1.1-2.1,3
			c-2.8,2.1-3.8,4.2-3.8,7.5c0,2.3-0.4,2.9-2.3,4.3c-0.7,0.5-1.7,1.3-2.2,1.9c-3.6,4.2-4.1,4.6-6,5.5
			C232.8,9357.4,222.6,9357.8,218.4,9356.5z"/>
		<path class="st7" d="M185.5,9312.2c-0.9-0.2-1.8-0.5-2-0.6c-0.2-0.1-0.8-0.4-1.2-0.5c-0.5-0.2-1.9-0.9-3.1-1.6
			c-1.9-1.1-2.4-1.6-3.2-2.7c-0.6-0.9-1-1.6-0.9-1.9c0-0.3-0.1-0.7-0.2-0.9c-0.2-0.2-0.3-0.5-0.2-0.7c0-0.2-0.1-0.5-0.2-0.7
			c-0.2-0.2-0.2-0.5-0.1-0.7c0.1-0.2,0.1-0.4-0.1-0.4c-0.1,0-0.3-0.2-0.3-0.4c-0.1-0.2-0.4-1.2-0.8-2.1c-1-2.3-0.9-4.7,0.1-4.9
			c0.2,0-0.1-0.1-0.6-0.2c-0.6-0.1-1.5-0.1-2.1,0c-0.6,0.1-2.2,0.3-3.6,0.5c-1.4,0.2-3.2,0.5-4,0.7c-0.8,0.2-1.7,0.3-2,0.3
			c-2.7-0.4-2.7-8.8,0.1-13.4c0.2-0.4,0.9-1.2,1.4-1.7c0.5-0.5,1-0.9,1-1c0,0,0.6,0.3,1.2,0.7c0.8,0.5,1.9,1.7,3.4,3.7
			c2.1,2.7,4.4,5,5.2,5.1c0.3,0,0.3,0,0-0.4c-0.6-0.9-0.3-4.3,0.4-5.7c0.3-0.5,0.8-1.4,1.1-2.2c0.8-1.7,2.7-4.4,3.6-5
			c0.8-0.6,3.2-1,4.8-1c2.7,0.1,7.4,2.1,11.3,5c1.9,1.4,2.4,1.6,4.2,2.1c3.1,0.8,5.4,1.7,6.6,2.5c1.3,1,4.3,3.7,5.5,5
			c1,1.2,2.5,2,5,2.5c1.7,0.4,1.8,0.4,1.8,1c0,0.3,0.2,0.7,0.4,0.9c0.4,0.4,0.4,0.4-0.1,1c-0.3,0.3-1.2,1-2,1.5
			c-1,0.6-1.8,1.3-2.5,2.2c-1,1.3-1,1.4-1.3,3.9l-0.4,2.6l-0.9,0.7c-0.5,0.4-1.3,1-1.9,1.3c-0.6,0.3-1.1,0.7-1.3,1
			c-0.2,0.2-0.8,0.9-1.4,1.4s-1.5,1.3-2,1.8c-1.1,1-3.6,1.9-5.6,2.1C194.5,9313.3,188.6,9313,185.5,9312.2z"/>
		<path class="st7" d="M261,9317.2c-0.3-0.1-1-0.3-1.6-0.4c-0.6-0.1-1.4-0.4-1.8-0.6c-1-0.6-1.5-0.9-1.9-1c-2.1-0.6-4.5-2.1-5.3-3.1
			c-0.2-0.3-0.5-0.6-0.6-0.6c-0.3,0-1.3-1.7-1.3-2.4c0-0.4-0.3-0.9-0.5-1.2c-0.3-0.3-0.5-0.7-0.4-1c0-0.3-0.1-0.7-0.3-0.9
			c-0.3-0.2-0.4-0.6-0.3-1c0.1-0.5,0-0.7-0.2-0.7c-0.2,0-0.4-0.3-0.5-0.6c-0.1-0.3-0.5-1.1-0.9-1.8c-0.4-0.7-0.7-1.4-0.7-1.4
			c0-0.1-0.2-0.5-0.5-0.9c-0.3-0.4-0.6-1.1-0.6-1.6s-0.2-1-0.2-1.2c-0.1-0.1,0-0.7,0.2-1.4c0.3-0.9,0.4-1.1,0.9-1.2
			c0.5-0.1,0.5-0.1-0.2-0.3c-1.3-0.3-1.9-0.3-3.1,0.1c-0.7,0.2-2.1,0.5-3.1,0.7c-1,0.2-2.4,0.5-3.1,0.7c-0.7,0.2-1.5,0.4-1.8,0.4
			c-0.3,0-1.2,0.4-2,0.7c-3,1.2-4.4,1.2-5.3-0.1c-0.8-1.1-1.8-4.1-1.8-5.5c0-0.6-0.1-1.2-0.1-1.4s0-0.6,0.2-1c0.2-0.4,0.3-0.7,0.1-1
			c-0.3-0.5,0.1-4.1,0.6-5.8c1.1-3.3,2-4.8,4.2-7c0.1-0.1,3,1.4,3.6,2c0.3,0.3,1.3,1.3,2.1,2.3c0.8,1,1.9,2.1,2.4,2.5
			c0.5,0.4,1.3,1.2,1.7,1.7c0.8,1,4.3,3.5,5,3.6c0.5,0.1,0.4,0,0-0.5c-0.4-0.4-0.5-0.9-0.5-1.6c0-0.6-0.1-1.3-0.3-1.7
			c-0.4-1.3-0.2-3.4,0.6-4.7c0.4-0.6,0.7-1.4,0.7-1.8c0.3-2.1,3.2-7.5,4.9-9c0.9-0.8,2.8-1.5,5.4-1.9c1.9-0.3,2.2-0.3,4.7,0.2
			c4.4,0.9,9.4,3,14.1,6l1.6,1l3.6,0.5c4.2,0.6,6.8,1.4,8.7,2.5c1.9,1.1,4.8,3.3,7.4,5.7c1.7,1.5,2.4,2,3.6,2.4
			c2.4,0.9,3.2,1.1,4.6,1c1.8,0,2.5,0.4,2.3,1.4c-0.1,0.5,0,0.7,0.4,0.8c1.3,0.4,0.5,1.7-2.2,3.8c-1.5,1.1-2.3,2-3.1,3.1
			c-1,1.5-1.1,1.7-1.4,3.9c-0.2,1.2-0.3,2.9-0.2,3.6c0.2,2.1-0.2,2.8-2.9,4.8c-1.2,0.9-2.4,2-2.6,2.4s-0.9,1.2-1.5,1.7
			c-0.6,0.5-1.3,1.4-1.6,1.9c-1.3,2-4.9,4-8.5,4.7c-2.4,0.5-7.9,1-10.2,1c-1.1,0-2.4,0-2.8,0C267.7,9318.5,261.8,9317.6,261,9317.2z
			"/>
		<path class="st7" d="M140.4,9273.7c-1-0.3-2.3-0.7-3-0.9c-0.7-0.2-1.7-0.6-2.3-0.8c-0.6-0.2-1.6-0.7-2.3-1.1
			c-0.6-0.4-1.8-1.1-2.7-1.6c-2.3-1.3-3.1-1.9-4.3-3.6c-0.8-1.2-1.1-1.7-1-2.2c0.1-0.4-0.1-0.9-0.4-1.3c-0.3-0.3-0.5-0.8-0.4-1.1
			c0-0.3-0.1-0.7-0.3-1c-0.3-0.3-0.3-0.6-0.2-1c0.2-0.4,0.1-0.6-0.2-0.9c-0.2-0.2-0.4-0.5-0.4-0.6c0-0.2-0.5-1.6-1.3-3.3
			c-0.8-1.8-1-3.8-0.6-5.1c0.3-0.9,0.4-1,0.9-1c0.5,0.1,0.5,0,0.2-0.2c-0.5-0.4-2.7-0.6-3.8-0.3c-0.5,0.1-1.7,0.3-2.8,0.5
			c-1.1,0.1-2.6,0.3-3.4,0.4c-0.7,0.1-1.5,0.2-1.6,0.2c-0.1,0-1.2,0.2-2.5,0.6c-2.8,0.7-4,0.6-4.7-0.4c-0.7-1-1.6-4.6-1.5-5.7
			c0.1-0.5,0.1-1.1,0-1.4c-0.1-0.3,0-0.7,0.2-0.9c0.2-0.3,0.3-1,0.3-1.7c0-1.3,0.5-3.5,1.1-5.1c1.1-2.7,1.8-3.9,3.3-5.2
			c0.8-0.7,1.5-1.3,1.6-1.3c0.1,0,0.8,0.4,1.5,0.8c1.2,0.7,1.7,1.2,3.6,3.6c3.8,5,5.2,6.5,7.4,8.1c0.4,0.3,1,0.6,1.2,0.6
			c0.3,0,0.3,0-0.1-0.5c-0.4-0.5-0.5-0.8-0.5-1.7c0-0.6,0-1.6-0.1-2.2c-0.1-1.3,0.3-3.1,1-4c0.3-0.4,0.7-1.1,0.8-1.5
			c1-2.6,3.7-6.9,5.3-8.3c1-0.9,2.6-1.4,5.4-1.7c2-0.2,4.2,0.1,7.1,1.1c2.4,0.8,6.7,3.1,10,5.5c3.6,2.5,3.9,2.7,8.9,3.9
			c4.6,1.1,7,2.6,11.9,7.6c1.3,1.3,2.6,2.6,3,3.1c1,1,3.8,2.1,6,2.4c2.2,0.3,2.7,0.6,2.4,1.5c-0.2,0.5-0.1,0.7,0.4,1.1
			c0.4,0.3,0.6,0.6,0.6,0.7c-0.1,0.5-1.6,1.9-2.7,2.5c-3.9,2.1-6.1,5.7-6.1,9.8c0.1,2.6-0.5,3.4-4.5,5.8c-0.7,0.4-1.5,1.1-1.8,1.5
			c-0.3,0.4-1,1.2-1.7,1.8s-1.5,1.4-1.9,1.8c-1.2,1.5-4.5,3.1-7.7,3.6c-2.6,0.4-8.4,0.5-11.9,0.1c-1.6-0.2-3.2-0.3-3.4-0.3
			S141.3,9274,140.4,9273.7z"/>
	</g>
	<path class="st8" d="M27.4,35.4c-0.2-0.4-0.2-0.6-0.4-1c-0.2-0.2-0.6-0.4-0.8-0.4c-0.6-0.2-1.2-0.8-1.2-1.4c0-0.2,0-0.4,0-0.6
		c0-0.4-0.2-1-0.8-1.2c0.2,0,0.6,0.2,0.8,0.2c0.2,0.2,0.4,0.4,0.4,0.8c0,0.2-0.2,0.6-0.2,0.8c0,0.4,0.4,0.6,0.8,0.8
		c0.4,0.2,0.8,0.2,1,0.6s0.2,0.8,0.4,1c0.2,0.8,1,1,1.6,1.4c-0.4-0.2-0.6-0.4-1-0.8c-0.2-0.4-0.4-0.8-0.4-1.2c0-0.2,0-0.4,0-0.6
		c0-0.2-0.2-0.6-0.4-0.6c-0.4-0.4-1-0.4-1.4-0.8c-0.4-0.6,0-1.4-0.4-1.8c-0.2-0.4-0.8-0.4-1-0.8s0-0.8,0.2-1.2
		c0.2-0.2,0.2-0.6,0.4-0.8c0.2,0.6-0.2,1.4,0,1.8c0.2,0.2,0.4,0.4,0.6,0.4c0.4,0.2,0.8,0.6,0.8,1c0,0.2-0.2,0.6,0,0.8
		c0.2,0.4,0.6,0.4,0.8,0.6c0.6,0.2,1.2,1,1.2,1.8c0,0.4-0.2,0.8,0,1.2c0,0.6,0.4,1,0.8,1.2c-0.4-0.2-0.4-0.6-0.4-1s0.2-0.8,0.4-1
		c0.2-1-0.2-2-1-2.7c-0.4-0.2-0.6-0.2-0.8-0.6c-0.2-0.4-0.2-0.8,0-1.4c0.2-0.4,0.2-1,0-1.4c-0.2-0.2-0.4-0.4-0.4-0.6s0-0.4,0-0.6
		c0-0.4-0.2-0.6-0.4-0.8c0.4,0,0.6,0.4,0.8,0.6c0,0.2,0,0.4,0.2,0.6s0.4,0.4,0.6,0.4c0.4,0.4,0.6,0.8,0.6,1.4c0,0.2-0.2,0.6,0,0.8
		l0.2,0.2c0.6,0.4,1,1,1.2,1.6c0.2,0.6,0.2,1.4-0.2,2c-0.2,0.4-0.4,0.6-0.4,1c-0.2,0.4,0,0.8,0.2,1c0-0.4,0-0.6,0.4-1
		c0.2-0.2,0.6-0.4,0.8-0.6c0.6-0.6,0.8-1.6,0.6-2.7c0-0.2-0.2-0.4-0.2-0.6c-0.2-0.2-0.6-0.4-0.8-0.6s-0.6-0.6-0.6-1s0.2-0.6,0.6-0.8
		c-0.2,0.2-0.2,0.4-0.2,0.6s0.2,0.4,0.2,0.4c0.6,0.6,1.4,0.8,1.6,1.6c0,0.2,0.2,0.4,0.2,0.8c0,1-0.6,2-1.4,2.9
		c-0.2,0.2-0.6,0.4-0.8,0.8c0,0.2,0,0.8-0.4,0.8c-0.2,0-0.2,0-0.2-0.2c-0.2,0-0.2,0-0.4,0C28.2,36.4,27.8,36,27.4,35.4z"/>
	<path class="st8" d="M7.5,34.4c-0.2,0-0.2,0-0.4,0c0,0.3,0,0.3-0.2,0.3c-0.4,0-0.3-1-0.3-1.3c-0.1-0.6-0.5-1-0.7-1.3
		c-0.7-1.3-1.1-2.9-0.9-4.4c0.1-0.6,0.3-0.9,0.3-1.2c0.3-1.2,1.2-1.4,1.9-2.2c0,0,0.2-0.3,0.3-0.6c0-0.3,0.1-0.6-0.1-0.9
		C7.8,23,8,23.4,7.9,24c-0.1,0.6-0.6,1.2-0.8,1.4c-0.2,0.3-0.7,0.5-0.9,0.8c0,0.3-0.3,0.6-0.3,0.9c-0.4,1.5-0.4,3,0.1,4
		c0.2,0.3,0.5,0.7,0.7,1c0.3,0.7,0.3,1,0.2,1.6c0.2-0.3,0.5-0.9,0.4-1.5c0.1-0.6-0.1-0.9-0.2-1.6c-0.3-1-0.1-2.2,0.2-3.1
		c0.3-0.9,0.8-1.7,1.5-2.3L9,25c0.2-0.3,0.1-0.9,0.1-1.2c0.1-0.9,0.4-1.5,0.9-2c0.2,0,0.4-0.3,0.7-0.5s0.3-0.6,0.3-0.9
		c0.2-0.3,0.5-0.9,0.9-0.8c-0.2,0.3-0.5,0.6-0.6,1.2c0,0.3-0.1,0.6-0.1,0.9c0,0.3-0.3,0.6-0.5,0.9c-0.3,0.6-0.4,1.5-0.3,2.1
		c0.1,0.9,0,1.5-0.3,2.1c-0.3,0.6-0.5,0.6-0.9,0.8c-0.9,0.8-1.5,2.3-1.5,3.8c0.2,0.3,0.3,1,0.2,1.6C8,33.5,7.9,34.1,7.5,34.4
		c0.4-0.3,0.9-0.8,1-1.7c0.3-0.6,0.1-1.2,0.2-1.8c0.1-1.2,0.9-2.3,1.5-2.6c0.2-0.3,0.6-0.2,0.9-0.8c0.2-0.3,0.1-0.9,0.1-1.2
		c0.1-0.6,0.6-1.2,1-1.4c0.2,0,0.4-0.3,0.7-0.5c0.3-0.6,0-1.8,0.3-2.7c0.2,0.3,0.1,0.9,0.3,1.3c0.1,0.6,0.3,1.3,0,1.8
		s-0.9,0.5-1.2,1.1c-0.5,0.6-0.2,1.8-0.7,2.7c-0.5,0.6-1.1,0.5-1.6,1c-0.2,0-0.5,0.6-0.5,0.9c0,0.3-0.1,0.6-0.1,0.9
		c-0.1,0.6-0.3,1.2-0.6,1.8c-0.5,0.6-0.7,0.8-1.2,1.1c0.7-0.5,1.5-0.7,1.9-1.9c0.2-0.3,0.3-0.9,0.6-1.5s0.7-0.5,1.1-0.8
		c0.4-0.3,0.9-0.5,1-1.1c0-0.3-0.1-0.9-0.1-1.2c0.1-0.6,0.3-0.9,0.6-1.2c0.2,0,0.6-0.2,0.8-0.2c-0.6,0.2-1,1.1-1,1.7
		c0,0.3-0.1,0.6-0.1,0.9c-0.1,0.9-0.8,1.7-1.5,2c-0.2,0-0.6,0.2-0.9,0.5c-0.3,0.6-0.3,0.9-0.6,1.5C9,33.6,8.5,34.2,7.5,34.4z"/>
</g>
<g id="cercle_separation">
	<line class="st2" x1="16.1" y1="38.2" x2="23.8" y2="39.1"/>
	<g>
		<path class="st4" d="M39.1,21.7c-1,10.6-10.4,18.4-21,17.4C7.5,38.1-0.3,28.6,0.7,18c1-10.6,10.4-18.4,21-17.4
			C32.4,1.7,40.2,11.1,39.1,21.7z"/>
	</g>
	<path class="st9" d="M19.9,39.2"/>
	<path class="st9" d="M19.9,0.9"/>
</g>
</svg>
