<?xml version="1.0" encoding="utf-8"?>
<!-- Generator: Adobe Illustrator 25.0.1, SVG Export Plug-In . SVG Version: 6.00 Build 0)  -->
<svg version="1.1" xmlns="http://www.w3.org/2000/svg" xmlns:xlink="http://www.w3.org/1999/xlink" x="0px" y="0px"
	 viewBox="0 0 40 40" style="enable-background:new 0 0 40 40;" xml:space="preserve">
<style type="text/css">
	.st0{fill:none;}
	.st1{fill:#4FADAD;}
	.st2{fill:#C3E5E0;}
	.st3{fill:#038B8B;}
	.st4{fill:#04706D;}
	.st5{fill:none;stroke:#038B8B;stroke-width:0.1972;stroke-miterlimit:10;}
	.st6{fill:none;stroke:#038B8B;stroke-width:0.1972;stroke-miterlimit:10;stroke-dasharray:0.9085,0.4542;}
	.st7{fill:none;stroke:#038B8B;stroke-width:0.1972;stroke-miterlimit:10;stroke-dasharray:1.7616,0.8808;}
	.st8{fill:none;stroke:#038B8B;stroke-width:0.1972;stroke-miterlimit:10;stroke-dasharray:0.8514,0.4257;}
	.st9{fill:none;stroke:#038B8B;stroke-width:0.1972;stroke-miterlimit:10;stroke-dasharray:2.2799,1.14;}
	.st10{fill:none;stroke:#038B8B;stroke-width:0.1972;stroke-miterlimit:10;stroke-dasharray:0.8956,0.4478;}
	.st11{fill:none;stroke:#038B8B;stroke-width:0.1972;stroke-miterlimit:10;stroke-dasharray:1.4025,0.7012;}
	.st12{fill:none;stroke:#FFFFFF;stroke-width:0.1972;stroke-miterlimit:10;}
	.st13{fill:none;stroke:#FFFFFF;stroke-width:0.1972;stroke-miterlimit:10;stroke-dasharray:1.7616,0.8808;}
	.st14{fill:none;stroke:#FFFFFF;stroke-width:0.1972;stroke-miterlimit:10;stroke-dasharray:0.9085,0.4542;}
	.st15{fill:none;stroke:#038B8B;stroke-width:0.7808;stroke-miterlimit:10;}
	.st16{fill:none;stroke:#038B8B;stroke-width:0.5;stroke-linecap:round;stroke-linejoin:round;stroke-miterlimit:10;}
</style>
<g id="Calque_2">
</g>
<g id="poissons">
	<line class="st0" x1="6.4" y1="12" x2="8.9" y2="10.8"/>
	<line class="st0" x1="12.2" y1="10.4" x2="14" y2="11.4"/>
	<line class="st0" x1="22.3" y1="12.5" x2="26" y2="13"/>
	<line class="st0" x1="32.4" y1="10" x2="35.7" y2="10.4"/>
	<path class="st1" d="M1.9,12.4h36.1c0,0,0.8,2.3,0.9,2.8c0.1,0.5-5.7,0.5-6.7,0.5c-1,0-7,0.3-8,0.8c-1,0.6-1.8,1.9-1.2,2.4
		s2.6,1.4,5.5,1.9c2.9,0.4,4.6,0.1,4.6,0.7s-1.2,2.9-2,2.6c-0.8-0.3-1.6,1.2-0.5,1.4s7.5,1.6,7.5,1.5c0-0.1-1.8,3.5-1.8,3.5
		s-1.3,2.6-1.8,2.3c-0.5-0.3-4.9-0.6-5.6-1.1c-0.8-0.4-4.2-1.3-5-1.4c-0.7-0.1-3.1-0.8-1.7-1.3c1.4-0.6,3.1-1.6,3.6-1.6
		c0.5,0,1.8-2.2,0.7-2.6c-1.1-0.4-8.7-2.2-13.6-2.2s-12.4,0-12.4,0l-0.2-3.7c0,0,2.8-0.1,4.5-0.1s8.8,0.4,11-0.1s4.8-1.2,3.8-1.9
		c-1-0.8-4.1-1.9-7.8-1.9S1.1,14.9,1.1,14.9L1.9,12.4"/>
	<g>
		<path class="st2" d="M28.8,31.7c-0.8-0.4-4.2-1.3-5-1.4c-0.7-0.1-3.1-0.8-1.7-1.3s3.1-1.6,3.6-1.6s1.8-2.2,0.7-2.6
			c-1.1-0.4-8.7-2.2-13.6-2.2c-4.8,0.1-12.4,0-12.4,0l-0.2-3.7c0,0,2.8-0.1,4.5-0.1c1.6,0,8.8,0.4,11-0.1c2.2-0.5,4.8-1.2,3.8-1.9
			c-1-0.8-4.1-1.9-7.8-1.9S0.9,14.9,0.9,14.9l0,0l0,0l0,0c-0.7,1.8-0.6,1.2-0.8,3.2c-1,10.7,6.8,20.2,17.6,21.3
			c6.5,0.6,12.6-2,16.6-6.6C33.3,32.4,29.5,32.1,28.8,31.7z"/>
		<path class="st2" d="M38.5,15.4c-1.1,0.3-5.6,0.3-6.4,0.3c-1,0-7,0.3-8,0.8c-1,0.6-1.8,1.9-1.2,2.4c0.5,0.4,2.6,1.4,5.5,1.9
			c2.9,0.4,4.6,0.1,4.6,0.7c0,0.6-1.2,2.9-2,2.6c-0.8-0.3-1.6,1.2-0.5,1.4c1,0.2,6.1,1.3,7.3,1.5c0.6-1.6,1-3.3,1.2-5.1
			C39.1,19.6,39,17.5,38.5,15.4z"/>
	</g>
	<g>
		<path class="st3" d="M21.3,6.9c-0.1,0-0.1,0.1-0.1,0.2c0,0.2-0.1,0.2-0.3,0.1c0,0,0,0-0.1,0c0,0,0,0.1-0.1,0.1
			c-0.3,0-0.4-0.1-0.3-0.4c0,0-0.1,0-0.1,0c0,0.1-0.1,0.1-0.2,0.1c0,0,0,0-0.1,0c-0.1-0.1-0.1-0.2-0.1-0.3c0-0.1,0-0.2-0.2-0.2
			c-0.1,0-0.1,0-0.1,0.1c0,0.1,0,0.2,0,0.3c0,0,0,0.1,0,0.1c-0.2,0-0.3-0.1-0.3-0.4c-0.1,0-0.2,0-0.4-0.1c0,0,0,0,0.1-0.1
			c0.1-0.1,0.2-0.2,0.2-0.2c0,0,0-0.1,0-0.1c0,0-0.1,0-0.1,0c-0.1,0.1-0.1,0.1-0.2,0c-0.1-0.1,0-0.1,0-0.2c0,0,0-0.1,0-0.1
			c0-0.1,0-0.2,0-0.2c0.1-0.1,0.2,0,0.3,0c0,0,0,0.1-0.1,0.1c0,0-0.1,0-0.1,0c0,0.1,0.1,0.1,0.1,0.2c0,0,0.1,0,0.1-0.1
			c0,0,0.1-0.1,0.1-0.1c0,0,0.1,0.1,0.1,0.1C19.9,5.9,20,5.9,20,5.7c0-0.1,0-0.2-0.1-0.3c-0.1,0-0.2-0.1-0.3-0.1c0,0-0.1,0-0.1,0
			c0-0.1,0.1-0.1,0.1-0.1c0,0,0-0.1,0.1-0.1c0.1,0,0.3,0.1,0.3,0.3c0,0,0.1,0,0.1,0c0-0.1-0.1-0.1-0.1-0.2c0,0,0.1,0,0.2-0.1
			c0,0,0,0,0,0.1c0.1,0.1,0.1,0.1,0.2,0c0,0,0.1,0,0.1-0.1c-0.1,0-0.2-0.1-0.3-0.1c-0.2,0-0.2-0.1-0.3-0.2c0,0,0,0,0,0
			C19.8,5,19.7,5,19.6,5c-0.1,0-0.1-0.1-0.2-0.2c0.1,0,0.1-0.1,0.2-0.1c0,0,0,0,0,0c0.2,0,0.3,0,0.3-0.3c0,0,0-0.1,0.1-0.1
			c0-0.1,0.1-0.1,0.1-0.1c0,0,0,0,0.1-0.1c0,0,0,0.1-0.1,0.1c0,0,0.1,0.1,0.1,0.1c0.1,0,0.1,0,0.2,0.2c0,0,0.1-0.1,0.1-0.1
			c-0.2-0.1-0.2-0.2-0.2-0.4c-0.1,0-0.2,0.1-0.3,0c0,0,0-0.1,0-0.1c0,0,0-0.1,0-0.1c0,0,0.1,0,0.1,0c0.1,0,0.2,0.1,0.3,0.1
			c0.1,0,0.2-0.1,0.1-0.2c0-0.1-0.1-0.2-0.2-0.2c0,0-0.1-0.1-0.1-0.1c0,0,0.1,0,0.1-0.1c0.1,0,0.1-0.1,0.2,0
			c0.1,0.1,0.1,0.2,0.1,0.3c0,0,0,0.1,0,0.1c0-0.1,0-0.2,0.2-0.2c0,0,0.1-0.1,0.1-0.1c0-0.1,0-0.2,0-0.3c0.1,0,0.2,0.1,0.2,0.2
			c0,0.2,0.1,0.4,0.3,0.5c0.1-0.1,0.2-0.2,0.2-0.3c0.1,0.1,0.2,0.1,0.3,0.2c0.2-0.1,0.3,0,0.4,0.2C22.3,3.9,22.2,4,22.1,4
			c0,0,0,0,0.1,0c0,0,0.1-0.1,0.1-0.1c0,0.1,0,0.1,0.1,0.2c0.1,0,0.1,0.1,0.2,0.2c0.1,0,0.1,0,0.1,0.1c0,0,0.1,0,0.2,0
			c0-0.1,0-0.2-0.1-0.3c0-0.1-0.1-0.2-0.2-0.2c-0.2-0.1-0.2-0.2-0.1-0.4c0,0,0,0,0-0.1c0,0,0,0,0,0c0,0,0,0,0,0c0-0.1,0-0.2,0-0.3
			c0-0.1-0.1-0.1-0.1-0.2c0.1-0.1,0.1-0.2,0.2-0.4c0-0.1-0.1-0.2-0.1-0.2c-0.1-0.1,0-0.2,0.1-0.3c0,0,0.1,0,0.1,0c0,0,0,0.1,0,0.1
			c0,0.1,0,0.2,0.1,0.3c0,0,0,0.1,0.1,0.1c0.1,0,0.2,0.1,0.2,0.2C23,2.7,23,2.7,23,2.6c0,0,0.1,0,0.1,0c0,0,0-0.1,0-0.1
			c0,0,0.1,0.1,0.1,0.1c0,0,0.1,0.1,0.1,0c0,0,0.1,0,0.2,0c-0.1,0.1-0.1,0.2-0.2,0.3c0,0,0,0-0.1,0c0,0,0,0,0,0c0,0,0.1,0.1,0.1,0.1
			c0,0.1,0.1,0.2,0.1,0.2c0.1,0,0.3-0.2,0.4,0C24,3.2,24,3.4,24,3.4c0-0.1-0.1-0.1-0.1-0.1c-0.1,0-0.3,0.1-0.4,0.1
			c-0.1,0-0.1,0,0,0.1c0,0,0,0-0.1,0c-0.1-0.1-0.1,0-0.1,0.1c0,0,0,0.1,0,0.1c0.1,0,0.1,0,0.2,0.1c0.1,0,0.2,0,0.3-0.1
			c0,0,0.1-0.1,0.1-0.1c0,0,0,0,0.1,0C24,3.7,24,3.8,24,3.9c0,0.1,0.1,0.2,0.2,0.3c0,0,0.1-0.1,0.1-0.1C24.3,4,24.4,4,24.5,4
			c0.1,0.1,0.2,0.1,0.2,0c0.1-0.1,0-0.2-0.1-0.2c0,0-0.1-0.1-0.1-0.1c0.1,0,0.2,0,0.3-0.1c0.1-0.1,0.1-0.3,0-0.5
			c-0.1,0-0.1,0.2-0.3,0.1c0,0,0-0.1,0-0.1c0,0,0-0.1,0-0.1C24.4,3,24.3,3,24.5,2.7c0.2,0,0.3,0.2,0.5,0.3c0.1,0.1,0.1,0.1,0,0.2
			c0,0,0.1,0.1,0.1,0.1c0-0.1,0-0.2,0.1-0.3c0-0.1,0.1-0.1,0.2-0.1c0,0,0.1,0,0.1,0c0,0,0.1,0,0.1,0c0,0,0.1,0.1,0.1,0.1
			c0.1-0.1,0.2-0.2,0.2-0.3c0,0,0,0,0,0c0-0.1,0-0.2,0.1-0.3c0,0,0-0.1,0.1-0.1c0,0-0.1,0-0.1,0c0.1-0.1,0.2-0.1,0.2,0
			c0,0-0.1,0-0.1,0c0,0,0,0,0,0.1c0.1,0.1,0.1,0.2,0,0.2C26,2.9,26,3,26.2,3.1c0.2-0.1,0-0.4,0.2-0.5c0.1,0,0.1,0,0.2,0
			c0,0,0.1,0.1,0.1,0.1c0,0.1,0,0.2-0.1,0.2C26.5,3,26.5,3,26.4,3c0,0,0,0.1-0.1,0.1c0.1,0,0.1,0,0.2,0c0-0.2,0.2-0.1,0.3-0.3
			c0.1,0,0.1,0,0.2,0.1c-0.1,0-0.1,0.1-0.2,0.1c0,0-0.1,0.1-0.1,0.2c0,0.1,0,0.1-0.1,0.1c0,0.1,0,0.2-0.1,0.3c0,0,0,0,0,0
			c0.1,0,0.2-0.1,0.3-0.1c0-0.1-0.1-0.1-0.1-0.2c0,0,0,0,0.1,0c0.1,0.1,0.2,0.1,0.3,0c0.1-0.1,0.2-0.1,0.3,0c0,0,0,0,0,0.1
			c0,0.2-0.2,0.3-0.4,0.2c0,0-0.1,0-0.1,0c0,0,0,0,0,0c0,0,0.1,0,0.1,0.1c0,0-0.1,0-0.1,0c-0.1,0-0.1,0.1-0.1,0.1c0,0.1,0,0.1,0,0.2
			c0,0,0.1,0.1,0.1,0.1C27,4.2,27,4.3,27.2,4.2c0,0,0,0,0,0c0,0.1,0,0.2,0.1,0.2c0,0,0.1,0.1,0.2,0.1c-0.2,0-0.1,0.1-0.1,0.2
			c0,0.1,0.1,0.1,0.1,0c0.2,0,0.2-0.1,0.2-0.3c-0.1,0-0.1,0-0.2,0c-0.1,0-0.2,0-0.2-0.1c0-0.1,0.1-0.2,0.1-0.2c0.1,0,0.2,0,0.3,0
			c0,0.1,0,0.1,0,0.1c0,0.1,0,0.1,0.1,0.1c0.2,0.1,0.2,0.3,0,0.4c0,0,0,0-0.1,0c0,0,0,0,0,0c0,0,0.1,0,0.1,0c0,0,0-0.1,0-0.1
			c0-0.1,0.1-0.2,0.2-0.3c0.1-0.1,0.1-0.1,0.2-0.2c0.1,0.1,0.2,0.1,0.4,0c0,0,0.1,0,0.1,0c0,0,0,0.1,0,0.1c0,0.1,0,0.2-0.1,0.3
			c0,0-0.1,0.1-0.1,0.1c0.1,0,0.3,0,0.4-0.1c0.1-0.1,0.2-0.2,0.3-0.3c0,0,0.1,0.1,0.1,0.1c0,0,0,0.1,0,0.1c-0.1,0.1-0.1,0.1,0,0.2
			c0,0,0,0.1,0,0.1c0,0.1,0,0.2-0.1,0.2c0,0-0.1,0.1-0.1,0.1c0.1,0.2,0.1,0.2,0,0.2c0,0.1,0,0.1,0.1,0.2c0.1-0.1,0.1-0.1,0.1-0.1
			c0-0.1,0.1-0.1,0.2-0.1c0,0,0.1,0,0.1,0c0,0.1,0,0.1-0.1,0.2c-0.1,0.1-0.1,0.2-0.2,0.3c0,0.1-0.1,0.1-0.1,0.2c0,0-0.1,0-0.1,0
			c0,0,0.1,0,0.1,0c-0.1-0.1-0.1-0.1-0.2-0.2c-0.1,0.1-0.3,0.1-0.4,0c0,0.1,0,0.1,0,0.2C29,5.8,29,6,29,6.1
			c-0.1,0.1-0.2,0.1-0.1,0.3c0,0,0,0.1-0.1,0.1c0,0-0.1,0.1-0.2,0.1c0.1,0.1,0.1,0.2,0,0.3c0,0-0.1,0-0.1,0c0,0.1-0.1,0.1-0.1,0.2
			c0,0,0.1,0.1,0.1,0.1c0.1-0.1,0.1-0.1,0.1-0.1c0,0,0.1-0.1,0.1-0.1c0-0.1,0.1-0.2,0.1-0.2c0.1,0,0.1,0,0.2,0c0.1,0,0.2,0,0.3,0
			c0.1,0,0.2-0.1,0.1-0.1c0-0.1,0-0.2-0.1-0.3c0.1-0.1,0-0.2,0.1-0.2c0-0.1-0.1-0.2-0.1-0.3c0.1,0,0.2,0.1,0.3,0.2
			c-0.1,0.1-0.1,0.2-0.2,0.3c0,0,0.1,0,0.1,0c0,0,0-0.1,0-0.1c0-0.1,0.1-0.2,0.2-0.2C29.9,6,30,5.9,30,5.8c0,0,0,0,0.1,0
			c0.1,0.1,0.2,0,0.3,0c0,0,0.1,0,0.1,0c0,0,0,0.1,0,0.1c0,0.1,0,0.2-0.1,0.3c0,0-0.1,0-0.1,0c0,0,0,0,0,0c0,0,0.1,0,0.1,0
			c-0.1,0.2-0.2,0.2-0.3,0.2c0,0-0.1,0-0.1,0c-0.1,0-0.1,0-0.1,0.1c0,0.1,0.1,0.2,0,0.2c-0.1,0.1-0.2,0.1-0.2,0.1c0,0,0,0,0,0
			c0,0-0.1,0.1-0.1,0.1c-0.1,0-0.2,0.2-0.2,0.3c0,0.1,0,0.1,0.1,0.1c0.1,0,0.2-0.1,0.3-0.1c0.1,0,0.1,0,0.1,0c0,0.1,0,0.1-0.1,0.2
			c-0.2,0.1-0.3,0.3-0.3,0.5c0,0,0,0.1,0.1,0.1c-0.2-0.1-0.3-0.1-0.4-0.2C29.1,7.9,29,8,28.9,8.1c-0.1,0.1-0.1,0.1,0,0.2
			c0,0,0,0,0,0.1c-0.1,0-0.2-0.1-0.4-0.1c0.1,0,0.1,0,0.1-0.1c0,0,0,0,0,0c0,0-0.1,0-0.1-0.1c0,0.1,0,0.3,0,0.4
			c0,0.1-0.1,0.2-0.1,0.3c-0.1-0.1-0.2-0.1-0.2-0.2c-0.1,0.1-0.3,0.2-0.3,0c0-0.1,0-0.2,0-0.3c0,0,0,0-0.1,0c0,0.1-0.1,0.1-0.2,0.1
			c0,0,0,0-0.1,0c-0.1-0.1-0.1-0.2-0.1-0.3c0-0.1,0-0.2-0.2-0.2c-0.1,0-0.1,0-0.1,0.1c0,0.1,0,0.2,0,0.4c0,0,0,0.1,0,0.1
			c-0.1,0-0.2,0-0.3,0c0-0.1,0-0.2,0-0.4c-0.3,0-0.5-0.1-0.8,0c-0.3,0.1-0.6,0.1-0.9,0.1c-0.3,0-0.7-0.1-1,0c-0.1,0-0.2,0.1-0.2,0.2
			c-0.2,0.2-0.3,0.5-0.4,0.7c-0.1,0.2-0.1,0.4,0.2,0.6c0.3,0.1,0.6,0.2,0.9,0.2c0.4,0,0.8,0,1.1,0c0.2,0,0.3,0,0.5,0
			c0.3,0,0.7,0.1,1,0.2c0.2,0.1,0.3,0.2,0.4,0.3c0.1,0.1,0.2,0.1,0.4,0.1c0.2,0,0.4,0.1,0.6,0.1c0.2,0.1,0.4,0.1,0.6,0.2
			c0.3,0.2,0.6,0.3,0.9,0.5c0.3,0.2,0.5,0.4,0.6,0.7c0,0,0,0,0,0c0,0,0,0.1,0,0.2c0,0-0.1,0-0.1-0.1c-0.1-0.3-0.3-0.5-0.6-0.7
			c0,0-0.1,0-0.1,0c0,0.2,0,0.3,0.1,0.5c0.2,0.1,0.4,0.1,0.5,0.3c0,0,0,0,0,0c-0.1-0.1-0.3-0.1-0.4-0.2c0,0,0,0,0,0
			c0,0,0,0.1,0.1,0.1c-0.1,0-0.1,0-0.1,0c-0.1-0.2-0.3-0.2-0.4-0.3c-0.1,0.1-0.1,0.2-0.2,0.3c0,0-0.1,0-0.1,0c0-0.1,0.1-0.2,0.1-0.2
			c0-0.1,0-0.2,0-0.2c-0.2-0.3-0.4-0.5-0.6-0.7c-0.1-0.1-0.3-0.2-0.4-0.3c-0.1,0-0.2,0-0.3,0c0.4,0.5,0.8,0.9,1,1.5
			c-0.1,0-0.1,0-0.2-0.1c-0.1-0.1-0.1-0.3-0.2-0.4c0,0,0,0,0,0c0,0.2,0.1,0.3,0.1,0.5c-0.1,0-0.1,0-0.1,0c-0.1-0.2-0.1-0.4-0.2-0.6
			c0,0,0-0.1,0-0.1c0-0.2-0.1-0.3-0.2-0.4c-0.2-0.2-0.3-0.4-0.5-0.6c-0.1-0.1-0.2-0.1-0.3-0.2c0,0,0,0,0,0c0,0.1,0,0.3,0.1,0.4
			c0.1,0.4,0.4,0.7,0.7,0.9c0.2,0.1,0.3,0.3,0.4,0.5c-0.2,0-0.2-0.2-0.4-0.3c0,0.1,0,0.2,0,0.3c0,0-0.1,0-0.1,0c0-0.1,0-0.3,0-0.4
			c0,0,0-0.1,0-0.1c-0.1-0.1-0.2-0.2-0.3-0.3c0,0.3,0.2,0.5,0.3,0.7c-0.1,0-0.1,0-0.2-0.1c-0.3-0.4-0.4-0.8-0.5-1.3
			c-0.1-0.2-0.1-0.4-0.2-0.7c-0.4-0.2-0.8-0.1-1.1-0.1c0,0,0,0,0,0c0.1,0,0.2,0.1,0.3,0.1c0.4,0.2,0.6,0.4,0.8,0.8
			c0.1,0.3,0.3,0.6,0.4,0.9c0,0.1,0.1,0.2,0.1,0.3c-0.2,0-0.2,0-0.3-0.1c-0.1-0.2-0.2-0.4-0.3-0.6c0,0,0,0,0,0c0,0.3,0,0.5-0.1,0.8
			c-0.2,0-0.4,0.1-0.4-0.2c0,0,0,0,0,0c0,0.1,0,0.1,0,0.2c-0.1,0-0.1,0-0.2-0.1c-0.1-0.2-0.1-0.3-0.2-0.5c0,0,0-0.1,0-0.1
			c0,0-0.1,0-0.1-0.1c0,0,0,0.1,0,0.1c-0.1,0.2-0.1,0.3-0.2,0.5c0,0,0,0.1,0,0.1c-0.1,0-0.2,0-0.2,0c-0.1-0.4-0.2-0.8-0.4-1.1
			c-0.1,0.2-0.1,0.4-0.2,0.6c0,0,0,0.1,0,0.1c0.1,0.1,0.2,0.2,0.2,0.4c-0.2,0.1-0.3,0-0.4-0.2c-0.1,0.1-0.1,0.2-0.2,0.2
			c-0.1,0-0.2,0-0.3-0.2c0,0.1,0,0.1-0.1,0.2c0,0-0.1,0-0.2,0c0-0.1,0-0.3,0-0.4c0-0.1-0.1-0.2-0.2-0.2c0,0-0.1,0-0.1,0.1
			c0,0.2-0.1,0.3-0.1,0.5c0,0.1-0.1,0.1-0.2,0.1c-0.1,0-0.1,0,0-0.1c0-0.2,0.1-0.4,0.1-0.6c0,0,0,0,0,0c0.1-0.1,0-0.2-0.1-0.3
			c-0.1-0.1-0.1-0.1-0.2-0.2c0,0.1,0,0.2,0,0.3c0,0.1-0.1,0.3-0.1,0.4c0,0.1,0,0.1,0,0.2c0.1,0.1,0.2,0.2,0.2,0.3
			c-0.2,0-0.3,0-0.4-0.2c0,0.2-0.2,0.2-0.3,0.2c0-0.1,0.1-0.1,0.1-0.2c0-0.1,0-0.1,0-0.2c-0.1-0.2-0.3-0.3-0.4-0.5
			c0,0-0.1-0.1-0.1-0.1c0,0.1,0,0.2,0,0.2c0.1,0.2,0.3,0.4,0.4,0.7c0,0,0,0.1,0,0.1c-0.1,0-0.2,0-0.3-0.1c0-0.1-0.1-0.2-0.2-0.2
			c0,0,0,0,0,0c0,0.1,0,0.1,0,0.2c0,0.2,0,0.2-0.2,0.1c0-0.3,0-0.5-0.1-0.8c-0.1,0.1-0.2,0.1-0.2,0.2c0,0,0,0.1,0,0.2
			c0,0.1,0,0.3,0,0.5c-0.1,0-0.1,0-0.1,0c0-0.2,0-0.3,0-0.5c-0.1,0-0.2,0.1-0.2,0.2c0,0,0,0.1,0,0.1c0,0.1,0,0.1-0.2,0.1
			c0,0,0,0,0-0.1c0,0,0-0.1,0-0.1c-0.1,0.1-0.1,0.2-0.1,0.2c-0.1,0-0.1,0-0.2,0c0-0.1,0-0.1,0-0.1c0.1-0.2,0.3-0.5,0.5-0.6
			c0.1-0.1,0.1-0.2,0.1-0.3c0-0.2-0.1-0.3-0.1-0.5c0-0.1,0-0.2,0-0.3c-0.1,0-0.2,0.1-0.2,0.1c-0.2,0.2-0.3,0.4-0.5,0.6
			c0,0.1,0,0.2,0,0.3c0,0.2,0,0.4,0,0.7c0,0.1,0,0.1,0,0.2c0,0-0.1,0-0.1,0c0-0.1,0-0.3,0-0.4c0-0.1,0-0.3,0-0.4c0,0,0,0,0,0
			c-0.1,0.1-0.1,0.2-0.2,0.3c-0.1,0.1-0.1,0.2-0.2,0.3c0,0.1-0.1,0.2-0.3,0.1c0.2-0.6,0.5-1.1,0.9-1.6c-0.2,0-0.3,0-0.4,0.2
			c-0.1,0.2-0.3,0.5-0.5,0.7c-0.1,0.2-0.2,0.4-0.2,0.7c0,0.1,0,0.1-0.1,0.1c-0.1,0-0.1-0.1-0.1-0.1c0,0,0,0,0-0.1
			c0,0.1-0.1,0.1-0.1,0.1c0,0-0.1,0-0.1,0.1c0,0,0,0,0,0c0.3-0.5,0.5-1,0.8-1.5c-0.2,0.1-0.3,0.2-0.4,0.3c-0.3,0.3-0.5,0.7-0.7,1.2
			c0,0.1-0.1,0.1-0.2,0.1c0.1-0.2,0.1-0.3,0.2-0.5c0,0,0,0,0,0c-0.1,0.1-0.1,0.2-0.2,0.3c-0.1,0.1-0.1,0.2-0.3,0.2
			c0.1-0.1,0.1-0.2,0.1-0.2c0.2-0.4,0.5-0.7,0.8-1c0.2-0.2,0.3-0.4,0.6-0.5c0.1-0.1,0.3-0.1,0.4-0.1c0.2,0,0.3-0.1,0.5-0.1
			c0.1,0,0.2-0.1,0.3-0.1c0.2-0.1,0.3-0.1,0.5-0.2c0.2-0.1,0.3-0.1,0.5-0.2c0.3-0.1,0.5-0.3,0.6-0.6c0.1-0.2,0.2-0.5,0.3-0.7
			c0.1-0.2,0.3-0.4,0.4-0.6c0,0,0-0.1,0-0.1c-0.1-0.2-0.2-0.5-0.1-0.7c0-0.1,0.1-0.2,0.2-0.4c0-0.1,0-0.1,0.1-0.2c0-0.1,0-0.1,0-0.2
			c0,0,0,0,0,0c0,0,0,0.1-0.1,0.1c-0.1,0.1-0.2,0.1-0.3,0c0-0.1-0.1,0-0.1,0c-0.1,0.1-0.1,0.1-0.2,0.2c0,0-0.1,0-0.1,0
			c0,0-0.1,0-0.1-0.1c0,0-0.1,0-0.1-0.1c0.1,0,0.1,0,0.1,0c0,0,0-0.1,0-0.1c-0.1,0-0.2-0.1-0.3-0.1c0,0,0,0,0,0c0,0-0.1,0-0.1,0.1
			c0,0-0.1,0.1-0.1,0.1c-0.1,0.1-0.2,0.1-0.3,0c0,0,0,0-0.1,0c0,0,0,0.1,0,0.1c0,0.1,0,0.1,0,0.2c-0.1,0-0.2-0.1-0.3-0.1
			c0,0,0,0,0,0C21.3,6.8,21.3,6.8,21.3,6.9C21.3,6.9,21.3,6.9,21.3,6.9z M25.2,3.9c0-0.1,0-0.2,0-0.2c0-0.1,0-0.1-0.1-0.1
			c-0.1,0-0.1,0.1-0.2,0.2C25,3.8,25.1,3.9,25.2,3.9c0,0.1,0,0.1-0.1,0.2c0,0,0,0.1,0,0.1c0,0,0.1,0,0.1,0c0.1-0.1,0.1-0.1,0.2-0.2
			C25.3,3.9,25.2,3.9,25.2,3.9z M24.9,4.6c0.1-0.2,0-0.3-0.2-0.3c-0.3-0.1-0.5,0.1-0.7,0.1c0,0,0,0-0.1,0C24,4.4,24,4.5,24.1,4.5
			c0.1,0,0.2-0.1,0.2-0.2c0.1,0.1,0.2,0.1,0.3,0.2c0,0,0,0.1,0,0.1c0,0-0.1,0.1-0.1,0.1C24.7,4.8,24.7,4.6,24.9,4.6
			C24.9,4.6,24.9,4.6,24.9,4.6c-0.2,0-0.2,0.1-0.2,0.2c0,0,0.1,0,0.1,0.1C24.9,4.8,24.9,4.7,24.9,4.6C25,4.6,25,4.6,24.9,4.6
			c0.1,0.1,0,0.2,0,0.3c0.1,0,0.2,0.1,0.2,0.1c0-0.1,0-0.2,0-0.3c0.1,0.1,0.1,0,0.1,0c0-0.1,0-0.2-0.2-0.2C25,4.5,25,4.5,24.9,4.6z
			 M22.4,4.7C22.4,4.7,22.4,4.7,22.4,4.7c0-0.1-0.1-0.2-0.2-0.2C22.2,4.6,22.3,4.6,22.4,4.7C22.3,4.7,22.3,4.7,22.4,4.7
			c-0.1,0.1-0.2,0.1-0.3,0.1c-0.1,0-0.2-0.1-0.3,0c-0.1,0.1-0.1,0.1,0,0.2c0,0,0.1,0.1,0.1,0.1c0,0,0,0,0,0c0,0,0.1,0.1,0.1,0.1
			c0.1,0,0.1,0,0.2,0c0.1,0,0.2-0.1,0.1-0.2c0,0,0-0.1,0-0.1c0,0,0.1,0,0.1,0c0.1-0.1,0.2,0,0.3,0c0,0,0.1,0.1,0.1,0.1
			c0.1,0.1,0.1,0.2,0.2,0.3c0.1,0,0.2,0.1,0.2,0.1c0.1,0,0.1-0.1,0.1-0.2c0,0,0,0,0,0c0,0,0,0.1,0,0.1c0,0,0,0.1,0.1,0.1
			c0.1,0,0.2,0,0.3,0C23.8,5.2,24,5,24,4.8c0,0,0-0.1,0-0.1c-0.1,0-0.2,0-0.2,0C23.7,4.9,23.6,5,23.5,5c0,0,0,0,0.1,0
			c-0.1-0.1-0.2-0.1-0.3-0.2c0-0.1,0.1-0.1,0-0.2c0,0.1,0,0.2-0.1,0.3c-0.2,0-0.4-0.1-0.5-0.4c0,0.1-0.1,0.2-0.1,0.3
			C22.5,4.8,22.4,4.7,22.4,4.7z M27,5.5c-0.2,0-0.3-0.1-0.2-0.3c0-0.1,0-0.1,0-0.2c-0.2,0-0.4-0.1-0.5-0.2c-0.1,0-0.2,0-0.2,0.1
			c0-0.1,0-0.1,0.1-0.2c-0.1,0-0.2,0-0.3,0c0,0.1,0.1,0.1,0.1,0.2c0,0,0,0.1,0,0.1c0,0.1-0.1,0.2-0.2,0.3c0-0.2,0-0.3,0-0.4
			c0-0.1-0.2-0.2-0.2-0.3c-0.1,0-0.2,0-0.2,0.1c0,0,0.1,0.1,0.1,0.1c0,0.1,0.1,0.2,0.1,0.2c0,0.2,0,0.3,0.2,0.3c0,0,0,0.1-0.1,0.2
			c0.1,0,0.2,0,0.3,0c0.1,0,0.1-0.1,0.2-0.2c0.2,0.1,0.4,0.1,0.5,0c0.1,0,0.1,0,0.1,0c0.1,0.1,0.1,0.2-0.1,0.3c0,0,0,0,0,0
			c0,0.1,0.1,0.3,0,0.4c0,0,0,0.1,0,0.1c0,0.1,0,0.1,0,0.2c-0.1,0-0.1-0.1-0.1-0.1c0,0,0.1,0,0.1-0.1c0,0,0-0.1,0-0.1
			c-0.1,0-0.1-0.1-0.2-0.1c0,0.1,0,0.2-0.1,0.2c0.1,0,0.1,0.1,0.1,0.2c0,0,0,0.1,0,0.2c0,0,0,0,0.1,0c0,0,0.1,0,0.1,0
			c0,0,0,0.1,0,0.1c0,0,0,0.1,0,0.2c0.1-0.1,0.2-0.3,0.3-0.4c0,0,0.1,0,0.2,0.1c0,0,0,0,0,0c0-0.1,0-0.1-0.1-0.2
			C27.3,6,27.3,6,27.2,5.7c-0.1,0-0.2,0-0.2,0c-0.1,0-0.2,0.1-0.2,0C26.8,5.7,26.8,5.5,27,5.5C27,5.5,27,5.5,27,5.5
			c0.1,0,0.2,0,0.3,0.1c0-0.1,0.1-0.2,0.1-0.3c0,0,0-0.1,0-0.1c0,0,0-0.1,0-0.2c0,0,0,0,0,0c0,0.1,0.1,0.1,0.1,0.2
			c0-0.1,0-0.1,0.1-0.2c-0.1-0.1-0.2-0.2-0.3-0.4c0,0-0.1,0.1-0.1,0.1c0,0,0,0-0.1-0.1c0,0,0,0,0,0c0,0,0,0.1,0,0.1
			c0,0.1,0,0.2,0,0.4C27,5.4,27,5.4,27,5.5z M23.7,7.7c0.1,0,0.2,0,0.3-0.1c0.1,0,0.3,0,0.4-0.1c0.2-0.2,0.3-0.3,0.1-0.6
			c-0.1-0.1-0.1-0.2-0.2-0.3c0-0.1-0.1-0.2-0.2-0.2c-0.1,0-0.1-0.1-0.2-0.1C24,6.2,24,6.2,23.8,6.2c0,0-0.1,0-0.1,0c0,0-0.1,0-0.1,0
			c0,0,0,0.1,0,0.1c0.1,0.2,0.2,0.4,0.1,0.6c0,0.1-0.1,0.2-0.1,0.3C23.7,7.4,23.6,7.5,23.7,7.7z M25.2,7c-0.1,0.2-0.2,0.5-0.3,0.7
			c0.1,0,0.2,0,0.3,0.1c0.2,0,0.5,0.1,0.7-0.1c0.1,0,0.1-0.1,0-0.1c-0.1-0.1-0.1-0.2-0.1-0.3c0,0,0-0.1,0-0.1c0.1,0,0.2-0.1,0.3-0.1
			c0,0,0,0-0.1-0.1c-0.1-0.1-0.1-0.2,0.1-0.3c0,0,0.1-0.1,0.1-0.1c0,0-0.1-0.1-0.1-0.1c0,0.1-0.1,0.2-0.1,0.3c-0.1,0-0.2,0-0.3,0.1
			c0,0.1-0.1,0.2-0.1,0.2C25.4,7,25.3,7,25.2,7z M25.7,10.7c0,0.1,0,0.1,0,0.1c0.1,0.3,0.1,0.6,0.3,0.9c0.1,0.2,0.3,0.4,0.4,0.6
			c0-0.4,0-0.7,0-1.1c0,0,0,0,0-0.1C26.3,10.9,26,10.8,25.7,10.7z M24.9,6.3C24.9,6.3,25,6.3,24.9,6.3c0.1-0.1,0.1-0.2,0-0.2
			c0,0,0,0-0.1,0c-0.2-0.1-0.3-0.1-0.5-0.2c0.1-0.2,0-0.4-0.1-0.5c0,0,0-0.1-0.1-0.1c0.1,0,0.1,0,0.2,0c0.1,0,0.2,0.1,0.3,0.2
			c0,0,0-0.1,0-0.1c0,0,0.1,0.1,0.1,0.1c-0.1-0.1-0.2-0.2-0.3-0.3c-0.1,0-0.2-0.1-0.1-0.2c0,0,0-0.1,0-0.1c-0.1,0-0.1-0.1-0.1-0.2
			c0,0-0.1,0-0.1-0.1c0,0,0,0,0,0c0,0.1,0,0.1,0.1,0.2c0,0,0,0,0,0c0,0,0,0.1,0,0.1c0.1,0.2,0.1,0.2-0.1,0.2c0,0,0,0,0,0
			c0,0,0.1,0.1,0.1,0.1c0,0.1,0.1,0.2,0.2,0.3c0.1,0.1,0,0.2-0.1,0.2c0,0-0.1,0-0.2,0C24.1,6,24.2,6.1,24.3,6c0,0-0.1,0-0.1,0
			c0,0,0.1-0.1,0.1-0.1C24.5,6,24.7,6.2,24.9,6.3z M25.6,11.3c-0.1-0.3-0.1-0.5-0.2-0.7c-0.1,0-0.2-0.1-0.3-0.1
			c-0.1,0-0.3-0.1-0.4-0.1c-0.2-0.1-0.2-0.1-0.3,0.1c0,0,0,0,0,0c0,0.1,0,0.1,0,0.1c0.1,0.1,0.2,0.1,0.3,0.2
			c0.2,0.1,0.4,0.2,0.6,0.3C25.4,11.2,25.5,11.3,25.6,11.3z M24.1,10.9c-0.2-0.1-0.2-0.1-0.3,0.1c0,0,0,0.1,0,0.1
			c-0.1,0.2-0.1,0.3,0.1,0.5c0.2,0.2,0.3,0.4,0.4,0.6c0.1-0.1,0.1-0.2,0-0.3c-0.1-0.2-0.2-0.4-0.3-0.6C24,11.2,24.1,11,24.1,10.9z
			 M22.7,10.6c0,0.1-0.1,0.1-0.1,0.1c-0.1,0.1-0.1,0.2-0.2,0.2c-0.2,0.2-0.2,0.2,0,0.4c0.1,0.1,0.2,0.3,0.3,0.4
			C22.8,11.4,22.8,11,22.7,10.6z M26.6,4.4c0,0-0.1,0.1-0.1,0.1c0,0,0.1,0,0.1,0.1c0.1-0.1,0.1-0.2,0.2-0.3c0-0.1,0-0.1,0-0.1
			c-0.1,0-0.1,0-0.2,0c0,0,0-0.1,0.1-0.1c0-0.1,0-0.1-0.1-0.1c-0.1,0-0.2,0.1-0.2,0.1c-0.1,0-0.1,0-0.1-0.1c0,0,0,0.1,0,0.1
			c0,0,0,0.1-0.1,0.1c0,0-0.1,0-0.1,0.1c0,0.1,0.2,0.2,0,0.3c0.1,0,0.1,0,0.1-0.1c0,0,0-0.1,0-0.1c0.2,0.1,0.3,0,0.4-0.1
			C26.6,4.3,26.6,4.3,26.6,4.4z M21.7,10.4C21.6,10.4,21.6,10.4,21.7,10.4c-0.3,0-0.3,0.1-0.4,0.2c-0.1,0.2,0,0.5,0,0.7
			c0.1,0,0.1,0,0.1-0.1c0.1-0.1,0.2-0.1,0.2-0.2C21.7,10.9,21.7,10.7,21.7,10.4z M28.1,5.6C28.1,5.6,28.1,5.6,28.1,5.6
			c0,0.1,0.1,0.2,0.1,0.2c0.1,0,0.1,0,0.2-0.1c0.1-0.1,0.1-0.4,0-0.6c0,0-0.1,0-0.1,0C28.4,5.1,28.4,5,28.4,5c0,0,0,0,0,0
			c-0.1,0-0.1,0-0.2,0c0,0,0,0.1,0,0.1c0,0.2,0,0.3-0.2,0.3c0,0-0.1,0-0.1,0c0,0,0,0,0,0C28,5.4,28,5.5,28,5.6
			C28.1,5.6,28.1,5.6,28.1,5.6z M23.5,11.2c0-0.1,0.1-0.2,0.1-0.4c0-0.1,0-0.1,0-0.1c-0.2-0.2-0.4-0.3-0.6-0.5
			c-0.1,0.1-0.1,0.2,0,0.3c0,0.1,0.1,0.1,0.1,0.2C23.2,10.8,23.3,11,23.5,11.2z M29.7,12c0-0.1,0-0.2,0-0.3c0-0.1,0-0.2-0.2-0.3
			c-0.2-0.1-0.5-0.2-0.7-0.3c0,0,0,0,0,0c0,0,0,0,0,0c0.1,0.1,0.2,0.3,0.3,0.4C29.3,11.8,29.5,11.9,29.7,12z M26,3.8
			c0-0.1-0.1-0.2-0.1-0.3c0-0.1,0-0.2,0.1-0.3c0,0,0-0.1,0-0.2c-0.1,0-0.1,0-0.2,0c0,0,0,0.1,0,0.1c0,0.1,0,0.1-0.1,0.2
			c-0.1,0.1-0.2,0.2-0.2,0.4c0,0.1,0,0.1,0.1,0.2c0,0,0.1,0,0.2,0C25.8,3.9,25.9,3.8,26,3.8z M23.3,3.5c-0.2-0.1-0.2-0.3-0.3-0.4
			c0,0,0,0,0,0C23,3,23,3,23,3c-0.1,0.1-0.3,0.5-0.1,0.6c0,0,0,0.1,0,0.1c0,0.1,0,0.1,0,0.1c0,0,0.1,0,0.1,0.1
			C23,3.6,23.1,3.5,23.3,3.5z M27.7,6.3c0.1,0,0.1,0.1,0.1,0.1c0-0.1,0-0.1,0.1-0.2c-0.1,0-0.1-0.1-0.2-0.1c-0.1-0.1-0.1-0.1-0.2,0
			c-0.1,0-0.2,0.1-0.3,0.2c0,0-0.1,0.1-0.1,0.2c0,0.1,0,0.1-0.1,0.2C27.4,6.7,27.6,6.6,27.7,6.3z M23.7,5.5
			c-0.1,0.1-0.1,0.2-0.2,0.3c0,0,0,0,0,0c0,0,0-0.1,0-0.2c-0.1,0.1-0.2,0-0.3-0.1c-0.1-0.1-0.1,0-0.1,0.1c0,0.1,0,0.2-0.1,0.3
			c0,0,0,0.1,0,0.2c0,0,0.1,0.1,0.1,0c0.1,0,0.1,0,0.1-0.1c0.1-0.1,0.2-0.2,0.4-0.3C23.8,5.6,23.8,5.6,23.7,5.5z M21.9,3.7
			c0,0-0.1,0-0.1,0c0,0,0,0,0,0c0,0.2-0.1,0.4,0,0.5c0.1,0.1,0.1,0.1,0.2,0.1c0.1,0,0.1-0.1,0.1-0.2C22.1,4.1,22,4.1,22,4
			C22,3.9,21.9,3.8,21.9,3.7z M20.5,5.3C20.4,5.3,20.3,5.3,20.5,5.3c0,0.3,0.1,0.4,0.3,0.5c0,0,0.1,0,0.1,0c0.1-0.1,0.1-0.2,0-0.3
			C20.8,5.3,20.6,5.3,20.5,5.3z M20.8,4.4c-0.1,0-0.1,0-0.1,0.1c0.1,0.2,0.1,0.3,0.3,0.4c0.1,0,0.2,0,0.2-0.1c0.1-0.1,0-0.2,0-0.2
			C21.1,4.6,20.9,4.5,20.8,4.4z M21.9,11c0.2-0.2,0.4-0.5,0.6-0.8c-0.2,0.1-0.3,0.1-0.4,0.2c-0.1,0-0.1,0.1-0.1,0.2c0,0,0,0.1,0,0.1
			C22,10.7,22,10.8,21.9,11z M27.9,7.3C28,7.2,28,7.2,28.1,7.1c0.1-0.1,0.1-0.1,0-0.2c0,0,0,0-0.1-0.1c0,0,0,0,0,0
			c0.1-0.1,0.1-0.1,0-0.2c0,0,0,0,0-0.1c0-0.1,0-0.1-0.1-0.2c-0.1,0-0.1,0-0.1,0.1c-0.1,0.1-0.1,0.2,0,0.3c0,0,0,0.1,0.1,0.1
			c0.1,0,0.1,0.1,0.1,0.1C27.9,7.1,27.9,7.2,27.9,7.3z M28.8,7.7C28.8,7.6,28.8,7.6,28.8,7.7c0-0.1,0.1-0.1,0.2-0.2
			c0.1-0.1,0.1-0.1,0.2-0.2c0,0,0,0,0,0c-0.1,0-0.2,0-0.3,0c-0.1,0-0.2,0.1-0.2,0.2C28.6,7.5,28.6,7.6,28.8,7.7
			C28.7,7.6,28.8,7.6,28.8,7.7z M25.2,11.3c0.1,0.3,0.1,0.5,0.2,0.7c0,0,0,0,0,0c0-0.2,0.1-0.3,0.1-0.5c0,0,0,0,0-0.1
			C25.4,11.4,25.3,11.4,25.2,11.3z M21.5,4.6c0.1,0,0.2,0,0.2,0c0.1,0,0.1,0.1,0.2,0.1c0-0.1,0-0.1,0-0.2c0,0,0,0-0.1-0.1
			c-0.1,0-0.2-0.1-0.2-0.2c0,0,0-0.1,0-0.1c0,0-0.1,0-0.1,0c0,0-0.1,0.1-0.1,0.1C21.5,4.4,21.5,4.5,21.5,4.6z M20.5,4.9
			C20.6,5,20.6,5,20.5,5.1c0,0,0,0.1,0,0.1c0,0.1,0.2,0.1,0.2,0c0.1-0.1,0.1-0.1,0-0.2c0,0,0,0,0,0c0-0.1,0-0.1-0.1-0.1
			C20.6,4.8,20.6,4.9,20.5,4.9z M20.9,5.9c0,0.1,0,0.1,0.4,0.4c0,0,0.1,0,0.1-0.1c0,0,0-0.1,0-0.1C21.3,6.1,21.1,6,20.9,5.9z
			 M23.1,6.3c-0.1-0.1-0.2-0.1-0.3-0.1c-0.1,0.1-0.1,0.2-0.2,0.3c0,0.1,0,0.1,0,0.1C22.9,6.5,23,6.4,23.1,6.3z M28,6.5
			C28,6.5,28.1,6.5,28,6.5c0.2,0,0.3,0,0.3,0.1c0,0,0,0,0,0c0,0,0,0,0,0c0.1-0.1,0-0.2-0.1-0.3c0,0,0,0.1-0.1,0.1
			c-0.1,0-0.2-0.1-0.2-0.1C28,6.3,28,6.4,28,6.5z M28.8,5c0,0,0,0.1-0.1,0.1c0,0,0-0.1-0.1-0.1c0,0-0.1,0-0.1,0
			c0,0.1-0.1,0.1-0.1,0.2c0,0,0.1,0,0.1,0c0.1,0,0.2,0,0.2,0.1c0,0,0,0,0.1,0.1c0-0.1,0.1-0.1,0.1-0.2C28.9,5.1,28.9,5.1,28.8,5z
			 M28.3,7.6C28.3,7.6,28.3,7.6,28.3,7.6c-0.1,0-0.1,0-0.2,0c-0.1,0-0.1,0-0.2,0c0,0,0,0.2,0.1,0.2c0,0,0.1,0,0.1,0.1
			c0,0,0.1,0,0.1,0c0-0.1,0.1-0.1,0.1-0.2C28.4,7.7,28.3,7.6,28.3,7.6z M27.5,6.2c0-0.2,0.1-0.3,0.2-0.4c0,0,0.1-0.1,0.1-0.1
			c0,0,0-0.1,0-0.1c0,0-0.1,0-0.1,0c0,0-0.1,0-0.1,0.1c0,0.1,0,0.1-0.1,0.1c0,0-0.1,0-0.1,0c0.1,0.1,0.1,0.1,0.1,0.2
			c0,0.1-0.1,0.1-0.1,0.2C27.4,6.2,27.4,6.2,27.5,6.2z M24.5,11.7c0-0.2,0-0.3,0.1-0.4c0-0.2,0-0.2-0.2-0.3
			C24.3,11.2,24.3,11.5,24.5,11.7z M21,5.1C21,5.1,21,5.1,21,5.1c0,0,0.1,0,0.1,0c0,0,0.1,0,0.1-0.1c0.1,0,0.1-0.1,0.2,0
			c0,0,0,0,0.1,0c0.1,0,0.1,0,0.2-0.1c-0.1-0.1-0.2-0.1-0.3-0.2C21.2,5,21.1,5,21,5.1z M22.4,5.5c0,0.1,0,0.2,0,0.2
			c0,0,0,0.1,0.1,0.1c0,0,0-0.1,0.1-0.1c0,0,0-0.1,0-0.1c0,0,0,0,0,0c0,0,0,0,0,0c0.1,0,0.2,0,0.3,0c0,0,0,0,0,0
			c-0.1,0-0.2-0.1-0.2-0.1C22.6,5.6,22.5,5.5,22.4,5.5z M21.2,6c0.1,0,0.1-0.1,0.2-0.1c0,0,0-0.1,0-0.1c0,0,0-0.1,0-0.1
			c-0.1,0-0.2,0.1-0.3,0.1C21.1,5.8,21.1,5.9,21.2,6z M24.2,10.3c-0.2-0.1-0.4-0.1-0.6-0.2c0,0,0,0,0,0c0.2,0.1,0.3,0.2,0.5,0.3
			C24.2,10.5,24.2,10.4,24.2,10.3z M21,3.9C21,4,21,4.1,21,4.2c0,0.1,0,0.1,0.1,0.1c0,0,0.1,0,0.1,0c-0.1-0.1-0.1-0.1-0.1-0.2
			C21.1,4,21,4,21,3.9z M23.1,4.3c0.2-0.1,0.2-0.2,0.2-0.3c-0.1,0-0.1,0-0.2,0C23.1,4.1,23,4.2,23.1,4.3z M25.3,5.1
			c-0.1,0-0.2,0.1-0.2,0.1c0.1,0.1,0.1,0.2,0.2,0.2C25.4,5.3,25.4,5.2,25.3,5.1z M25.5,5.8c-0.1,0-0.2,0-0.3,0.2
			c0.1,0,0.1,0.1,0.2,0.1C25.5,6,25.5,5.9,25.5,5.8z M24.5,6.4c0.1-0.1,0.1-0.2,0.1-0.2c0,0,0-0.1-0.1-0.1c0,0,0,0,0-0.1
			c0,0,0,0,0,0c0,0,0,0.1,0,0.1c-0.1,0-0.1,0-0.2,0C24.4,6.3,24.4,6.4,24.5,6.4z M20.9,6.2C20.9,6.2,20.9,6.3,20.9,6.2
			c-0.1,0-0.1-0.1-0.1-0.2c-0.1,0.1,0,0.2,0.1,0.3c0,0,0.1,0,0.1-0.1c0,0,0,0,0,0c0-0.1-0.1-0.1-0.1-0.2C20.9,6.1,20.9,6.1,20.9,6.2
			C20.9,6.2,20.9,6.2,20.9,6.2z M22.8,6c0-0.1,0.1-0.1,0.1-0.1c0.1-0.1,0.1-0.1-0.1-0.1c0,0-0.1,0-0.1,0c-0.1,0-0.1,0-0.1,0.1
			C22.7,5.9,22.7,6,22.8,6z M24.7,6.6c0.1,0.1,0.1,0.2,0.2,0.3c0,0,0,0,0,0c0-0.1,0-0.2,0.1-0.3C24.9,6.6,24.8,6.6,24.7,6.6z
			 M21.7,6c0.1,0.1,0.1,0.1,0.2,0.1c0.1-0.2,0-0.2,0-0.3C21.8,5.9,21.7,6,21.7,6z M25.2,5.6c0-0.1,0-0.2,0-0.2c0-0.1-0.1-0.1-0.1,0
			C25,5.4,25,5.5,25,5.6C25.1,5.6,25.1,5.6,25.2,5.6z M25,4.2C25,4.2,25,4.2,25,4.2C25,4.1,25,4,25,4c-0.1,0-0.1,0.1-0.2,0.2
			c0,0,0,0,0,0C24.9,4.2,24.9,4.2,25,4.2z M23.4,4.3C23.4,4.3,23.4,4.3,23.4,4.3c-0.1,0.1-0.1,0.2-0.1,0.3c0,0,0.1,0,0.1,0
			c0.1,0,0.1-0.1,0.1-0.1C23.5,4.5,23.5,4.4,23.4,4.3z M28.6,5.9c-0.1,0-0.2,0-0.3,0c0,0,0,0.1,0,0.1c0,0-0.1,0-0.1,0
			C28.2,6.1,28.5,6,28.6,5.9z M22.4,6.1C22.3,6,22.3,6,22.2,6c0,0-0.1,0-0.1,0c0,0,0,0.1,0.1,0.1C22.2,6.2,22.3,6.2,22.4,6.1z
			 M26.1,6.2c-0.2-0.1-0.2,0-0.3,0.1c0.1,0,0.2,0.1,0.3,0.1C26.1,6.3,26.1,6.2,26.1,6.2z M26.2,3.2c-0.1,0.1-0.1,0.2-0.1,0.3
			c0.1,0,0.1,0,0.2-0.1c0,0,0-0.1,0-0.1C26.3,3.3,26.2,3.2,26.2,3.2z M27.6,6.8C27.6,6.8,27.6,6.9,27.6,6.8c0,0.1,0,0.2,0,0.3
			c0,0,0,0,0,0c0,0,0.1-0.1,0.1-0.1C27.7,6.9,27.7,6.9,27.6,6.8z M21.7,5.4C21.6,5.4,21.6,5.4,21.7,5.4c-0.2,0.1-0.3,0-0.4,0
			c0,0-0.1,0-0.1,0c0,0,0,0.1,0,0.1c0.1,0,0.1,0.1,0.2,0C21.5,5.5,21.5,5.5,21.7,5.4z M24.9,5.4C24.9,5.4,24.9,5.4,24.9,5.4
			c-0.1,0-0.1,0.1-0.1,0.1c0,0,0.1,0.1,0.1,0.1c0,0,0,0,0,0C24.9,5.5,24.9,5.5,24.9,5.4z M26.8,6.7C26.8,6.7,26.8,6.8,26.8,6.7
			c0.1,0.1,0.2,0.1,0.3,0.2c0-0.1,0-0.1,0-0.1C27,6.8,26.9,6.8,26.8,6.7z M28.4,7.2c-0.1-0.1-0.1-0.2-0.1-0.2c0,0.1-0.1,0.1-0.1,0.1
			c0,0,0,0.1,0,0.1C28.3,7.2,28.3,7.2,28.4,7.2z M26.6,7.1c0-0.1,0.2-0.1,0.1-0.2c-0.1-0.1-0.1,0-0.2,0.1
			C26.5,7.1,26.5,7.1,26.6,7.1z M27.4,7.2c0,0.1,0,0.1,0,0.2c0,0,0.1,0,0.1,0C27.5,7.3,27.5,7.3,27.4,7.2z"/>
		<path class="st3" d="M24.2,3.5c0.1,0,0.2,0.1,0.2,0.1c0.1,0.1,0.1,0.2,0.1,0.2c-0.1,0.1-0.1,0.1-0.2,0.1c0,0-0.1,0-0.1-0.1
			c-0.1,0-0.1-0.1,0-0.2C24.2,3.6,24.2,3.6,24.2,3.5z"/>
		<path class="st3" d="M28.9,8.7C28.8,8.7,28.8,8.7,28.9,8.7c-0.2,0-0.2,0.1-0.3,0c0-0.1-0.1-0.2-0.1-0.3c0-0.1,0.2-0.1,0.3,0
			C28.9,8.4,28.9,8.6,28.9,8.7z"/>
		<path class="st3" d="M22.2,2.7c-0.1,0-0.3-0.2-0.3-0.3c0,0,0,0,0,0c0.1,0,0.2,0,0.3,0C22.3,2.4,22.4,2.6,22.2,2.7
			C22.3,2.7,22.2,2.7,22.2,2.7z"/>
		<path class="st3" d="M21.3,6.9C21.3,6.9,21.3,6.9,21.3,6.9c0.1,0,0.1-0.1,0.2,0c0.1,0.1,0.1,0.2,0.1,0.4c0,0-0.1,0-0.1,0
			c-0.1,0-0.1,0.1-0.2,0C21.3,7.1,21.3,7,21.3,6.9z"/>
		<path class="st3" d="M23,2.5C23,2.4,23,2.3,23,2.2c0,0,0-0.1,0.1-0.1c0,0,0.1,0,0.1,0c0.1,0,0.1,0,0.1,0.1
			C23.2,2.3,23.2,2.4,23,2.5z"/>
		<path class="st3" d="M21.8,3.1c0,0-0.1,0.1-0.1,0.1c0,0.1-0.1,0.2-0.2,0.2c0-0.1-0.1-0.2-0.1-0.3c0,0,0-0.1,0.1-0.1
			C21.6,3,21.7,3,21.8,3.1C21.8,3.1,21.8,3.1,21.8,3.1z"/>
		<path class="st3" d="M21.8,3.1C21.8,3.1,21.8,3.1,21.8,3.1c0,0,0-0.1,0-0.1c0-0.1,0-0.1,0-0.2c0.1,0,0.2,0,0.3,0
			c0.1,0,0.1,0.1,0.1,0.2c-0.1,0-0.1,0-0.2,0c-0.1,0,0,0.1-0.1,0.2C21.9,3.1,21.9,3.1,21.8,3.1z"/>
		<path class="st3" d="M25.6,2.8c-0.1,0-0.1,0.1-0.1,0c0-0.1-0.1-0.1-0.1,0c0,0-0.1,0-0.1,0c0-0.1,0-0.2,0-0.3c0,0,0.1,0,0.2,0
			c0,0,0-0.1,0-0.1C25.6,2.5,25.5,2.7,25.6,2.8z"/>
		<path class="st3" d="M23.8,3c0-0.1,0.1-0.2,0.1-0.3c0-0.1,0.1-0.1,0.2-0.1c0,0.1,0.1,0.2,0.1,0.3C24,3,23.9,3,23.8,3z"/>
		<path class="st3" d="M30.1,7.2c0.1,0,0.2,0,0.3,0.1c0,0,0,0.1,0.1,0.2c-0.1,0-0.2,0.1-0.3,0C30.2,7.4,30.2,7.3,30.1,7.2
			C30.1,7.2,30.1,7.2,30.1,7.2z"/>
		<path class="st3" d="M21.8,7.1c0.1-0.1,0.1-0.1,0-0.2c0.1,0,0.2,0,0.3,0c0,0.1,0.1,0.2,0,0.2C22,7.2,21.9,7.2,21.8,7.1z"/>
		<path class="st3" d="M29.7,8c0-0.1,0.1-0.2,0.2-0.2c0,0,0.1,0,0.1,0c0,0,0.1,0,0.1,0c0,0.1,0,0.1-0.1,0.1C30,7.9,29.8,8,29.7,8z"
			/>
		<path class="st3" d="M29.4,5.1c0.1-0.1,0.2-0.2,0.3-0.2c0,0,0.1,0,0.1,0c0,0,0,0.1,0.1,0.2C29.7,5.1,29.6,5.1,29.4,5.1z"/>
		<path class="st3" d="M20.4,7.1c0,0.2-0.1,0.2-0.3,0.1c-0.1,0-0.1-0.1,0-0.3c0,0.1,0,0.1,0,0.2c0,0,0,0,0,0c0,0,0-0.1,0-0.1
			C20.2,7.2,20.3,7.2,20.4,7.1z"/>
		<path class="st3" d="M29.2,8c0.1,0,0.1,0,0.2,0c0.1,0.1,0.1,0.2,0.1,0.4C29.4,8.2,29.4,8.1,29.2,8z"/>
		<path class="st3" d="M19.5,4.2c0.1,0,0.1-0.1,0.2-0.1c0.1,0,0.2,0.1,0.2,0.2C19.8,4.3,19.7,4.3,19.5,4.2z"/>
		<path class="st3" d="M29.9,6.9c0.1-0.1,0.1-0.1,0.2-0.1c0,0,0,0.1,0,0.1C30,7,29.9,7,29.9,6.9z"/>
		<path class="st3" d="M25.2,2.8c0-0.1-0.1-0.2-0.1-0.3C25.2,2.6,25.2,2.6,25.2,2.8z"/>
		<path class="st3" d="M23.5,2.4c0.1,0.1,0.1,0.1,0.2,0.1c0,0,0,0,0,0c0,0-0.1,0-0.1,0C23.5,2.5,23.5,2.4,23.5,2.4z"/>
		<path class="st3" d="M29.3,6.3c-0.1,0-0.3,0-0.4,0c0-0.1,0.1-0.2,0.2-0.2C29.3,6.1,29.2,6.3,29.3,6.3z"/>
	</g>
	<path class="st4" d="M10.2,17.3c-0.1,0-0.1,0.1-0.1,0.2c0,0.1,0,0.1,0,0.1c0.2,0.2,0.3,0.5,0.5,0.8l0,0.1l-0.1,0
		c-0.1,0.1-0.1,0.1-0.1,0.2c0,0,0,0.1,0.1,0.5c0.3,1.9,0.5,3.4,0.6,4.4c0,0.4,0,0.4,0.1,0.5c0,0.1,0.2,0.1,0.3,0.2c0,0,0.1,0,0.1,0
		c0,0,0,0.5,0.1,0.9c0.1,2,0.1,4.2-0.1,6.1c-0.1,0.7-0.1,0.7-0.3,1.8c-0.2,0.6-0.6,2.1-0.6,2.2c0,0,0.1-0.3,0.1-0.6
		c0.2-0.7,0.2-1.1,0.3-1.6c0.4-2.6,0.5-4.6,0.3-6.4c0-0.2-0.1-0.6-0.1-0.6c0,0,0,0,0,0c0,0,0,0.2,0,0.4c0,1.4,0,2.5-0.1,3.7
		c0,0.3-0.1,1-0.1,1c0,0,0,0,0-0.1c0-0.2,0-0.7,0-1c0-1.4-0.2-2.6-0.4-4c0-0.2-0.1-0.3-0.1-0.3c0,0,0,0,0.1,0
		c0.1-0.1,0.2-0.2,0.3-0.3c0,0,0-0.2-0.1-0.4c-0.3-1.6-0.8-2.9-1.2-3.8c-0.1-0.1-0.1-0.2-0.1-0.2C9.3,21,9.2,20.9,9,21L9,21
		l-0.2-0.3c-0.3-0.5-0.6-1-0.8-1.1c-0.1-0.1-0.2,0-0.3,0.1c0,0.1,0,0.2,0.1,0.3c0.2,0.2,0.5,0.6,0.7,1c0.1,0.2,0.1,0.2,0.1,0.2
		c0,0-0.1,0.1-0.1,0.1c-0.1,0.1-0.2,0.3-0.1,0.3c0,0,0.3,0.4,0.4,0.5C9.3,23,9.5,24,9.6,25.3c0,0.2,0,0.2,0.1,0.3
		c0.1,0.1,0.3,0.2,0.4,0.2c0,0,0.1,0.2,0.2,0.8c0.3,1.8,0.4,3.7,0.4,5.4c0,0.4-0.1,1.1-0.1,1.3c0,0,0-0.2,0-0.4
		c-0.1-2.1-0.3-3.8-0.6-5.4c-0.3-1.5-0.8-2.7-1.2-3.2c-0.1-0.1-0.1-0.1-0.1-0.1c0,0,0,0.1,0.1,0.1c0.2,0.4,0.5,1.1,0.7,1.8
		c0.5,1.7,0.8,3.8,0.8,6.4c0,0.6,0,2.6,0,2.6c0,0-0.1-0.1-0.1-0.2c-0.1-0.3-0.1-0.3-0.1-0.3c0,0,0,0.1,0,0.3
		c0.1,0.3,0.1,0.4,0.1,0.5c0,0.1,0,0.3-0.1,0.5l0,0.1l0.1,0c0.1,0,0.1,0,0.1,0c0,0,0,0,0,0c0,0,0,0,0.1,0l0,0l0,0.1
		c0,0,0,0.1-0.1,0.2l0,0.1l0,0c0,0,0.1,0,0,0.3c0,0.1-0.1,0.2-0.1,0.2c0,0,0.2,0,0.2,0c0,0,0.1,0,0.1,0c0,0,0.1,0,0.1,0
		c0,0,0.1-0.2,0.1-0.4c0.1-0.2,0.2-0.4,0.2-0.4c0,0-0.1,0.4-0.1,0.6c0,0.2,0,0.1,0,0.2c0,0,0.1,0,0.2,0l0.1,0l0-0.1
		c0.1-0.3,0.2-0.6,0.3-0.7c0-0.1,0-0.1,0.1-0.1c0,0,0,0-0.1,0.2c-0.1,0.3-0.1,0.4-0.1,0.4c0,0,0,0,0,0c0,0-0.1,0.5-0.2,0.5
		c0,0,0.2,0.1,0.2,0.1c0,0,0.1-0.2,0.1-0.4c0-0.1,0-0.2,0-0.2c0,0,0.1,0,0.1,0c0,0,0,0.1-0.1,0.2c0,0.1-0.1,0.2-0.1,0.2
		c0,0,0,0.1,0,0.1c0,0.1,0,0.1,0.1,0.1l0.1,0l0.1-0.1l0.1-0.1l0,0c0,0,0.1,0,0.1,0c0,0,0,0,0,0.1c0,0-0.1,0.1-0.1,0.2l0,0.1l0.1,0
		c0.1,0,0.1,0,0.1,0c0,0,0,0,0,0c0,0,0.1,0,0.1,0c0,0,0.1,0,0.1,0l0.1,0.1l0.1-0.2c0.3-0.4,0.5-0.7,0.9-1.1c0.2-0.2,0.2-0.2,0.2-0.2
		c0,0-0.3,0.2-0.4,0.2c-0.1,0.1-0.3,0.2-0.4,0.3c0,0-0.1,0.1-0.1,0.1c0,0,0.1-0.2,0.2-0.5c0.2-0.4,0.4-0.9,0.5-1.3
		c1.4-3.6,2.2-7.1,1.8-8.6c0-0.2-0.1-0.3-0.1-0.3c0,0,0,0.1,0,0.2c0.1,0.7,0,1.6-0.2,2.6c-0.3,1.9-1,4-2.1,6.6l-0.1,0.2l0-0.1
		c0-0.1,0-0.1,0,0c0,0.3-0.1,0.3-0.1,0.5l-0.1,0.2l0-0.1c0.1-0.2,0.2-0.6,0.2-0.8c0-0.1,0.1-0.2,0.1-0.3c0.1-0.3,0.3-0.9,0.5-1.2
		c0.7-2,1.1-3.7,1.1-5.2c0-0.7,0-0.8-0.1-0.2c-0.2,1.3-0.4,2.3-0.8,3.4c-0.1,0.4-0.4,1.2-0.4,1.3c0,0,0-0.1,0-0.3
		c0.2-1.5,0.4-3.6,0.5-5.5c0-0.3,0-0.3,0-0.3c0.1,0,0.2-0.1,0.3-0.1c0.1,0,0.1-0.1,0.1-0.1c0-0.1,0-0.1,0.1-0.5
		c0.1-2.1,0.1-3.6-0.1-4.3c0-0.1-0.1-0.1-0.1-0.2c0,0-0.2-0.1-0.2-0.1l0,0l0-0.3c-0.1-0.7-0.2-1.4-0.3-1.5c-0.1-0.1-0.2-0.1-0.2,0.1
		c0,0.1,0,0.2,0,0.3c0.1,0.3,0.2,0.8,0.2,1.3l0,0.2l-0.1,0.1C13,21.8,13,21.8,13,22.4c0.1,1.4,0.1,2.9,0.1,3.8c0,0.2,0,0.3,0,0.4
		c0,0.1,0.1,0.1,0.1,0.1l0,0l0,0.3c0,0.5-0.1,1.2-0.1,1.7c0,0.5-0.1,1.4-0.1,1.4c0,0,0-0.1,0-0.1c0-0.3-0.1-0.9-0.2-1.2
		c0-0.1,0-0.2,0-0.3c0-0.8-0.2-1.4-0.3-1.8c-0.1-0.2-0.1-0.3-0.2-0.3c0,0,0,0,0,0.1c0,0.1,0.1,0.5,0.2,0.7c0.1,0.4,0.1,1.1,0.1,1.1
		c0,0,0,0,0,0.1c0,0.1,0,0.2,0,0.5c0,0.5,0,0.8-0.1,1.3c-0.1,1.6-0.5,3.4-1.1,5.4c0,0.1-0.1,0.3-0.1,0.3c0,0,0,0,0,0c0,0,0,0,0-0.1
		c0-0.1,0.1-0.4,0.1-0.5c0-0.1,0-0.2,0.1-0.4c0.2-0.8,0.3-1.8,0.4-2.8c0-0.3,0.1-0.5,0.1-0.8c0.2-1.4,0.3-2.4,0.3-3.4
		c0-0.5,0-0.8,0-0.8c0,0,0,0.2-0.1,0.5c-0.1,0.7-0.1,1.5-0.2,1.5c0,0,0,0,0,0c0-0.1,0-1.1,0-1.7c0-0.9,0-1.8-0.1-2.6l0-0.3l0.1,0
		c0.1-0.1,0.2-0.1,0.3-0.2c0-0.1,0-0.1,0-0.3c0-1-0.2-2.5-0.4-3.5c-0.1-0.7-0.4-1.4-0.5-1.7c-0.1-0.1-0.2-0.2-0.3-0.2l-0.1,0
		L11,18.3c-0.2-0.4-0.3-0.7-0.5-0.9C10.4,17.3,10.3,17.3,10.2,17.3z M12.8,29.5c0,0,0,0.1,0,0.2c0.1,1.3-0.1,3-0.5,4.7
		c-0.1,0.3-0.1,0.2-0.2,0.5c-0.1,0.1-0.1,0.3-0.2,0.4l-0.1,0.1l0-0.2c0-0.2,0-0.2,0.1-0.4c0.5-1.8,0.8-3.8,0.8-5.3
		C12.8,29.6,12.8,29.5,12.8,29.5z M11.2,34.6C11.2,34.6,11.2,34.6,11.2,34.6c0,0,0,0.1,0,0.3c-0.1,0.2-0.1,0.6-0.1,0.6
		c0,0,0,0,0-0.1c0-0.1,0-0.1,0-0.2c0-0.1,0.1-0.2,0.1-0.3C11.1,34.7,11.2,34.6,11.2,34.6z"/>
	<g>
		<g>
			<line class="st5" x1="18" y1="36.5" x2="18.7" y2="36.5"/>
			<line class="st6" x1="19.2" y1="36.5" x2="20.3" y2="36.5"/>
			<line class="st5" x1="20.6" y1="36.5" x2="21.3" y2="36.5"/>
		</g>
	</g>
	<g>
		<g>
			<line class="st5" x1="16.6" y1="32.8" x2="17.3" y2="32.8"/>
			<line class="st7" x1="18.2" y1="32.8" x2="20.4" y2="32.8"/>
			<line class="st5" x1="20.9" y1="32.8" x2="21.7" y2="32.8"/>
		</g>
	</g>
	<g>
		<g>
			<line class="st5" x1="24" y1="34.9" x2="24.8" y2="34.9"/>
			<line class="st8" x1="25.2" y1="34.9" x2="26.3" y2="34.9"/>
			<line class="st5" x1="26.5" y1="34.9" x2="27.3" y2="34.9"/>
		</g>
	</g>
	<g>
		<g>
			<line class="st5" x1="26.7" y1="17.9" x2="27.5" y2="17.9"/>
			<line class="st9" x1="28.7" y1="17.9" x2="31.5" y2="17.9"/>
			<line class="st5" x1="32.1" y1="17.9" x2="32.9" y2="17.9"/>
		</g>
	</g>
	<g>
		<g>
			<line class="st5" x1="18.5" y1="26.1" x2="19.3" y2="26.1"/>
			<line class="st10" x1="19.8" y1="26.1" x2="20.9" y2="26.1"/>
			<line class="st5" x1="21.1" y1="26.1" x2="21.9" y2="26.1"/>
		</g>
	</g>
	<g>
		<g>
			<line class="st5" x1="33.6" y1="24" x2="34.4" y2="24"/>
			<line class="st11" x1="35.1" y1="24" x2="36.9" y2="24"/>
			<line class="st5" x1="37.2" y1="24" x2="38" y2="24"/>
		</g>
	</g>
	<g>
		<g>
			<line class="st5" x1="3.4" y1="27.1" x2="4.2" y2="27.1"/>
			<line class="st6" x1="4.7" y1="27.1" x2="5.8" y2="27.1"/>
			<line class="st5" x1="6" y1="27.1" x2="6.8" y2="27.1"/>
		</g>
	</g>
	<g>
		<g>
			<line class="st5" x1="2.7" y1="16.5" x2="3.5" y2="16.5"/>
			<line class="st7" x1="4.4" y1="16.5" x2="6.6" y2="16.5"/>
			<line class="st5" x1="7" y1="16.5" x2="7.8" y2="16.5"/>
		</g>
	</g>
	<g>
		<g>
			<line class="st12" x1="15.7" y1="30.5" x2="16.5" y2="30.5"/>
			<line class="st13" x1="17.4" y1="30.5" x2="19.6" y2="30.5"/>
			<line class="st12" x1="20" y1="30.5" x2="20.8" y2="30.5"/>
		</g>
	</g>
	<g>
		<g>
			<line class="st12" x1="5.6" y1="29.5" x2="6.4" y2="29.5"/>
			<line class="st14" x1="6.8" y1="29.5" x2="8" y2="29.5"/>
			<line class="st12" x1="8.2" y1="29.5" x2="9" y2="29.5"/>
		</g>
	</g>
	<g>
		<g>
			<line class="st12" x1="18.6" y1="19.5" x2="19.4" y2="19.5"/>
			<line class="st14" x1="19.8" y1="19.5" x2="21" y2="19.5"/>
			<line class="st12" x1="21.2" y1="19.5" x2="22" y2="19.5"/>
		</g>
	</g>
</g>
<g id="cercle_separation">
	<line class="st3" x1="16.1" y1="38.2" x2="23.8" y2="39.1"/>
	<g>
		<path class="st15" d="M39.1,21.7c-1,10.6-10.4,18.4-21,17.4C7.5,38.1-0.3,28.6,0.7,18c1-10.6,10.4-18.4,21-17.4
			C32.4,1.7,40.2,11.1,39.1,21.7z"/>
	</g>
	<path class="st16" d="M19.9,39.2"/>
	<path class="st16" d="M19.9,0.9"/>
</g>
</svg>
