<?xml version="1.0" encoding="utf-8"?>
<!-- Generator: Adobe Illustrator 25.0.1, SVG Export Plug-In . SVG Version: 6.00 Build 0)  -->
<svg version="1.1" xmlns="http://www.w3.org/2000/svg" xmlns:xlink="http://www.w3.org/1999/xlink" x="0px" y="0px"
	 viewBox="0 0 40 40" style="enable-background:new 0 0 40 40;" xml:space="preserve">
<style type="text/css">
	.st0{opacity:0.2;fill:#4FADAD;}
	.st1{fill:#E9FFFE;}
	.st2{clip-path:url(#SVGID_2_);fill:#038B8B;}
	.st3{fill:#C3E5E0;enable-background:new    ;}
	.st4{fill:#038B8B;}
	.st5{fill:none;stroke:#EBFFFB;stroke-width:0.1961;stroke-miterlimit:10;}
	.st6{fill:none;stroke:#EBFFFB;stroke-width:0.1961;stroke-miterlimit:10;stroke-dasharray:0.8799,0.44;}
	.st7{fill:none;stroke:#EBFFFB;stroke-width:0.1961;stroke-miterlimit:10;stroke-dasharray:0.1923,9.615968e-02;}
	.st8{fill:none;stroke:#EBFFFB;stroke-width:0.1961;stroke-miterlimit:10;stroke-dasharray:0.1923,9.614006e-02;}
	.st9{fill:none;stroke:#EBFFFB;stroke-width:0.1961;stroke-miterlimit:10;stroke-dasharray:0.5908,0.2954;}
	.st10{fill:#FFFFFF;}
	.st11{fill:none;stroke:#038B8B;stroke-width:0.2512;stroke-linecap:round;stroke-linejoin:round;stroke-miterlimit:10;}
	.st12{display:none;}
	.st13{display:inline;}
	.st14{clip-path:url(#SVGID_4_);fill:#C3E5E0;}
	.st15{clip-path:url(#SVGID_4_);fill:#038B8B;}
	.st16{clip-path:url(#SVGID_4_);fill:#4FADAD;}
	.st17{clip-path:url(#SVGID_4_);fill:#88C4C4;}
	.st18{fill:none;stroke:#038B8B;stroke-width:0.7808;stroke-miterlimit:10;}
	.st19{fill:none;stroke:#038B8B;stroke-width:0.5;stroke-linecap:round;stroke-linejoin:round;stroke-miterlimit:10;}
</style>
<g id="terre">
	<path class="st0" d="M19.7,39L19.3,0.9c10.8,0,19.6,8.8,19.6,19.6C38.9,31.3,30.5,39,19.7,39"/>
	<g>
		<path class="st1" d="M31.5,18.4l-1.2,1l-1.9-2.8c0,0-1-1.3-1.2-1.3c-0.2,0-0.6,0-0.8,0.1c-0.2,0.2-1.6,1-1.6,1l-1.3,1.1l-3-3.9
			l-3.2-3.9c0,0-0.6-1.4-0.9-1.5c-0.3-0.1-1-0.2-0.9,0c0.1,0.2-1.3,1.7-1.3,1.7l-1.2,2.5l-0.7,1.4l-0.6,1.2L11,13.6l-1.2-1.7
			L8.3,9.8l-2.1,1.3l-3,3.1L0.9,17l-0.3,3.3c0,0,1.6,7.3,1.9,8c0.3,0.7,3,5,3.9,5.9c0.9,0.9,1.9,2,3.4,2.7c1.4,0.8,6,2.1,7.2,2.1
			c1.2-0.1,1.2-0.1,1.2-0.1s5.7-1.4,7.5-3.3c1.9-2,4.8-6.8,5.1-8.3c0.4-1.5,0.9-5.2,0.9-5.8C31.9,21,31.5,18.4,31.5,18.4z"/>
		<path class="st1" d="M26.8,15.7c0,0,2.3-0.1,1.4,0.6c-0.9,0.7,1.2,4.5,0.4,4.8c-0.8,0.3-3.5,3.5-4.3,3.9c-0.8,0.4-5.5-1.1-6.5-0.1
			c-1,1-1.3,1.8-4.7,3.3c-3.4,1.5-7.7,2.9-8.1,3.1s-3.8-7.2-3.8-7.2s0.5-2.3,1.1-2.5c0.7-0.2,2-1.4,2.6-1.9s2.5-0.7,2.8-0.9
			c0.3-0.2,2.8-0.3,3.7-0.5c0.9-0.2,0.2-3.4,0.4-3.4c0.2,0,1.8-4.5,2.3-3.7c0.5,0.8,3,0.8,3,0.8s3,5.7,3.6,5.3
			c0.6-0.3,2-0.3,2.5-0.2c0.4,0.1,3.1-1.1,3.1-1.1L26.8,15.7z"/>
		<g>
			<defs>
				<path id="SVGID_1_" d="M0.7,20.1c0.4,10.5,7.8,19,16.4,19c8.6,0,15.2-8.5,14.8-19c-0.4-10.5-7.8-19-16.4-19
					C6.9,1.1,0.2,9.6,0.7,20.1z"/>
			</defs>
			<clipPath id="SVGID_2_">
				<use xlink:href="#SVGID_1_"  style="overflow:visible;"/>
			</clipPath>
			<path class="st2" d="M14.8,9.2c-0.6,0.8-1.1,1.7-1.4,2.6c-0.1,0.2-0.2,0.5-0.5,0.9c-0.3,0.5-0.4,0.6-0.6,1.2
				c-0.1,0.4,0,0.5,0.1,0.2c0.1-0.1,0.3-0.5,0.6-0.8c0.5-0.6,0.5-0.6,0.7-1.3c0.1-0.3,0.3-0.6,0.3-0.6c0.1,0,0.4,0.3,0.9,0.7
				c0.6,0.6,1.1,1.1,1.2,1.2c0.1,0.1,0.2,0.4,0.5,2.1c0.1,0.3,0.2,0.9,0.5,1.5c0.2,0.6,0.5,1.4,0.6,1.8c0.1,0.4,0.3,0.8,0.3,0.9
				c0.1,0.3,0.1-0.1-0.1-0.6c-0.2-0.6-0.4-1.5-0.5-2.1c-0.2-1.6-0.5-4.3-0.4-4.4c0.1-0.1,0.3-0.1,0.4,0c0.1,0.1,0.1,0.2,0.2,0.7
				c0.1,0.7,0.1,0.8-0.1,1.2c-0.1,0.1-0.1,0.3-0.1,0.4c0,0.1,0,0.2,0,0.3c0,0.1,0,0.1,0.2-0.1c0.2-0.1,0.2-0.3,0.4-0.6
				c0.1-0.3,0.2-0.4,0.3-0.4c0.1,0,0.1,0,0.2,0.1c0,0.1,0.2,1.1,0.4,2.2c0.2,1.1,0.4,2.2,0.5,2.4c0.2,0.7,0.3,0.5,0.5-0.7
				c0.2-1.6,0.3-2,0.5-2.1c0.1,0,0.1,0,0.4,0.7c0.1,0.3,0.3,0.5,0.3,0.5c0,0-0.1-0.3-0.2-0.6l-0.3-0.6l0.2-0.2
				c0.1-0.2,0.2-0.2,0.1-0.5c0-0.2,0-0.3,0-0.3c0,0,0.9,1.1,1.5,1.9c0.5,0.6,0.8,1.1,0.8,1.3c0,0-0.6,0.9-1.4,1.8
				c-0.8,1-1.6,2-1.7,2.2c-0.1,0.2-0.5,1-0.8,1.8l-0.6,1.4h-0.3c-0.2,0-0.4-0.1-0.6-0.1l-0.3-0.1l-0.4-0.7c-0.6-1-1.2-2-1.6-2.8
				c-0.4-0.9-1.1-2.6-1.1-2.7c0-0.1,0-0.1-0.1-0.1c-0.1,0-0.3-0.2-0.5-0.5c-0.2-0.2-0.5-0.6-0.6-0.8c-0.3-0.3-0.4-0.6-0.8-1.5
				c-0.3-0.6-0.5-1.1-0.5-1.2c0-0.2-0.5-1.1-0.5-0.9c0,0-0.1-0.1-0.2-0.2c-0.2-0.4-0.4-0.7-0.8-1.1c-0.6-0.7-1.4-1.9-1.6-2.5
				C8.5,9.7,8.5,9.7,8.3,9.8c-0.4,0.1-1.5,0.8-2.7,1.8c-0.8,0.7-1,0.9-1.7,1.8c-0.4,0.5-2.1,2.6-3.9,4.8c-4.4,5.4-4.9,6.1-4.6,5.9
				c0.3-0.1,1.3-1.1,2.8-2.6c0.3-0.3,0.4-0.4,0.4-0.3c0,0.1-0.1,0.3-0.1,0.4c0,0.1-0.1,0.4-0.1,0.6c0,0.2-0.1,0.7-0.1,1.2
				c0,0.8,0,0.8,0.1,1.2l0.1,0.4l0.2-0.5c0.1-0.3,0.2-0.6,0.3-0.7c0.2-0.2,0.6-0.6,1.1-1c0.3-0.2,0.5-0.4,0.9-1
				c0.3-0.4,0.5-0.8,0.5-0.8c0-0.1-0.4-0.4-0.7-0.6c-0.2-0.1-0.3-0.3-0.4-0.6l0-0.3l-0.2,0.1C0.1,19.7,0,19.7,0,19.7
				c-0.1,0,2.9-2.9,3.3-3.3c0.2-0.1,0.2-0.2,0.3-0.4c0.1-0.3,0.5-1.5,0.7-1.9c0.2-0.5,0.6-1.1,0.9-1.4l0.3-0.3L5.2,13
				c-0.2,0.8-0.3,1.2-0.6,1.7c-0.1,0.3-0.4,1-0.5,1.5c-0.3,1.2-0.5,1.6-0.7,2c-0.3,0.5-0.3,0.8-0.3,1.7c0,0.5,0.1,1.1,0.1,1.5
				l0.1,0.7l0-0.3c0-0.2,0.1-0.6,0.1-0.9c0-0.7,0.1-1,0.6-1.6c0.3-0.5,0.7-1,1.5-1.9c0.7-0.7,1-1.3,1.2-1.8l0.2-0.5l0-1.1
				c0-0.7,0-1.2,0-1.4c0-0.2,0.2-0.6,0.3-1c0.2-0.4,0.3-0.8,0.3-0.8c0-0.1-0.2,0-0.5,0.1c-0.2,0.1-0.3,0.1-0.3,0.1
				c-0.1,0,0.6-0.5,0.8-0.7c0.3-0.2,0.4-0.2,0.4,0.2c0,0.6-0.4,1.5-0.6,1.6c-0.1,0.1-0.1,0.1-0.1,0.5c0,0.2,0,0.7,0.1,1.1
				c0.1,0.4,0.1,0.9,0.1,1.2c0,0.4,0,0.4-0.1,0.5c-0.4,0.3-0.8,0.8-1.1,1.6C5.9,17.6,5.9,17.8,6,18c0.1,0.2,0.4,0.5,0.6,0.5
				c0.1,0,0.3-0.2,0.3-0.3c0,0-0.1-0.2-0.2-0.3c-0.2-0.2-0.3-0.4-0.2-0.6c0,0,0.3-0.2,0.6-0.4c0.4-0.2,0.6-0.4,0.6-0.5
				c0.2-0.3,0.3-0.9,0.6-2.1c0.1-0.6,0.2-1,0.2-1c0,0,0.1,0.1,0.1,0.1c0,0.1,0,0.2,0,0.5c0,0.2-0.1,0.7-0.2,1.2
				c-0.1,0.7-0.2,0.9-0.5,1.7c-0.8,1.8-0.9,2.2-1.1,3c-0.1,0.8,0,1.6,0.3,1.9c0.2,0.2,0.4,0.2,0.7-0.1c0.3-0.3,0.3-0.3,0.5-0.2
				c0.1,0.1,0.2,0.2,0.4,0.7c0.3,0.9,0.5,1.4,0.6,2.4c0.2,1.3,0.2,1.2-0.1,1.5C9,26.2,9,26.3,9.1,26.6c0.1,0.1,0.3,0.2,0.5,0.1
				c0.3-0.1,0.7-0.7,0.9-1.2c0.1-0.3,0.2-0.6,0.2-0.6c0-0.1,0-0.1,0.1,0.1c0.2,0.6,0.4,0.9,0.5,0.6c0.1-0.1,0.1-0.2,0-0.2
				c0,0-0.2-0.4-0.3-0.7l-0.2-0.7l0-0.4c0-0.2,0-0.9,0-1.5l0-1.1l0.3,1.3c0.2,0.8,0.4,1.5,0.5,1.8c0.2,0.5,0.3,0.7,0.4,2.2
				c0.1,0.9,0.1,1,0.2,1.1c0.1,0.2,0.2,0.1,0.1-0.1c0-0.4,0.2-0.6,0.9-0.6c0.4,0,0.4,0,0.6-0.2c0.2-0.3,0.1-0.8-0.7-3
				c-0.2-0.7-0.5-1.2-0.5-1.3c0,0,0.1,0.2,0.3,0.4c0.3,0.6,1,1.4,1.2,1.6c0.4,0.2,0.4,0-0.1-1.1c-1.7-4.3-2.5-6.2-2.9-7
				c-0.1-0.2-0.5-1-0.8-1.6c-0.3-0.7-0.6-1.3-0.7-1.4c-0.1-0.2,0-0.1,0.2,0.1c0.4,0.4,0.9,1.3,1.1,1.9c0.1,0.2,0.3,0.5,0.3,0.7
				c0.2,0.4,5,9.1,5,9.2c0,0.1,0.1,0.1,0.1,0.2c0.2,0.2,1.2,2.2,1.4,2.6c0.2,0.6,0.3,0.8,0.5,1.1c0.1,0.2,0.3,0.4,0.3,0.5
				c0.1,0.2,0.2,0.3,0.3,0.3c0,0,0.5-0.4,1.1-0.8c0.6-0.5,1.1-0.9,1.1-0.9c0.1-0.1,0.1-0.1-0.1,0.4c-0.8,1.7-1.3,4.2-1.4,4.9
				c0,0.2-0.1,1,0,1c0.4-0.1,0.4-1.1,0.6-1.7c0.6-1,1.9-4.2,2.2-5.6c0.1-0.3,0.2-0.5,0.5-0.8c0.4-0.5,0.8-1.2,1-1.8
				c0.1-0.2,0.1-0.4,0.2-0.4c0.1,0,0.3,0.8,0.3,1.1c0,0.2,0,0.4-0.1,0.6c-0.2,0.7-0.1,0.8,0.2,0.3c0.3-0.4,0.4-0.7,0.3-1
				c0-0.2-0.2-0.9-0.4-1.5l-0.4-1.2l0-0.7l0-0.7l0.2-0.3c0.1-0.1,0.5-0.5,0.8-0.8c1.1-0.9,1.2-1.2,1.5-2.4c0.1-0.3,0.2-0.7,0.2-0.8
				l0.1-0.2l0.1,0.1c0.1,0.1,0.2,0.2,0.4,0.2c0.2,0.1,0.3,0.2,0.6,0.7c0.4,0.5,1.1,1.7,1.4,2.1c0.2,0.3,0.2,0.6,0,0.9
				c-1.3,2.3-2.2,4.1-2.1,4.3c0.1,0.1,0.4,0.1,0.7,0c0.1,0,0.1-0.1,0.1-0.2c-0.1-0.4-0.1-0.5,0.1-0.9c0.1-0.2,0.2-0.6,0.4-0.8
				c0.2-0.4,0.2-0.4,0.3-0.4c0.2,0,0.5-0.2,0.9-0.5c0.3-0.3,1.7-2.2,1.9-2.5c0.1-0.1,0.2-0.3,0.2-0.2c0,0,0,0.4,0,0.8
				c-0.1,1.2-0.2,1.7-0.5,2c-0.2,0.2-0.3,0.3-0.2,0.4c0,0,0.1,0,0.2,0c0.1,0,0.2,0,0.2,0.1c0,0.2-0.8,2.2-1.5,3.6
				c-0.6,1.3-1,1.8-1.4,1.9c-0.2,0.1-0.5,0.4-0.6,0.7c0,0.1-0.2,0.5-0.2,0.9c-0.2,0.8-0.3,1.1-0.5,1.3c-0.3,0.3-0.3,0.2-1.2-0.8
				c-0.5-0.5-0.9-1-0.9-1c0,0-0.1,0.2-0.1,0.4c0,0.3,0,0.4,0,0.3c0,0,0.1,0,0.1,0c0,0,0.3,0.4,0.5,0.9c0.3,0.5,0.6,1,0.7,1.3
				c0.1,0.2,0.3,0.5,0.3,0.5c0.1,0,0.4-0.1,0.5-0.3c0.2-0.2,0.3-0.6,0.6-1.6c0.4-1.1,0.6-1.5,1-1.9c0.3-0.2,0.4-0.4,0.9-1.3
				c0.2-0.4,0.7-1,1.5-1.8c0.8-0.8,2.8-2.6,2.9-2.6c0,0,0.1,0.2,0.3,0.3c0.1,0.2,0.6,0.7,1,1.2l0.8,0.9l-0.1,0.2
				c-0.2,0.4-0.9,2.1-2.1,4.6c-1.8,3.7-2.1,4.3-2,4.5c0,0.1,0.3-0.3,1.6-2.4c0.6-1,1.1-1.8,1.2-1.9c0.1-0.2,0.6-0.6,0.6-0.5
				c0,0.1-0.8,2.4-1.5,4.3c-0.3,0.7-0.4,1-0.3,0.9c0.3-0.4,1.3-2.8,1.9-4.4c0.4-1.2,0.7-1.8,1-2.2c0.1-0.1,0.5-0.9,0.8-1.6
				c1.3-2.7,1.4-2.6,0.8,0.6c-0.1,0.6-0.2,1.2-0.2,1.2c0,0.1,0,0.1,0.3,0.1c0.1,0,0.3,0,0.4-0.1c0.1,0,0.2,0,0.2,0
				c0,0-0.2,0.9-0.4,2c-0.8,3.3-1.1,5.3-1.2,6.8c0,0.9,0.1,1.4,0.3,1.5c0,0,0.2,0,0.3-0.1c0.1-0.1,0.4-0.1,0.7-0.1
				c1.8-0.1,2.4-0.4,3-1.2c0.5-0.8,0.9-1,2.4-1c0.6,0,1-0.1,1.1-0.1c0.2-0.1,0.1-0.3-0.4-1.3c-0.7-1.1-1.2-2.1-1.4-2.6
				c-0.2-0.5-0.4-1.3-0.5-1.8c0-0.2-0.1-0.3-0.1-0.3c-0.1,0-0.4,0.3-0.8,0.9c-0.8,1-1.4,2.1-2.5,4.2c-1,2-1.4,2.6-1.5,2.5
				c-0.1-0.1,0-1.1,0.2-2.7c0.6-3.3,1.8-8.7,2.7-11.5c0.2-0.5,0.3-1,0.4-1.2c0-0.1,0.1-0.3,0.1-0.2c0,0,0,0.5-0.1,1
				c-0.2,1.9-0.2,3-0.1,3c0.1,0,0.3-1,0.5-2.6c0.2-1.4,0.5-3.1,0.7-3.8l0.1-0.6l0,0.8c0,0.4,0,1.2,0.1,1.8l0.1,1l0-0.5
				c0-0.3,0-1.1-0.1-1.9c-0.1-1.4-0.1-1.7,0-1.5c0,0,0.1-0.1,0.1-0.2c0-0.2,0.1-0.4,0.2-0.5l0.1-0.2l0.2,0.2c0.1,0.1,0.5,0.8,1,1.6
				c0.9,1.6,1.3,2.2,2,3.2c0.6,0.8,1.8,2.3,2.4,2.8c0.2,0.2,0.4,0.4,0.4,0.4c0,0-0.5-0.3-1.1-0.8c-0.9-0.7-1.5-1.4-2.7-3.3
				c-0.7-1.1-0.8-1.3-0.9-1.3c-0.1,0-0.1,0,0,0.2c0.1,0.3,0.4,1.2,0.7,1.9l0.3,0.8l-0.1,0.2c-0.1,0.3-0.1,1.6,0.1,3.5
				c0.2,1.6,0.4,3.5,0.3,3.5c0,0-0.2-0.3-0.4-0.6c-0.4-0.7-0.9-1.2-1-1.2c-0.1,0-0.1,0-0.1,0.1c0,0.1,0.2,0.5,0.6,1.1
				c0.9,1.7,1.2,2.5,1.5,4.8c0.2,1.4,0.3,1.8,0.5,1.6c0.1-0.1,0-1-0.1-2.2c0-0.4-0.1-0.8-0.1-0.8c0-0.2,0.3,0.1,0.8,0.8
				c0.3,0.4,0.5,0.7,0.6,0.8l0.1,0.1l0-0.2c0-0.2,0-0.4,0-0.7c-0.1-0.6-0.2-1-0.5-1.5c-0.2-0.4-0.2-0.4-0.3-1.2
				c-0.1-1.1-0.2-1.9-0.6-3.3c-0.4-1.8-0.4-2.2-0.4-2.4c0-0.1,0-0.2,0.1-0.3c0.1,0,0.2,0.5,0.5,2.1c0.1,0.8,0.3,1.8,0.4,2.1
				c0.1,0.3,0.2,0.9,0.4,1.4c0.6,2.3,1,3.1,1.6,3.3c0.4,0.2,0.6,0.1,0.7-0.3c0-0.1,0.1-0.2,0.1-0.3c0,0,0.2,0,0.4,0.1
				c0.2,0.1,0.6,0.1,0.9,0.2c0.3,0,0.8,0.1,1,0.2c0.2,0,0.4,0.1,0.5,0.1c0,0,0-0.1-0.1-0.2c-0.4-0.5-1.2-1.2-2.3-2.1
				c-0.6-0.5-0.9-0.7-0.6-0.5c0.4,0.3,1.9,1.3,2.6,1.8c1,0.6,1.4,0.9,1.5,0.9c0,0,0.1-0.1,0.2-0.2c0.1-0.2,0.1-0.2,0-0.4
				c-0.2-0.7-0.8-1.4-1.4-1.8c-1.5-0.9-1.9-1.1-2-1.2c-0.1-0.1-0.2-0.5-0.4-0.8c-0.2-0.6-0.3-0.7-0.8-1.5c-0.3-0.4-0.7-1-0.9-1.2
				c-0.3-0.4-0.8-0.9-0.8-0.9c-0.1,0-0.2,0.4-0.2,1c0,0.3-0.1,0.7-0.1,0.8c0,0.2,0,0.2-0.1,0.1c0-0.1-0.1-0.5-0.2-0.9
				c-0.1-0.4-0.2-1-0.3-1.3c-0.1-0.3-0.1-0.5-0.1-0.5c0,0,1,0.7,1.3,0.9c0.8,0.8,2.1,2.5,2.7,3.8c0.2,0.4,0.3,0.5,0.6,0.6
				c0.2,0.1,0.4,0.2,0.5,0.3c0.3,0.2,0.4,0.3,0.7,0.4c0.4,0.1,0.5,0.3,1.3,1.1c0.9,1,1.4,1.5,1.4,1.5c0,0,0-0.1-0.1-0.2
				c-0.3-0.8-0.5-1.1-1.2-2.6c-0.5-0.9-0.9-1.7-0.9-1.8C53,29.4,52.6,29,51,27.5c-1.7-1.6-2.5-2.4-3.6-3.7c-1-1.1-1.5-1.8-2.4-3.2
				c-0.9-1.4-1.5-2.3-1.7-2.5c-0.2-0.2-0.2-0.2-0.5-0.2c-0.4,0-0.4,0-0.7,0.3c-1.3,1.2-3.2,3.3-4.1,4.5c-0.5,0.7-0.8,1.2-1,1.8
				c-0.1,0.3-0.2,0.5-0.2,0.5c0,0-0.9-1.3-1.4-2.2c-0.4-0.7-0.9-1.6-1.3-2.4c-0.6-1.1-1-1.9-1.5-2.6c-0.1-0.1-0.2-0.2-0.2-0.1
				c0,0.1-0.1,0.2-0.8,0.7c-0.3,0.2-0.7,0.5-0.9,0.7l-0.3,0.3l-0.1-0.2c-0.1-0.1-0.4-0.6-0.8-1.2c-0.7-1.1-1.2-1.8-1.6-2.4
				c-0.2-0.3-0.2-0.3-0.5-0.3c-0.4,0-0.8,0.1-1,0.3c-0.2,0.2-0.5,0.4-1.1,0.7c-0.6,0.3-1,0.6-1.3,1l-0.3,0.3l-0.2-0.3
				c-0.1-0.2-1.7-2.2-3.5-4.6c-2.6-3.5-3.3-4.3-3.4-4.4C16,8,15.6,8.2,14.8,9.2z M15.7,8.5c0,0,0.2,1.2,0.2,1.3
				c0,0.2-0.2,0.4-0.5,0.6c-0.1,0.1-0.2,0.2-0.2,0.2c0,0.1-0.3,0.2-0.7,0.3c-0.3,0-0.4,0-0.4,0c0,0,0.4-0.6,0.8-1.2
				C15.3,9,15.7,8.5,15.7,8.5z M17.4,9.7c0,0,0.8,1.2,1.1,1.7c0.2,0.4,0.3,0.7,0.2,0.7c-0.1,0-1.9-1.5-2-1.5
				c-0.1-0.1,0.3,0.2,0.9,0.6c0.2,0.2,0.4,0.3,0.4,0.3c0,0-0.1-0.1-0.1-0.3c-0.1-0.1-0.2-0.5-0.4-0.9C17.5,10,17.4,9.7,17.4,9.7z
				 M9,12.5c-0.1,0.1-0.1,0.1-0.1,0.1C8.9,12.5,8.9,12.5,9,12.5C9.1,12.3,9.1,12.4,9,12.5z M18.9,12.7c0.1,0,0.3,0.2,0.4,0.4
				c0.1,0.2,0.4,0.6,0.7,0.8c0.3,0.4,0.4,0.5,0.4,0.6c0,0.1,0,0.2,0,0.3c0.1,0.3,0,0.1-0.3-0.3c-0.3-0.6-0.9-1.4-1.2-1.7
				c-0.1-0.1-0.3-0.2-0.3-0.2C18.7,12.6,18.8,12.6,18.9,12.7z M18.4,12.9c0.1,0.1,0.2,0.3,0.2,0.4c0.1,0.1,0.1,0.1,0,0.1
				c-0.1-0.1-0.4-0.5-0.4-0.6C18.2,12.6,18.3,12.7,18.4,12.9z M8.8,13.7c0,0,0.2,0.4,0.4,1.1c0.1,0.4,0.2,0.7,0.2,0.7
				c0-0.1-0.2-0.3-0.3-0.4c-0.2-0.3-0.2-0.4-0.3-1C8.8,13.8,8.7,13.7,8.8,13.7z M8.7,15.8c0-0.1,0.3,0.7,0.6,1.5
				c0.1,0.5,0.3,1,0.4,1.2c0.1,0.3,0.2,0.6,0.2,1.3c0,0.5,0.1,1.1,0.1,1.2l0,0.3L10,21.2c-0.2-0.6-0.4-0.9-0.6-0.8
				c0,0-0.1,0-0.1-0.1c0-0.1-0.7-1.3-0.8-1.5c0-0.1,0.1,0.1,0.3,0.4c0.2,0.3,0.5,0.5,0.5,0.5c0.1-0.1,0.3-0.4,0.2-0.7
				c0-0.2,0-0.3-0.1-0.4c-0.1-0.1-0.2-0.6-0.5-1.7C8.8,16.2,8.7,15.8,8.7,15.8z M26.6,16.3c0.1,0,0.1,0,0,0.3
				c-0.1,0.2-0.1,0.3-0.4,0.4c-0.2,0.1-0.5,0.2-0.7,0.2c-0.9,0.2-1.4,0.4-1.5,0.5c-0.1,0.1-0.2,0.1-0.2,0.1c-0.1-0.1,0-0.3,0.2-0.3
				c0.1,0,0.2-0.1,0.3-0.1c0.2-0.2,1-0.6,1.6-0.8C26.3,16.4,26.6,16.3,26.6,16.3z M26.1,17.7c0.1,0,0.2,0,0.2,0
				c0,0.1-0.2,0.5-0.3,0.6c-0.1,0.1-0.4,0.4-0.8,0.7c-0.4,0.3-0.7,0.6-0.8,0.7c-0.1,0.1-0.1,0.1-0.1,0.1c0,0,0-0.1,0.1-0.1
				c0,0,0.1-0.1,0.1-0.2c0-0.1,0.1-0.2,0.2-0.2c0.2-0.1,0.5-0.2,0.7-0.4c0.1-0.1,0.5-0.8,0.5-1C25.9,17.7,26,17.7,26.1,17.7z
				 M32.1,18.5c0.1,0,0.2,0,0.1,0.1c0,0.2,0,0.2-0.5,0.5c-0.2,0.1-0.6,0.4-0.9,0.6c-0.2,0.2-0.5,0.4-0.5,0.4c0,0,0.1-0.1,0.2-0.3
				c0.3-0.4,0.9-0.9,1.2-1.1C31.9,18.6,32,18.5,32.1,18.5z M23,18.8c0,0-0.1,0.4-0.3,0.6c-0.3,0.4-0.2,0.2,0-0.2
				C22.9,19,23,18.8,23,18.8z M32.7,19.2C32.7,19.2,32.7,19.2,32.7,19.2c0.1,0.1-0.2,0.8-0.2,0.8c0,0,0-0.2,0.1-0.4
				C32.6,19.4,32.6,19.2,32.7,19.2z M33.1,20.1c0.2,0.4,0.3,0.9,0.4,1l0.1,0.2l-0.1-0.2c-0.2-0.3-0.6-1.1-0.6-1.4
				C32.7,19.2,32.8,19.4,33.1,20.1z M41.4,20.5c-0.1,0.3-0.4,1.1-0.6,1.8c-0.2,0.7-0.4,1.2-0.4,1.2c0,0,0-0.4,0.1-0.8
				c0.1-0.9,0.3-1.6,0.6-2.1C41.6,19.9,41.7,19.9,41.4,20.5z M22,20.8l0.1-0.2l0.1,0.3c0,0.1,0.2,0.6,0.4,1.1c0.4,1,0.4,1.1,0.3,1.6
				c-0.1,0.7-0.8,2.3-1,2.6c-0.1,0.1-0.1,0,0.3-1.1c0.4-1,0.4-1.3,0.4-1.9c0-0.6-0.1-1.2-0.4-1.7C21.9,21,21.9,21,22,20.8z M9.6,21
				c0,0,0.3,0.8,0.5,1.3c0.1,0.3,0.1,0.5,0.2,0.9c0,0.2,0,0.5,0,0.5c0,0-0.2-0.6-0.4-1.3C9.7,21.6,9.6,21,9.6,21z M0.6,21.3
				c0.1,0,0.1,0-0.1,0.2c-0.1,0.1-0.5,0.6-0.9,1.1c-0.4,0.5-0.7,0.8-0.8,0.8c-0.1,0,0.1-0.2,0.5-0.8c0.4-0.5,0.7-0.9,0.9-1
				C0.4,21.4,0.5,21.3,0.6,21.3z M21.5,22.4c0-0.1,0,0,0,0.2c0,0.3-0.3,1.1-0.3,1.1c0,0,0-0.3,0.1-0.6
				C21.4,22.8,21.5,22.4,21.5,22.4z M17.6,25.5c0,0,0.1,0,0.2,0.1c0.1,0,0.2,0.1,0.3,0.1l0.2,0L18.1,26c-0.1,0.1-0.1,0.2-0.1,0.2
				c0,0-0.1-0.2-0.2-0.3C17.6,25.7,17.5,25.5,17.6,25.5z M50.2,28.2c0.1,0,1,0.7,1.2,1c0.1,0.2,0.5,0.6,0.7,0.9l0.5,0.6l-0.3-0.4
				c-0.5-0.5-1.6-1.6-1.8-1.9C50.3,28.3,50.2,28.2,50.2,28.2z M49.5,31.8C49.5,31.8,49.5,31.8,49.5,31.8c-0.1,0-0.1-0.1-0.1-0.1
				C49.3,31.6,49.4,31.7,49.5,31.8z"/>
		</g>
	</g>
</g>
<g id="eaudouce">
	<path class="st3" d="M20,39c10.9,0.5,18.3-7.4,18.8-18.2c0.5-10.9-8-20-18.9-20.5L20,39"/>
	<path class="st4" d="M27.3,9.8c-0.6,0.5-0.9,1.5-0.1,2c0.8,0.4,2.5,1.2,2.7,2.1c0.2,0.9-3,2.8-4.6,3.6c-1.6,0.9-4.6,3-4.9,3.6
		c-0.3,0.6,0.8,1.9,4.2,3.4c3.4,1.3,3.4,3.2,3.2,4.4c-0.1,1.2-7.6,2.8-7.8,3c-0.1,0.1-0.1,6.9,0,7c0.1,0.2,5.2-0.2,8.3-1.9
		c3.8-2.3,6.2-4.2,6.1-4.5c-0.2-0.5-0.9-2.8-1-3.8c-0.1-1.1-2-3.3-3-4c-1.1-0.8-5.7-2-6.7-3.1c-0.5-0.6,5-2.9,6.9-4.2
		s2.1-2.6,2.1-3.3c-0.1-0.7-3.1-2.1-3.9-2.5c-0.7-0.4-0.9-0.8-0.8-1.1c0.1-0.3,4-1.8,3.9-1.9C31.8,8.4,27.7,9.3,27.3,9.8z"/>
	<g>
		<g>
			<line class="st5" x1="30.8" y1="31.2" x2="31.6" y2="31.2"/>
			<line class="st6" x1="29.2" y1="31.2" x2="30.3" y2="31.2"/>
			<line class="st5" x1="28.1" y1="31.2" x2="29" y2="31.2"/>
		</g>
	</g>
	<g>
		<g>
			<line class="st5" x1="29.3" y1="25.5" x2="30.1" y2="25.5"/>
			<line class="st7" x1="28.9" y1="25.5" x2="29.2" y2="25.5"/>
			<line class="st5" x1="28.1" y1="25.5" x2="28.9" y2="25.5"/>
		</g>
	</g>
	<g>
		<g>
			<line class="st5" x1="30.8" y1="15.9" x2="31.6" y2="15.9"/>
			<line class="st8" x1="30.5" y1="15.9" x2="30.7" y2="15.9"/>
			<line class="st5" x1="29.6" y1="15.9" x2="30.4" y2="15.9"/>
		</g>
	</g>
	<g>
		<g>
			<line class="st5" x1="24.9" y1="36.6" x2="25.7" y2="36.6"/>
			<line class="st9" x1="23.7" y1="36.6" x2="24.5" y2="36.6"/>
			<line class="st5" x1="22.8" y1="36.6" x2="23.6" y2="36.6"/>
		</g>
	</g>
	<g>
		<g>
			<line class="st5" x1="23.2" y1="32.8" x2="24" y2="32.8"/>
			<line class="st9" x1="22.2" y1="32.8" x2="22.9" y2="32.8"/>
			<line class="st5" x1="21.2" y1="32.8" x2="22" y2="32.8"/>
		</g>
	</g>
	<g>
		<g>
			<line class="st5" x1="25.2" y1="23.6" x2="26" y2="23.6"/>
			<line class="st8" x1="24.9" y1="23.6" x2="25.1" y2="23.6"/>
			<line class="st5" x1="24.1" y1="23.6" x2="24.8" y2="23.6"/>
		</g>
	</g>
	<path class="st10" d="M19.7,1l0.2,9c0,0,2.7-1.8,2.2-1.3c-0.5,0.4,1.7-1.4,1.6-1.5c-0.1-0.1,1.9-0.9,1.9-1c0-0.1,1.7-0.2,1.7-0.2
		s0.2-0.3,1.6,1l2.2,1.7l0.6-0.1L33.1,9l1.3,0.4l1.6,0.8L33,6c0,0-1.8-1.8-3-2.3S23.2,0.9,23.4,1c0.3,0.1-2.9-0.5-2.9-0.5L19.7,1z"
		/>
	<path class="st11" d="M36,10.1c-1.3-1-2.4-1.1-2.4-1.1s-1.5-0.7-1.7-0.3C31.6,9,28.6,6,27.5,6c-1,0-2.8,0.5-4,1.8S20,10.1,20,10.1
		V1"/>
</g>
<g id="Calque_5">
</g>
<g id="mer" class="st12">
	<g class="st13">
		<defs>
			<path id="SVGID_3_" d="M19.7,39.8v-39c10.8,0,19.6,8.8,19.6,19.6c0,10.8-8.8,19.6-19.6,19.6"/>
		</defs>
		<clipPath id="SVGID_4_">
			<use xlink:href="#SVGID_3_"  style="overflow:visible;"/>
		</clipPath>
		<path class="st14" d="M19.6,39.1v-39c10.8,0,19.6,8.8,19.6,19.6c0,10.8-8.8,19.6-19.6,19.6"/>
		<path class="st15" d="M38.6,19.5c0.1-0.6-1.4,0.3-2-0.6c-0.6-0.8-2.8-5.2-4-6.3c-1.2-1.1-3.2-2.5-4.8-2.2
			c-1.7,0.3-3.1,1.6-3.9,2.1c-0.8,0.5-1,1.2-1,1.2s1.2,0.1,1.6-0.3c0.4-0.4,0.8-0.4,0.8,0.1s-0.2,1.6,0.4,1.2s1.4-1.7,2-1.4
			c0.6,0.3,0.3,0.9,0.4,1.4c0.1,0.5,0.1,0.7,0.9,0.3c1.1-0.5,2.2-0.7,3-0.5c1.1,0.2,3.2,3.7,3.5,4c0.2,0.1,1.1,1.3,1.9,1.7
			C39.2,21,38.5,19.8,38.6,19.5z"/>
		<path class="st16" d="M39.1,19.7c0,0-1,0.6-1.4,0.4c-0.4-0.1-0.7,0.1-2.1-1.6c-1.3-1.7-2.3-3.9-3.5-4.1c-1.3-0.2-3.1-0.1-3.3,0.5
			c-0.2,0.5,0.4,0.4,0,1.6c-0.4,1.2-0.9,3.1-1.6,3.2c-0.7,0.1-1.5,0.6-2.1,0.4c-0.7-0.1-2.3-0.1-3.1,0c-0.9,0.1-2.6,1.6-3.5,1.7
			c-0.9,0.1-2.5-0.2-3.6-0.6c-1.1-0.4-2.8-0.3-3.5,0.1c-0.8,0.4-2.3,1-2.3,1.3c0,0.3,0.3,2.4,0.3,2.4s1-0.6,1.7-0.9
			c0.8-0.3,2.3-1.1,2.8-1.1s2.5-0.4,3.4,0.1s1.8,2,2.8,1.1c1.1-0.9,2.7-1.2,3.8-1.2c1.1,0,1.6,1.5,3,1.2c1.4-0.3,3.5-1.9,4.9-1.4
			c1.4,0.5,2.6,1,3.8,0.9c0,0,2-0.7,2.5-0.6c0.4,0.1,0.4,0.1,0.4,0.1S39.3,20.3,39.1,19.7z"/>
		<path class="st14" d="M38.6,23.8c0,0-0.8-0.4-1.5-0.2c-0.7,0.2-1.3,0.5-2,0.4c-0.7-0.1-2.8-1.4-4.5-0.9c-1.7,0.5-3.2,1.3-4,1
			c-0.8-0.3-1.4-0.8-2.4-0.8c-1,0.1-3.9,0.7-4.6,1c-0.8,0.3,0,1,2.5,1.8c1.4,0.4,2.7,1.4,3.8,0.8c1.1-0.6,2.4-1,3.8-0.7
			c1.4,0.3,2.5,1.8,3.3,1.1c0.8-0.7,1.3-0.4,2-0.7c0.7-0.3,2.4-0.4,2.8-0.4c0.4,0,0.4,0,0.4,0h-0.4L38.6,23.8z"/>
		<path class="st15" d="M22.6,26.6c0.4-0.1-0.3-0.3-0.3-0.3L21,25.6c0,0-0.5-0.9-1.4-0.5s-0.5,1.5,0.5,1.5
			C21.2,26.6,22.4,26.6,22.6,26.6z"/>
		<path class="st17" d="M37.4,25.9c0,0-3.1,0.1-4.3,0.6c-1.2,0.5-0.9,1.1-1.8,0.7c-0.9-0.4-2.8-1.5-3.8-1.4c-1,0.1-2.5,1.2-3.5,1
			c-1-0.2-3.5-0.9-4.2-1c-0.7-0.1-0.3,5.3,0.7,5.3c2.4,0,4-2.8,5-2.2c1.1,0.6,1.2,1.7,3.1,1.1c1.9-0.6,2.5-1.8,3.8-1.3
			c1.3,0.4,1.3,0.4,1.3,0.4l1.9,1.3L37.4,25.9z"/>
		<path class="st16" d="M33.8,33.3c0,0-2.1-2.3-3.2-2.2c-1.2,0.1-2.9,2.1-4,2c-1.1-0.1-2.7-0.7-3-1c-0.3-0.3-1.8,0.2-2.4,0.4
			s-0.7-0.4-1.6-0.4c0,0-0.3-0.4,0-1c1-2,4.9-2.5,6-2c1.1,0.5,1.3,1.7,2.2,1.3c0.9-0.4,3.4-1.8,3.9-1.8c0.5,0,3.9,1.5,4,1.8
			C35.7,30.7,33.8,33.3,33.8,33.3z"/>
		<path class="st14" d="M34.1,32.8c0,0-4,4-4.7,4.4c-0.7,0.4-6.2,2.1-8.1,1.6s-7.5-4.5-8.1-5.3c-0.6-0.8-1-1.9-1-1.9s2-0.6,2.8-0.4
			c0.8,0.2,1.7,1.3,2.9,1.3c1.1-0.1,2.7-0.5,3.2-0.8c0.5-0.2,1.5-0.5,2.4-0.2c0.9,0.2,2.7,1.8,3.9,1.3s2.6-1.7,3.6-1.6
			C31.9,31.3,34,32.2,34.1,32.8z"/>
	</g>
</g>
<g id="cercle_separation">
	<line class="st4" x1="16.1" y1="38.2" x2="23.8" y2="39.1"/>
	<g>
		<path class="st18" d="M39.1,21.7c-1,10.6-10.4,18.4-21,17.4C7.5,38.1-0.3,28.6,0.7,18c1-10.6,10.4-18.4,21-17.4
			C32.4,1.7,40.2,11.1,39.1,21.7z"/>
	</g>
	<line class="st19" x1="19.9" y1="0.9" x2="19.9" y2="39.2"/>
</g>
</svg>
