<?xml version="1.0" encoding="utf-8"?>
<!-- Generator: Adobe Illustrator 25.0.1, SVG Export Plug-In . SVG Version: 6.00 Build 0)  -->
<svg version="1.1" id="Calque_1" xmlns="http://www.w3.org/2000/svg" xmlns:xlink="http://www.w3.org/1999/xlink" x="0px" y="0px"
	 viewBox="0 0 40 40" style="enable-background:new 0 0 40 40;" xml:space="preserve">
<style type="text/css">
	.st0{fill:#88C4C4;}
	.st1{fill:#C3E5E0;}
	.st2{fill:#4FADAD;}
	.st3{fill:none;}
	.st4{fill:none;stroke:#4FADAD;stroke-width:0.3904;stroke-miterlimit:10;}
	.st5{fill:#038B8B;}
	.st6{fill:none;stroke:#4FADAD;stroke-width:0.3904;stroke-linecap:round;stroke-linejoin:round;stroke-miterlimit:10;}
	.st7{fill:none;stroke:#EBFFFB;stroke-width:0.1952;stroke-miterlimit:10;}
	.st8{fill:none;stroke:#EBFFFB;stroke-width:0.1952;stroke-miterlimit:10;stroke-dasharray:0.588,0.294;}
	.st9{fill:none;stroke:#EBFFFB;stroke-width:0.1952;stroke-miterlimit:10;stroke-dasharray:0.8757,0.4379;}
	.st10{fill:none;stroke:#EBFFFB;stroke-width:0.1952;stroke-miterlimit:10;stroke-dasharray:0.8863,0.4432;}
	.st11{fill:none;stroke:#EBFFFB;stroke-width:0.1952;stroke-miterlimit:10;stroke-dasharray:0.1914,9.570041e-02;}
	.st12{fill:none;stroke:#EBFFFB;stroke-width:0.1952;stroke-miterlimit:10;stroke-dasharray:0.1914,9.568089e-02;}
	.st13{fill:none;stroke:#038B8B;stroke-width:0.1952;stroke-linecap:round;stroke-linejoin:round;stroke-miterlimit:10;}
	.st14{fill:#04706D;}
	.st15{fill:#EBFFFB;}
	.st16{fill:none;stroke:#038B8B;stroke-width:0.7808;stroke-miterlimit:10;}
</style>
<path class="st0" d="M39.4,19.9c0-0.1,0-0.1,0-0.2c-0.1-1-1.1-6-1.3-6.6V13c-0.2-0.5-1.2-2-1.2-2s-1.7-0.2-2.7-0.4
	c-1-0.1-3.3-0.8-4-1c-0.7-0.3-1.8-0.1-2.4,0C27,9.7,24,9.9,23.1,10.1c-0.9,0.2-3,0.5-3.7,0.6s-1.7,0.3-3,0.4
	c-1.3,0.2-2.2,0.7-4.4,0.7c-0.9,0-1.7-0.3-1.9-0.6s-2.4-0.6-3.7-1s-1.9,0.3-2.7,0.9c-0.7,0.5-1.1,0.8-1.3,1.1l0,0
	c-0.1,0.3-0.8,2.6-1.3,4.2c-0.1,0.7-0.1,1.3-0.2,2c-0.1,0.9-0.1,1.8-0.1,2.7c0.1,1.3,0.3,2.7,0.4,3.4c0,0.1,0.1,0.3,0.1,0.4
	c0.5,1.6,2.3,5.4,2.7,6V31c0.2,0.3,1,1.3,1.8,2.3c0.8,0.9,1.8,1.8,2.8,2.5c2.1,1.1,6.4,3.1,6.8,3.2l0,0c0.6,0.1,5.2,0.4,6.2,0.5
	c0.8-0.1,1.6-0.2,2.4-0.3c0.8-0.2,1.6-0.4,2.3-0.6c0.3-0.1,0.6-0.2,0.9-0.3c1.5-0.6,3.5-1.8,4.2-2.3l0.1-0.1
	c0.7-0.5,2.5-2.1,3.6-3.4c0.2-0.2,0.3-0.4,0.5-0.6l0,0l0,0c1.1-1.5,2.4-4.3,2.8-5.3c0-0.1,0.1-0.2,0.1-0.3
	C38.8,24.7,39.4,20.7,39.4,19.9z"/>
<g>
	<path class="st1" d="M5.5,32.7C5.5,32.7,5.5,32.8,5.5,32.7C5.5,32.8,5.5,32.7,5.5,32.7L5.5,32.7z"/>
	<path class="st1" d="M34,33c0.7-0.6,3.7-6.3,3.7-6.3l1-4.1l0.2-2.6c0,0-4.2-0.4-5.3-0.3s-4.8-0.1-5.6-0.4c-0.8-0.2-9.5-0.4-9.9-0.4
		c-0.3,0.1-2.8-0.1-3.1-0.1s-2.7-0.4-3.2-0.6c-0.5-0.3-2.9-0.4-4.1-0.8s-2.3-0.1-3.4-0.3c-0.9-0.4-2.3,1-3.3,1.8
		c0,2,0.1,3.6,0.5,5.7c0.9,2.1,1.9,5.4,3.6,7.6c0,0,0.2,0.2,0.7,0.7c0,0.1,0.2,0.2,0.3,0.4c0.6,0.5,1.6,1.4,2.9,2.4
		c0.7,0.4,1.5,1.2,2.3,1.5c3,1.1,4.2,1.5,4.6,1.5l2.4,0.5c-0.4,0,2.5,0.4,3.8-0.2c2-0.2,3.3-0.6,5.1-1.4c2.4-1.3,2.6-1.5,2.7-1.6
		s2.3-1.7,2.4-1.8"/>
</g>
<path class="st2" d="M4.1,30.7c0,0,1.7,3.3,4,4.4s7,3.8,8.7,3.8c1.8,0,7.2,0,8-0.2s3.4-1.9,5-2.5s5.3-3.4,5.3-4.1
	c0-0.8,0.8-1.6,0.8-1.6H3.8L4.1,30.7z"/>
<line class="st3" x1="22.3" y1="12.5" x2="25.9" y2="13"/>
<path class="st4" d="M33.9,6.6c-0.5-0.5-1-0.8-1-0.8c-1.2,0-2.4,0.1-3.1,0.3c-0.6,0.2-3.6,1.7-4.7,1.6c-1.1-0.1-3-0.9-3.8-1.6
	C20.4,5.4,18,5,17.2,4.9c-0.8-0.1-4.2,1.7-5,1.7S8.5,7.4,8.1,7.4s-1.7-1-2.2-1"/>
<path class="st5" d="M28.3,30.7c0.6-0.6-4.8-1.6-6.3-2.6s-2.9-2.8-2.9-3.5s0.3-1.5,1-1.7s3.1-0.8,3.8-1.1s2.4-1.2,2.4-1.6
	s-0.4-1.2-1-1.8s-1.9-1.5-2-1.8s-0.1-1,0.4-1.1s1.6-0.4,1.7-0.7c0.2-0.3-0.5-1.5-1-1.7s-2-0.9-2.3-1.5c-0.2-0.6-0.4-0.8,0-1.1
	s1-0.3,1-0.3s-2.1,0-2.4,0s-2.8,0.6-2.9,1s0.2,0.9,0.7,1.2s1.6,1.2,1.7,1.3s0.6,0.6-0.2,0.8c-0.8,0.2-3.2,0.8-3.4,0.9
	c-0.3,0.1-0.8,0.4-0.7,0.7c0.2,0.3,1.4,1.1,2,1.2c0.6,0.1,2.2,0.7,2.4,0.8c0.3,0.1,0.8,0.5,0.8,0.5s-0.3,0.7-1.3,0.8
	c-1,0.1-5.3,1.2-6,1.4c-0.7,0.3-2.9,0.9-3,1.6c-0.1,0.6,0.1,1.6,0.7,2.2c0.6,0.6,1.9,2.3,2.1,2.9S9,29.6,8.8,30.8"/>
<line class="st3" x1="13.8" y1="38.2" x2="21.5" y2="39.1"/>
<path class="st6" d="M5.7,10.2c1.9-0.4,3.3-1.3,5-1.3s4.1-0.5,5.5,0c1.5,0.5,3.5,0.8,3.9,0.5c0.4-0.2,2.5,0.7,2.5,0.7
	c0.8-0.7,2.1-2.3,2.3-2.3c0.3,0,0.9,0,1.3-0.2"/>
<g>
	<g>
		<line class="st7" x1="14.1" y1="26.9" x2="14.9" y2="26.9"/>
		<line class="st8" x1="15.2" y1="26.9" x2="15.9" y2="26.9"/>
		<line class="st7" x1="16.1" y1="26.9" x2="16.9" y2="26.9"/>
	</g>
</g>
<g>
	<g>
		<line class="st7" x1="11.9" y1="23.1" x2="12.7" y2="23.1"/>
		<line class="st9" x1="13.2" y1="23.1" x2="14.3" y2="23.1"/>
		<line class="st7" x1="14.5" y1="23.1" x2="15.3" y2="23.1"/>
	</g>
</g>
<g>
	<g>
		<line class="st7" x1="16.9" y1="28.9" x2="17.7" y2="28.9"/>
		<line class="st10" x1="18.1" y1="28.9" x2="19.2" y2="28.9"/>
		<line class="st7" x1="19.4" y1="28.9" x2="20.2" y2="28.9"/>
	</g>
</g>
<g>
	<g>
		<line class="st7" x1="18.4" y1="16.4" x2="19.2" y2="16.4"/>
		<line class="st11" x1="19.3" y1="16.4" x2="19.6" y2="16.4"/>
		<line class="st7" x1="19.6" y1="16.4" x2="20.4" y2="16.4"/>
	</g>
</g>
<g>
	<g>
		<line class="st7" x1="21.1" y1="19.8" x2="21.9" y2="19.8"/>
		<line class="st12" x1="22" y1="19.8" x2="22.2" y2="19.8"/>
		<line class="st7" x1="22.3" y1="19.8" x2="23" y2="19.8"/>
	</g>
</g>
<g>
	<g>
		<line class="st7" x1="16.7" y1="21.6" x2="17.5" y2="21.6"/>
		<line class="st8" x1="17.8" y1="21.6" x2="18.6" y2="21.6"/>
		<line class="st7" x1="18.7" y1="21.6" x2="19.5" y2="21.6"/>
	</g>
</g>
<g>
	<g>
		<line class="st7" x1="21.4" y1="13.8" x2="22.2" y2="13.8"/>
		<line class="st8" x1="22.5" y1="13.8" x2="23.2" y2="13.8"/>
		<line class="st7" x1="23.4" y1="13.8" x2="24.2" y2="13.8"/>
	</g>
</g>
<line class="st13" x1="4.4" y1="30.7" x2="35.9" y2="30.7"/>
<path class="st14" d="M8.6,30.8c0.1,0.5,0.4,1.5,1.3,2.9c0.9,1.4,1,2.1,1.7,2.9c0.7,0.8,0.5,1.3,2.4,1.7s5.5,1.4,7.1,1.1
	s4.3-0.8,4.4-1c0.2-0.2,1.2-1.2,1.7-1.7c0.4-0.5,0.5-0.9,0.8-1.9s0.2-4.1,0.2-4.1L8.6,30.8z"/>
<path class="st15" d="M18.9,33.9c-0.1-0.2-0.2-0.4-0.3-0.5c-0.2-0.2-0.4-0.4-0.7-0.5c-0.2-0.1-0.5-0.2-0.7-0.2l0,0
	c0-0.1,0-0.2,0-0.3c0,0,0,0.1-0.1,0.1c0-0.1-0.1-0.2-0.1-0.2v0.1c0-0.1-0.1-0.1-0.2-0.2c0,0.1,0,0.1,0,0.2c-0.1-0.1-0.3-0.1-0.4-0.2
	c0,0.1,0,0.1,0,0.2c-0.1,0-0.1-0.1-0.2-0.1v0.1c-0.1,0-0.2,0-0.3-0.1v0.1c-0.1,0-0.1,0-0.1-0.1v0.1c-0.1,0-0.1,0-0.2,0v0.1
	c-0.1,0-0.1,0-0.2,0c0.1,0.1-0.1,0.1-0.2,0.2c-0.1,0-0.2,0.1-0.3,0.1c0.1,0.2,0,0.2-0.1,0.3c-0.1,0.1-0.2,0.1-0.2,0.2
	c-0.1,0.1-0.2,0.2,0,0.2c0.1,0,0.2,0,0.3,0c-0.2,0.1-0.3,0.2-0.5,0.1l0,0l0,0l0,0c-0.1,0-0.2-0.1-0.3-0.1c-0.1-0.1-0.3-0.1-0.5-0.1
	c-0.1,0-0.5,0-0.6,0c0.1,0.1,0.4,0.1,0.5,0.2c0.1,0.1,0.2,0.3,0.4,0.3c-0.1,0.1-0.3,0.2-0.3,0.3s-0.1,0.2-0.2,0.2
	c0.2,0,0.3,0,0.5-0.1s0.3-0.1,0.5-0.2l0,0h0.1c0.1,0,0.2,0,0.4,0l0,0l0,0c-0.1,0.1-0.3,0-0.2,0.2c0.1,0.1,0.2,0.1,0.2,0.2
	c0,0.1,0,0.2,0.1,0.2s0.2-0.1,0.3-0.1c0,0.1-0.1,0.1-0.2,0.2c0.1,0,0.1,0,0.2,0c0,0.1-0.1,0.1-0.1,0.2c0.1,0,0.3-0.1,0.4-0.2
	c0.1-0.1,0.2-0.1,0.2-0.2c0.2,0,0.4,0,0.7,0c0.2,0,0.4,0,0.6,0l0,0v0.1c0,0.1,0.1,0.1,0.1,0.1s0,0,0.1,0c0,0,0,0.1-0.1,0.1
	c0.2-0.1,0.7-0.3,0.7-0.5C18.3,34.3,18.6,34.1,18.9,33.9z"/>
<path class="st0" d="M23.7,37.3c-0.1-0.2-0.1-0.3-0.2-0.5c-0.1-0.1-0.3-0.2-0.4-0.2c-0.3-0.1-0.6-0.4-0.6-0.7c0-0.1,0-0.2,0-0.3
	c0-0.2-0.1-0.5-0.4-0.6c0.1,0,0.3,0.1,0.4,0.1c0.1,0.1,0.2,0.2,0.2,0.4c0,0.1-0.1,0.3-0.1,0.4c0,0.2,0.2,0.3,0.4,0.4
	c0.2,0.1,0.4,0.1,0.5,0.3s0.1,0.4,0.2,0.5c0.1,0.4,0.5,0.5,0.8,0.7c-0.2-0.1-0.3-0.2-0.5-0.4c-0.1-0.2-0.2-0.4-0.2-0.6
	c0-0.1,0-0.2,0-0.3s-0.1-0.3-0.2-0.3c-0.2-0.2-0.5-0.2-0.7-0.4c-0.2-0.3,0-0.7-0.2-0.9c-0.1-0.2-0.4-0.2-0.5-0.4s0-0.4,0.1-0.6
	c0.1-0.1,0.1-0.3,0.2-0.4c0.1,0.3-0.1,0.7,0,0.9c0.1,0.1,0.2,0.2,0.3,0.2c0.2,0.1,0.4,0.3,0.4,0.5c0,0.1-0.1,0.3,0,0.4
	c0.1,0.2,0.3,0.2,0.4,0.3c0.3,0.1,0.6,0.5,0.6,0.9c0,0.2-0.1,0.4,0,0.6c0,0.3,0.2,0.5,0.4,0.6c-0.2-0.1-0.2-0.3-0.2-0.5
	s0.1-0.4,0.2-0.5c0.1-0.5-0.1-1-0.5-1.3c-0.2-0.1-0.3-0.1-0.4-0.3s-0.1-0.4,0-0.7c0.1-0.2,0.1-0.5,0-0.7c-0.1-0.1-0.2-0.2-0.2-0.3
	s0-0.2,0-0.3c0-0.2-0.1-0.3-0.2-0.4c0.2,0,0.3,0.2,0.4,0.3c0,0.1,0,0.2,0.1,0.3s0.2,0.2,0.3,0.2c0.2,0.2,0.3,0.4,0.3,0.7
	c0,0.1-0.1,0.3,0,0.4l0.1,0.1c0.3,0.2,0.5,0.5,0.6,0.8s0.1,0.7-0.1,1c-0.1,0.2-0.2,0.3-0.2,0.5c-0.1,0.2,0,0.4,0.1,0.5
	c0-0.2,0-0.3,0.2-0.5c0.1-0.1,0.3-0.2,0.4-0.3c0.3-0.3,0.4-0.8,0.3-1.3c0-0.1-0.1-0.2-0.1-0.3c-0.1-0.1-0.3-0.2-0.4-0.3
	S25,34.7,25,34.5s0.1-0.3,0.3-0.4c-0.1,0.1-0.1,0.2-0.1,0.3s0.1,0.2,0.1,0.2c0.3,0.3,0.7,0.4,0.8,0.8c0,0.1,0.1,0.2,0.1,0.4
	c0,0.5-0.3,1-0.7,1.4c-0.1,0.1-0.3,0.2-0.4,0.4c0,0.1,0,0.4-0.2,0.4c-0.1,0-0.1,0-0.1-0.1c-0.1,0-0.1,0-0.2,0
	C24.1,37.8,23.9,37.6,23.7,37.3z"/>
<path class="st2" d="M8.6,24c-0.1,0.1-0.2,0.1-0.2,0.3v0.1l0,0H8.3c-0.1,0.1-0.2,0.3-0.3,0.5c-0.1,0.3-0.3,0.8-0.4,1.2
	c0,0.1,0,0.1,0,0.1s0,0.1,0.1,0.1l0,0v0.1c-0.1,0.3-0.2,0.6-0.2,0.9c0,0.2-0.1,0.5-0.1,0.6l0,0c0,0,0-0.3,0.1-0.5c0-0.1,0-0.2,0-0.2
	s0,0.1-0.1,0.3C7.1,27.7,7,28,7,28.5c0,0.1,0,0.2,0,0.3c0,0.3-0.1,0.7-0.1,1c0,0.1,0,0.1,0,0.1v0.2l0,0l0,0V30
	c-0.1-0.7-0.1-1.3,0-1.9c0-0.2,0-0.3,0.1-0.4c0-0.1,0-0.1,0-0.2l0,0c0,0,0.1-0.2,0.1-0.4c0-0.1,0.1-0.2,0.1-0.2l0,0c0,0,0,0-0.1,0.1
	s-0.2,0.3-0.3,0.6v0.1c0,0.1-0.1,0.3-0.2,0.4l0,0c0,0,0-0.3,0.1-0.5c0-0.2,0.1-0.4,0.1-0.6v-0.1l0,0c0,0,0,0,0.1,0v-0.1
	C7,26.5,7.1,26,7.2,25.5c0.1-0.2,0.1-0.2,0-0.2l0,0v-0.1c0.1-0.2,0.1-0.3,0.2-0.4v-0.1c0-0.1,0-0.1-0.1,0c0,0-0.1,0.2-0.2,0.5v0.1
	l0,0H7l0,0c-0.1,0.2-0.3,0.7-0.4,1.4c0,0.1,0,0.1,0,0.2c0,0,0,0,0,0.1c0,0,0.1,0,0.1,0.1c0,0,0,0,0,0.1c-0.1,0.7-0.2,1.4-0.2,1.9
	c0,0.1,0,0.1,0,0.1s0-0.3-0.1-0.5c0-0.4,0-0.7,0-1.2c0-0.2,0-0.2,0,0c-0.1,0.5-0.1,1.1,0,1.8c0,0.1,0.1,0.3,0.1,0.4v0.1
	c0,0.1,0,0.2,0,0.3l0,0V30c0-0.1,0-0.1,0-0.2l0,0l0,0v-0.1c-0.2-1-0.3-1.7-0.3-2.4c0-0.3,0.1-0.7,0.1-0.9v-0.1c0,0,0,0-0.1,0.1
	c-0.2,0.5-0.2,1.7,0,3c0,0.1,0.1,0.3,0.1,0.5c0,0.1,0,0.2,0,0.2l0,0L6.2,30l-0.1-0.1c0,0,0,0,0.1,0.1c0.1,0.2,0.2,0.3,0.2,0.4v0.1
	l0,0l0,0l0,0l0,0c0,0,0,0,0.1,0l0,0l0,0v-0.1l0,0l0,0l0,0l0,0l0,0l0,0c0.1,0,0.1,0,0,0l0,0c0,0,0,0,0-0.1v-0.1l0,0c0,0,0,0,0,0.1
	s0,0.1,0,0.1h0.1v-0.2l0,0c0,0,0,0,0-0.1s0-0.1,0-0.1l0,0c0,0,0,0.2,0,0.3l0,0l0,0h0.1c0,0,0,0,0-0.1s0-0.2,0-0.2s0,0.1,0,0.2
	s0,0.2,0,0.2l0,0l0,0h0.1c0,0,0,0,0-0.1s0-0.1,0-0.1l0,0l0,0c0,0,0,0,0-0.1l0,0l0,0l0,0l0,0l0,0l0,0l0,0c0-0.1,0-0.1,0-0.2
	c0,0,0-0.1,0.1-0.2c0-0.1,0-0.1,0-0.1s0,0-0.1,0.1l-0.1,0.1c0,0,0.1-0.7,0.2-0.9C7.8,28.2,8,27.5,8.3,27c0.1-0.2,0.3-0.4,0.4-0.6
	l0,0l0,0c-0.2,0.2-0.4,0.5-0.7,1c-0.2,0.5-0.4,1.1-0.6,1.8c0,0.1,0,0.1,0,0.1c0-0.1,0-0.3,0.1-0.5C7.6,28.2,7.8,27.6,8,27
	c0.1-0.2,0.1-0.3,0.1-0.3h0.1c0,0,0,0,0-0.1c0.1-0.4,0.3-0.8,0.6-1L9,25.4v-0.1l0,0c0,0,0,0,0-0.1c0.1,0,0.2-0.2,0.3-0.2
	c0,0,0,0,0.1-0.1c0-0.1,0-0.1-0.1-0.1S9.1,25,8.9,25.1l-0.1,0.1l0,0H8.7c0,0,0,0-0.1,0.1c-0.2,0.3-0.5,0.7-0.7,1.2
	c0,0.1,0,0.1,0,0.1s0,0.1,0.1,0.1l0,0v0.1c-0.2,0.4-0.3,0.9-0.4,1.3c0,0.1-0.1,0.3-0.1,0.3l0,0c0,0,0-0.2,0-0.4
	c0-0.4,0.1-0.8,0.2-1.3c0-0.1,0-0.1,0-0.1l0,0c0,0-0.1,0.1-0.1,0.2c-0.2,0.6-0.3,1.3-0.4,2.2c0,0.2,0,0.3,0,0.6c0,0.1,0,0.2,0,0.2
	S7.1,29.3,7.1,29c0-0.4,0-0.4,0-0.6c0.1-0.6,0.2-1.4,0.4-2.1c0-0.1,0.1-0.3,0.1-0.3l0,0h0.1c0,0,0,0,0.1-0.2
	c0.1-0.3,0.3-0.8,0.5-1.4c0.1-0.1,0.1-0.1,0.1-0.2c0,0,0,0,0-0.1l0,0l0,0C8.5,24,8.6,23.9,8.6,24L8.6,24C8.7,24,8.7,24,8.6,24
	C8.6,23.9,8.6,23.9,8.6,24z M6.8,28c-0.1,0.5-0.1,1.2-0.1,1.8c0,0.1,0,0.1,0,0.2v0.1l0,0V30c0-0.1,0-0.1,0-0.2
	C6.6,29,6.7,28.4,6.8,28C6.8,27.9,6.9,27.9,6.8,28C6.9,27.9,6.9,27.9,6.8,28z M7.1,29.8v0.1c0,0,0,0,0,0.1l0,0C7,30,7,29.9,7.1,29.8
	C7,29.8,7,29.7,7.1,29.8C7,29.7,7,29.7,7.1,29.8C7,29.7,7,29.7,7.1,29.8z"/>
<g>
	<path class="st16" d="M39.1,21.7c-1,10.6-10.4,18.4-21,17.4S-0.3,28.6,0.7,18s10.4-18.4,21-17.4C32.3,1.7,40.1,11.1,39.1,21.7z"/>
</g>
</svg>
